<svg width="402" height="350" viewBox="0 0 402 350" fill="none" xmlns="http://www.w3.org/2000/svg">
<g clip-path="url(#clip0_985_56251)">
<rect x="-121" y="32.3896" width="262.924" height="173.064" rx="9.98447" fill="#BADCFF" fill-opacity="0.18"/>
<g filter="url(#filter0_b_985_56251)">
<rect x="36.5332" y="68.999" width="90.9696" height="27.7346" rx="2.21877" fill="#BADCFF" fill-opacity="0.18"/>
</g>
<g filter="url(#filter1_b_985_56251)">
<rect x="-32.248" y="102.281" width="159.752" height="62.1256" rx="2.21877" fill="#BADCFF" fill-opacity="0.18"/>
</g>
<g filter="url(#filter2_b_985_56251)">
<path d="M-32.0332 172.292C-32.0332 171.067 -31.0398 170.073 -29.8144 170.073H125.706C126.931 170.073 127.925 171.067 127.925 172.292V205.12H-32.0332V172.292Z" fill="#BADCFF" fill-opacity="0.18"/>
</g>
<g filter="url(#filter3_b_985_56251)">
<rect x="-59.9824" y="68.999" width="90.9696" height="27.7346" rx="2.21877" fill="#BADCFF" fill-opacity="0.18"/>
</g>
<g filter="url(#filter4_b_985_56251)">
<rect x="-120.998" y="51.249" width="248.502" height="9.98447" rx="2.21877" fill="#BADCFF" fill-opacity="0.18"/>
</g>
<g filter="url(#filter5_b_985_56251)">
<rect x="259.52" y="194.359" width="262.924" height="173.064" rx="9.98447" fill="#BADCFF" fill-opacity="0.18"/>
<g filter="url(#filter6_b_985_56251)">
<rect x="411.506" y="339.689" width="90.9696" height="27.7346" rx="2.21877" transform="rotate(180 411.506 339.689)" fill="#BADCFF" fill-opacity="0.18"/>
</g>
<g filter="url(#filter7_b_985_56251)">
<rect x="480.287" y="306.407" width="159.752" height="62.1256" rx="2.21877" transform="rotate(180 480.287 306.407)" fill="#BADCFF" fill-opacity="0.18"/>
</g>
<g filter="url(#filter8_b_985_56251)">
<path d="M480.287 236.516C480.287 237.741 479.294 238.734 478.068 238.734H322.754C321.529 238.734 320.536 237.741 320.536 236.516V204.343H480.287V236.516Z" fill="#BADCFF" fill-opacity="0.18"/>
</g>
<g filter="url(#filter9_b_985_56251)">
<rect x="569.037" y="357.439" width="248.502" height="9.98447" rx="2.21877" transform="rotate(180 569.037 357.439)" fill="#BADCFF" fill-opacity="0.18"/>
</g>
<g filter="url(#filter10_b_985_56251)">
<rect x="313.879" y="357.438" width="45.4848" height="153.095" rx="2.21877" transform="rotate(180 313.879 357.438)" fill="#BADCFF" fill-opacity="0.18"/>
</g>
<path d="M208.193 301.818L204.311 282.403L221.506 293.497L212.631 295.716L208.193 301.818Z" fill="#151D53" stroke="white" stroke-width="1.10939"/>
<rect x="219.107" y="305.087" width="138.902" height="20.4268" fill="#151D53"/>
<path d="M225.74 319.584H224.536L227.241 312.069H228.55L231.255 319.584H230.051L227.927 313.434H227.868L225.74 319.584ZM225.942 316.641H229.846V317.595H225.942V316.641ZM232.252 319.584V313.948H233.312V314.843H233.371C233.474 314.54 233.655 314.301 233.914 314.128C234.176 313.951 234.472 313.863 234.802 313.863C234.871 313.863 234.951 313.866 235.044 313.871C235.14 313.876 235.214 313.882 235.268 313.889V314.939C235.224 314.926 235.146 314.913 235.033 314.898C234.921 314.881 234.808 314.872 234.696 314.872C234.437 314.872 234.205 314.927 234.002 315.038C233.802 315.145 233.643 315.296 233.525 315.489C233.408 315.68 233.349 315.897 233.349 316.142V319.584H232.252ZM239.182 313.948V314.828H236.103V313.948H239.182ZM236.929 312.597H238.026V317.929C238.026 318.142 238.058 318.302 238.121 318.41C238.185 318.515 238.267 318.587 238.367 318.626C238.47 318.663 238.581 318.681 238.701 318.681C238.789 318.681 238.866 318.675 238.932 318.663C238.998 318.651 239.05 318.641 239.086 318.634L239.284 319.54C239.221 319.564 239.13 319.589 239.013 319.613C238.895 319.64 238.749 319.655 238.573 319.657C238.284 319.662 238.015 319.611 237.765 319.503C237.516 319.396 237.314 319.229 237.16 319.004C237.006 318.779 236.929 318.497 236.929 318.157V312.597ZM241.614 316.237V319.584H240.516V312.069H241.599V314.865H241.669C241.801 314.562 242.003 314.321 242.274 314.142C242.546 313.964 242.9 313.874 243.338 313.874C243.725 313.874 244.062 313.954 244.351 314.113C244.642 314.272 244.867 314.509 245.026 314.825C245.188 315.138 245.268 315.529 245.268 315.999V319.584H244.171V316.131C244.171 315.718 244.065 315.397 243.852 315.17C243.639 314.94 243.343 314.825 242.964 314.825C242.705 314.825 242.472 314.88 242.267 314.99C242.064 315.1 241.903 315.261 241.786 315.474C241.671 315.685 241.614 315.939 241.614 316.237ZM250.303 317.247V313.948H251.404V319.584H250.325V318.608H250.266C250.136 318.909 249.928 319.16 249.642 319.36C249.359 319.558 249.005 319.657 248.582 319.657C248.22 319.657 247.899 319.578 247.62 319.419C247.344 319.257 247.126 319.019 246.967 318.703C246.811 318.388 246.732 317.998 246.732 317.533V313.948H247.83V317.401C247.83 317.785 247.936 318.091 248.149 318.318C248.362 318.546 248.638 318.659 248.978 318.659C249.184 318.659 249.388 318.608 249.591 318.505C249.796 318.402 249.966 318.247 250.101 318.039C250.238 317.831 250.305 317.567 250.303 317.247ZM252.878 319.584V313.948H253.938V314.843H253.997C254.1 314.54 254.281 314.301 254.54 314.128C254.802 313.951 255.098 313.863 255.428 313.863C255.497 313.863 255.577 313.866 255.67 313.871C255.766 313.876 255.84 313.882 255.894 313.889V314.939C255.85 314.926 255.772 314.913 255.659 314.898C255.547 314.881 255.434 314.872 255.322 314.872C255.062 314.872 254.831 314.927 254.628 315.038C254.427 315.145 254.268 315.296 254.151 315.489C254.034 315.68 253.975 315.897 253.975 316.142V319.584H252.878ZM259.897 315.827C259.897 314.907 260.018 314.06 260.261 313.287C260.503 312.514 260.856 311.801 261.321 311.148H262.327C262.145 311.39 261.977 311.687 261.82 312.04C261.664 312.392 261.527 312.778 261.409 313.199C261.292 313.618 261.2 314.052 261.134 314.502C261.068 314.95 261.035 315.391 261.035 315.827C261.035 316.409 261.092 316.998 261.207 317.595C261.322 318.192 261.478 318.746 261.673 319.257C261.869 319.769 262.087 320.186 262.327 320.509H261.321C260.856 319.856 260.503 319.142 260.261 318.369C260.018 317.596 259.897 316.749 259.897 315.827ZM263.571 319.584V312.069H266.25C266.835 312.069 267.319 312.175 267.703 312.388C268.087 312.601 268.375 312.892 268.565 313.262C268.756 313.629 268.852 314.042 268.852 314.502C268.852 314.964 268.755 315.38 268.562 315.749C268.371 316.116 268.082 316.407 267.696 316.623C267.312 316.836 266.829 316.942 266.246 316.942H264.404V315.981H266.144C266.513 315.981 266.813 315.917 267.043 315.79C267.273 315.66 267.441 315.484 267.549 315.261C267.657 315.039 267.71 314.786 267.71 314.502C267.71 314.218 267.657 313.966 267.549 313.746C267.441 313.526 267.271 313.353 267.039 313.229C266.809 313.104 266.506 313.041 266.129 313.041H264.705V319.584H263.571ZM270.093 319.584V313.948H271.153V314.843H271.212C271.315 314.54 271.496 314.301 271.755 314.128C272.017 313.951 272.313 313.863 272.643 313.863C272.712 313.863 272.792 313.866 272.885 313.871C272.981 313.876 273.055 313.882 273.109 313.889V314.939C273.065 314.926 272.987 314.913 272.874 314.898C272.762 314.881 272.649 314.872 272.537 314.872C272.277 314.872 272.046 314.927 271.843 315.038C271.643 315.145 271.484 315.296 271.366 315.489C271.249 315.68 271.19 315.897 271.19 316.142V319.584H270.093ZM276.231 319.698C275.702 319.698 275.241 319.577 274.847 319.334C274.454 319.092 274.148 318.753 273.93 318.318C273.712 317.883 273.604 317.374 273.604 316.792C273.604 316.207 273.712 315.696 273.93 315.258C274.148 314.82 274.454 314.48 274.847 314.238C275.241 313.995 275.702 313.874 276.231 313.874C276.759 313.874 277.22 313.995 277.614 314.238C278.008 314.48 278.314 314.82 278.532 315.258C278.749 315.696 278.858 316.207 278.858 316.792C278.858 317.374 278.749 317.883 278.532 318.318C278.314 318.753 278.008 319.092 277.614 319.334C277.22 319.577 276.759 319.698 276.231 319.698ZM276.235 318.777C276.577 318.777 276.861 318.686 277.086 318.505C277.311 318.324 277.477 318.083 277.585 317.782C277.695 317.481 277.75 317.15 277.75 316.788C277.75 316.428 277.695 316.098 277.585 315.797C277.477 315.494 277.311 315.25 277.086 315.067C276.861 314.883 276.577 314.792 276.235 314.792C275.89 314.792 275.603 314.883 275.376 315.067C275.151 315.25 274.983 315.494 274.873 315.797C274.766 316.098 274.712 316.428 274.712 316.788C274.712 317.15 274.766 317.481 274.873 317.782C274.983 318.083 275.151 318.324 275.376 318.505C275.603 318.686 275.89 318.777 276.235 318.777ZM282.193 319.694C281.738 319.694 281.332 319.578 280.974 319.345C280.62 319.111 280.341 318.777 280.138 318.344C279.937 317.908 279.837 317.386 279.837 316.777C279.837 316.168 279.938 315.647 280.142 315.214C280.347 314.781 280.628 314.449 280.985 314.219C281.343 313.989 281.747 313.874 282.2 313.874C282.55 313.874 282.831 313.933 283.044 314.051C283.259 314.165 283.426 314.3 283.543 314.454C283.663 314.608 283.756 314.744 283.822 314.861H283.888V312.069H284.985V319.584H283.914V318.707H283.822C283.756 318.827 283.66 318.964 283.536 319.118C283.413 319.272 283.245 319.407 283.029 319.522C282.814 319.637 282.535 319.694 282.193 319.694ZM282.435 318.758C282.75 318.758 283.017 318.675 283.235 318.509C283.455 318.34 283.621 318.106 283.734 317.808C283.849 317.51 283.906 317.162 283.906 316.766C283.906 316.374 283.85 316.032 283.738 315.738C283.625 315.445 283.46 315.216 283.242 315.052C283.024 314.888 282.755 314.806 282.435 314.806C282.105 314.806 281.829 314.892 281.609 315.063C281.389 315.235 281.223 315.468 281.11 315.764C281 316.06 280.945 316.394 280.945 316.766C280.945 317.143 281.001 317.481 281.114 317.782C281.226 318.083 281.393 318.322 281.613 318.498C281.836 318.672 282.11 318.758 282.435 318.758ZM290.121 317.247V313.948H291.222V319.584H290.143V318.608H290.085C289.955 318.909 289.747 319.16 289.461 319.36C289.177 319.558 288.824 319.657 288.4 319.657C288.038 319.657 287.718 319.578 287.439 319.419C287.163 319.257 286.945 319.019 286.786 318.703C286.629 318.388 286.551 317.998 286.551 317.533V313.948H287.648V317.401C287.648 317.785 287.755 318.091 287.967 318.318C288.18 318.546 288.457 318.659 288.797 318.659C289.002 318.659 289.206 318.608 289.41 318.505C289.615 318.402 289.785 318.247 289.92 318.039C290.057 317.831 290.124 317.567 290.121 317.247ZM295.071 319.698C294.525 319.698 294.055 319.574 293.661 319.327C293.27 319.078 292.969 318.734 292.759 318.296C292.548 317.858 292.443 317.357 292.443 316.792C292.443 316.219 292.551 315.714 292.766 315.276C292.981 314.836 293.285 314.492 293.676 314.245C294.068 313.998 294.529 313.874 295.06 313.874C295.488 313.874 295.869 313.954 296.204 314.113C296.54 314.269 296.81 314.49 297.015 314.773C297.223 315.057 297.347 315.389 297.386 315.768H296.318C296.259 315.504 296.125 315.276 295.914 315.085C295.707 314.894 295.428 314.799 295.078 314.799C294.772 314.799 294.504 314.88 294.274 315.041C294.047 315.2 293.869 315.428 293.742 315.724C293.615 316.017 293.551 316.365 293.551 316.766C293.551 317.177 293.614 317.532 293.739 317.83C293.863 318.128 294.039 318.36 294.267 318.524C294.497 318.687 294.767 318.769 295.078 318.769C295.286 318.769 295.474 318.731 295.643 318.656C295.814 318.577 295.957 318.466 296.072 318.322C296.19 318.177 296.272 318.004 296.318 317.801H297.386C297.347 318.165 297.228 318.49 297.03 318.777C296.832 319.063 296.566 319.288 296.234 319.452C295.903 319.616 295.516 319.698 295.071 319.698ZM301.19 313.948V314.828H298.112V313.948H301.19ZM298.937 312.597H300.034V317.929C300.034 318.142 300.066 318.302 300.13 318.41C300.193 318.515 300.275 318.587 300.376 318.626C300.478 318.663 300.59 318.681 300.709 318.681C300.798 318.681 300.875 318.675 300.941 318.663C301.007 318.651 301.058 318.641 301.095 318.634L301.293 319.54C301.229 319.564 301.139 319.589 301.021 319.613C300.904 319.64 300.757 319.655 300.581 319.657C300.292 319.662 300.023 319.611 299.774 319.503C299.524 319.396 299.322 319.229 299.168 319.004C299.014 318.779 298.937 318.497 298.937 318.157V312.597ZM305.227 312.069H306.603L308.995 317.911H309.083L311.476 312.069H312.852V319.584H311.773V314.146H311.703L309.487 319.573H308.591L306.375 314.142H306.305V319.584H305.227V312.069ZM316.052 319.709C315.695 319.709 315.372 319.643 315.083 319.511C314.795 319.376 314.566 319.182 314.397 318.927C314.231 318.673 314.148 318.361 314.148 317.991C314.148 317.673 314.209 317.412 314.331 317.206C314.454 317.001 314.619 316.838 314.827 316.718C315.035 316.598 315.267 316.508 315.524 316.447C315.781 316.385 316.042 316.339 316.309 316.307C316.647 316.268 316.921 316.236 317.131 316.212C317.341 316.185 317.494 316.142 317.59 316.083C317.685 316.025 317.733 315.929 317.733 315.797V315.771C317.733 315.451 317.642 315.203 317.461 315.027C317.283 314.85 317.016 314.762 316.661 314.762C316.292 314.762 316.001 314.844 315.788 315.008C315.578 315.17 315.432 315.349 315.351 315.548L314.32 315.313C314.443 314.97 314.621 314.694 314.856 314.484C315.093 314.271 315.366 314.117 315.674 314.021C315.982 313.923 316.307 313.874 316.647 313.874C316.872 313.874 317.11 313.901 317.362 313.955C317.617 314.006 317.854 314.102 318.074 314.241C318.297 314.381 318.479 314.58 318.621 314.839C318.763 315.096 318.834 315.43 318.834 315.841V319.584H317.762V318.813H317.718C317.647 318.955 317.541 319.095 317.399 319.232C317.257 319.369 317.075 319.482 316.852 319.573C316.63 319.663 316.363 319.709 316.052 319.709ZM316.291 318.828C316.594 318.828 316.853 318.768 317.069 318.648C317.286 318.528 317.451 318.372 317.564 318.179C317.679 317.983 317.736 317.774 317.736 317.551V316.825C317.697 316.864 317.622 316.9 317.509 316.935C317.399 316.966 317.273 316.995 317.131 317.019C316.989 317.041 316.851 317.062 316.716 317.081C316.582 317.099 316.469 317.113 316.379 317.125C316.166 317.152 315.971 317.198 315.795 317.261C315.622 317.325 315.482 317.417 315.377 317.536C315.274 317.654 315.223 317.81 315.223 318.006C315.223 318.278 315.323 318.483 315.524 318.623C315.724 318.76 315.98 318.828 316.291 318.828ZM321.392 316.237V319.584H320.295V313.948H321.348V314.865H321.418C321.547 314.567 321.751 314.327 322.027 314.146C322.306 313.965 322.657 313.874 323.08 313.874C323.464 313.874 323.8 313.955 324.089 314.117C324.378 314.276 324.602 314.513 324.761 314.828C324.92 315.144 324.999 315.534 324.999 315.999V319.584H323.902V316.131C323.902 315.723 323.796 315.403 323.583 315.173C323.37 314.941 323.078 314.825 322.706 314.825C322.451 314.825 322.225 314.88 322.027 314.99C321.831 315.1 321.676 315.261 321.561 315.474C321.448 315.685 321.392 315.939 321.392 316.237ZM328.111 319.709C327.754 319.709 327.431 319.643 327.142 319.511C326.853 319.376 326.625 319.182 326.456 318.927C326.29 318.673 326.206 318.361 326.206 317.991C326.206 317.673 326.268 317.412 326.39 317.206C326.512 317.001 326.677 316.838 326.885 316.718C327.093 316.598 327.326 316.508 327.582 316.447C327.839 316.385 328.101 316.339 328.368 316.307C328.705 316.268 328.979 316.236 329.19 316.212C329.4 316.185 329.553 316.142 329.648 316.083C329.744 316.025 329.791 315.929 329.791 315.797V315.771C329.791 315.451 329.701 315.203 329.52 315.027C329.341 314.85 329.075 314.762 328.72 314.762C328.351 314.762 328.059 314.844 327.847 315.008C327.636 315.17 327.491 315.349 327.41 315.548L326.379 315.313C326.501 314.97 326.68 314.694 326.915 314.484C327.152 314.271 327.425 314.117 327.733 314.021C328.041 313.923 328.365 313.874 328.705 313.874C328.93 313.874 329.169 313.901 329.421 313.955C329.675 314.006 329.913 314.102 330.133 314.241C330.355 314.381 330.538 314.58 330.679 314.839C330.821 315.096 330.892 315.43 330.892 315.841V319.584H329.821V318.813H329.777C329.706 318.955 329.599 319.095 329.457 319.232C329.316 319.369 329.133 319.482 328.911 319.573C328.688 319.663 328.421 319.709 328.111 319.709ZM328.349 318.828C328.653 318.828 328.912 318.768 329.127 318.648C329.345 318.528 329.51 318.372 329.623 318.179C329.738 317.983 329.795 317.774 329.795 317.551V316.825C329.756 316.864 329.68 316.9 329.568 316.935C329.457 316.966 329.332 316.995 329.19 317.019C329.048 317.041 328.91 317.062 328.775 317.081C328.64 317.099 328.528 317.113 328.437 317.125C328.225 317.152 328.03 317.198 327.854 317.261C327.68 317.325 327.541 317.417 327.436 317.536C327.333 317.654 327.282 317.81 327.282 318.006C327.282 318.278 327.382 318.483 327.582 318.623C327.783 318.76 328.039 318.828 328.349 318.828ZM334.717 321.815C334.269 321.815 333.884 321.756 333.561 321.639C333.24 321.521 332.979 321.366 332.776 321.173C332.573 320.98 332.421 320.768 332.321 320.538L333.264 320.149C333.33 320.257 333.418 320.37 333.528 320.49C333.64 320.613 333.792 320.717 333.983 320.802C334.176 320.888 334.424 320.931 334.728 320.931C335.144 320.931 335.487 320.829 335.759 320.626C336.03 320.426 336.166 320.105 336.166 319.665V318.557H336.096C336.03 318.676 335.935 318.81 335.81 318.957C335.688 319.103 335.519 319.23 335.304 319.338C335.089 319.446 334.808 319.5 334.463 319.5C334.018 319.5 333.617 319.396 333.26 319.188C332.905 318.977 332.624 318.668 332.416 318.259C332.21 317.848 332.108 317.343 332.108 316.744C332.108 316.145 332.209 315.631 332.412 315.203C332.618 314.775 332.899 314.447 333.256 314.219C333.613 313.989 334.018 313.874 334.471 313.874C334.821 313.874 335.103 313.933 335.318 314.051C335.534 314.165 335.701 314.3 335.821 314.454C335.943 314.608 336.038 314.744 336.104 314.861H336.184V313.948H337.26V319.709C337.26 320.193 337.147 320.591 336.922 320.901C336.697 321.212 336.392 321.442 336.008 321.591C335.627 321.74 335.196 321.815 334.717 321.815ZM334.706 318.59C335.021 318.59 335.288 318.516 335.506 318.369C335.726 318.22 335.892 318.007 336.005 317.731C336.12 317.452 336.177 317.118 336.177 316.729C336.177 316.35 336.121 316.016 336.008 315.727C335.896 315.439 335.731 315.214 335.513 315.052C335.295 314.888 335.026 314.806 334.706 314.806C334.375 314.806 334.1 314.892 333.88 315.063C333.66 315.232 333.494 315.462 333.381 315.753C333.271 316.044 333.216 316.37 333.216 316.729C333.216 317.099 333.272 317.423 333.385 317.702C333.497 317.98 333.664 318.198 333.884 318.355C334.106 318.511 334.38 318.59 334.706 318.59ZM341.16 319.698C340.605 319.698 340.127 319.579 339.725 319.342C339.327 319.102 339.018 318.766 338.801 318.333C338.585 317.897 338.478 317.387 338.478 316.803C338.478 316.225 338.585 315.716 338.801 315.276C339.018 314.836 339.322 314.492 339.711 314.245C340.102 313.998 340.56 313.874 341.083 313.874C341.401 313.874 341.709 313.927 342.008 314.032C342.306 314.137 342.574 314.302 342.811 314.528C343.049 314.753 343.236 315.045 343.373 315.405C343.51 315.762 343.578 316.196 343.578 316.707V317.096H339.098V316.274H342.503C342.503 315.986 342.444 315.73 342.327 315.507C342.21 315.282 342.045 315.105 341.832 314.975C341.621 314.846 341.374 314.781 341.09 314.781C340.782 314.781 340.513 314.857 340.283 315.008C340.056 315.157 339.88 315.353 339.755 315.595C339.632 315.835 339.571 316.096 339.571 316.377V317.019C339.571 317.396 339.637 317.716 339.769 317.98C339.904 318.245 340.091 318.446 340.331 318.586C340.571 318.723 340.851 318.791 341.171 318.791C341.379 318.791 341.569 318.762 341.74 318.703C341.911 318.642 342.059 318.552 342.184 318.432C342.309 318.312 342.404 318.164 342.47 317.988L343.509 318.175C343.425 318.481 343.276 318.749 343.061 318.979C342.848 319.206 342.58 319.383 342.257 319.511C341.937 319.635 341.571 319.698 341.16 319.698ZM344.796 319.584V313.948H345.856V314.843H345.915C346.018 314.54 346.199 314.301 346.458 314.128C346.72 313.951 347.016 313.863 347.346 313.863C347.414 313.863 347.495 313.866 347.588 313.871C347.683 313.876 347.758 313.882 347.812 313.889V314.939C347.768 314.926 347.69 314.913 347.577 314.898C347.465 314.881 347.352 314.872 347.239 314.872C346.98 314.872 346.749 314.927 346.546 315.038C346.345 315.145 346.186 315.296 346.069 315.489C345.952 315.68 345.893 315.897 345.893 316.142V319.584H344.796ZM350.871 316.465C350.871 317.387 350.75 318.235 350.508 319.008C350.266 319.781 349.912 320.494 349.448 321.147H348.442C348.623 320.905 348.792 320.608 348.948 320.255C349.105 319.903 349.242 319.518 349.359 319.1C349.477 318.679 349.569 318.243 349.635 317.793C349.701 317.343 349.734 316.9 349.734 316.465C349.734 315.885 349.676 315.297 349.561 314.7C349.446 314.103 349.291 313.549 349.095 313.038C348.9 312.526 348.682 312.109 348.442 311.786H349.448C349.912 312.44 350.266 313.153 350.508 313.926C350.75 314.699 350.871 315.545 350.871 316.465Z" fill="white"/>
</g>
<g filter="url(#filter11_b_985_56251)">
<path d="M141.924 120.031H196.838C202.353 120.031 206.823 124.501 206.823 130.016V272.572C206.823 278.086 211.293 282.556 216.807 282.556H258.964" stroke="white" stroke-opacity="0.53" stroke-width="0.898639"/>
</g>
<circle cx="141.371" cy="119.476" r="7.21101" fill="#007BFB" fill-opacity="0.9"/>
<circle cx="141.371" cy="119.476" r="6.65631" stroke="white" stroke-opacity="0.29" stroke-width="1.10939"/>
<g filter="url(#filter12_b_985_56251)">
<circle cx="260.074" cy="282.556" r="7.21101" fill="#0276F1"/>
</g>
<path d="M40.4121 219.32L36.5293 199.906L53.7248 211L44.8497 213.219L40.4121 219.32Z" fill="#BCC6EE" stroke="white" stroke-width="1.10939"/>
<rect x="50.582" y="223.38" width="152.18" height="20.4268" fill="#BCC6EE"/>
<path d="M63.3892 229.571V237.086H62.3471L58.5272 231.574H58.4575V237.086H57.3237V229.571H58.3731L62.1966 235.09H62.2664V229.571H63.3892ZM64.9551 237.086V231.45H66.0523V237.086H64.9551ZM65.5092 230.58C65.3184 230.58 65.1545 230.516 65.0175 230.389C64.883 230.26 64.8157 230.105 64.8157 229.927C64.8157 229.746 64.883 229.592 65.0175 229.465C65.1545 229.335 65.3184 229.27 65.5092 229.27C65.7 229.27 65.8627 229.335 65.9972 229.465C66.1342 229.592 66.2027 229.746 66.2027 229.927C66.2027 230.105 66.1342 230.26 65.9972 230.389C65.8627 230.516 65.7 230.58 65.5092 230.58ZM70.1593 231.45V232.33H67.0806V231.45H70.1593ZM67.9062 230.099H69.0034V235.431C69.0034 235.644 69.0352 235.804 69.0988 235.912C69.1624 236.017 69.2444 236.089 69.3447 236.128C69.4474 236.165 69.5587 236.183 69.6786 236.183C69.7666 236.183 69.8437 236.177 69.9097 236.165C69.9758 236.153 70.0272 236.143 70.0639 236.136L70.262 237.042C70.1984 237.066 70.1079 237.091 69.9905 237.115C69.8731 237.142 69.7263 237.157 69.5501 237.159C69.2615 237.164 68.9924 237.113 68.7429 237.005C68.4934 236.898 68.2915 236.731 68.1374 236.506C67.9833 236.281 67.9062 235.999 67.9062 235.659V230.099ZM72.5912 233.739V237.086H71.494V229.571H72.5765V232.367H72.6462C72.7783 232.064 72.9801 231.823 73.2517 231.644C73.5232 231.466 73.8779 231.376 74.3158 231.376C74.7023 231.376 75.0399 231.456 75.3286 231.615C75.6197 231.774 75.8447 232.011 76.0037 232.327C76.1652 232.64 76.2459 233.031 76.2459 233.501V237.086H75.1488V233.633C75.1488 233.22 75.0423 232.899 74.8295 232.672C74.6167 232.442 74.3207 232.327 73.9415 232.327C73.6822 232.327 73.4498 232.382 73.2443 232.492C73.0413 232.602 72.8811 232.763 72.7636 232.976C72.6487 233.187 72.5912 233.441 72.5912 233.739ZM81.2803 234.749V231.45H82.3812V237.086H81.3024V236.11H81.2436C81.114 236.411 80.9061 236.662 80.6198 236.862C80.3361 237.06 79.9826 237.159 79.5594 237.159C79.1973 237.159 78.8769 237.08 78.598 236.921C78.3216 236.759 78.1039 236.521 77.9448 236.205C77.7883 235.89 77.71 235.5 77.71 235.035V231.45H78.8072V234.903C78.8072 235.287 78.9136 235.592 79.1264 235.82C79.3392 236.047 79.6157 236.161 79.9557 236.161C80.1612 236.161 80.3654 236.11 80.5685 236.007C80.774 235.904 80.944 235.749 81.0785 235.541C81.2155 235.333 81.2828 235.069 81.2803 234.749ZM88.0788 232.826L87.0844 233.002C87.0428 232.875 86.9768 232.754 86.8863 232.639C86.7982 232.524 86.6784 232.429 86.5267 232.356C86.375 232.283 86.1854 232.246 85.9579 232.246C85.6472 232.246 85.3879 232.316 85.18 232.455C84.9721 232.592 84.8681 232.769 84.8681 232.987C84.8681 233.176 84.9378 233.327 85.0773 233.442C85.2167 233.557 85.4418 233.651 85.7524 233.725L86.6478 233.93C87.1664 234.05 87.5529 234.235 87.8073 234.484C88.0617 234.734 88.1889 235.058 88.1889 235.457C88.1889 235.794 88.0911 236.095 87.8954 236.359C87.7021 236.621 87.4318 236.827 87.0844 236.976C86.7395 237.125 86.3395 237.2 85.8845 237.2C85.2534 237.2 84.7385 237.065 84.3397 236.796C83.941 236.525 83.6963 236.139 83.6058 235.64L84.6663 235.479C84.7323 235.755 84.8681 235.964 85.0736 236.106C85.2791 236.246 85.5469 236.315 85.8772 236.315C86.2368 236.315 86.5242 236.241 86.7395 236.092C86.9548 235.94 87.0624 235.755 87.0624 235.537C87.0624 235.361 86.9964 235.213 86.8643 235.093C86.7346 234.974 86.5352 234.883 86.2662 234.822L85.3121 234.613C84.7862 234.493 84.3972 234.302 84.1452 234.04C83.8957 233.779 83.771 233.447 83.771 233.046C83.771 232.713 83.8639 232.422 84.0498 232.173C84.2357 231.923 84.4926 231.729 84.8204 231.589C85.1482 231.447 85.5237 231.376 85.9469 231.376C86.556 231.376 87.0355 231.508 87.3853 231.773C87.7351 232.034 87.9663 232.385 88.0788 232.826ZM90.4924 233.739V237.086H89.3952V229.571H90.4777V232.367H90.5474C90.6795 232.064 90.8814 231.823 91.1529 231.644C91.4244 231.466 91.7791 231.376 92.217 231.376C92.6035 231.376 92.9411 231.456 93.2298 231.615C93.5209 231.774 93.7459 232.011 93.905 232.327C94.0664 232.64 94.1471 233.031 94.1471 233.501V237.086H93.05V233.633C93.05 233.22 92.9436 232.899 92.7307 232.672C92.5179 232.442 92.2219 232.327 91.8427 232.327C91.5834 232.327 91.351 232.382 91.1456 232.492C90.9425 232.602 90.7823 232.763 90.6649 232.976C90.5499 233.187 90.4924 233.441 90.4924 233.739ZM97.2515 237.211C96.8943 237.211 96.5714 237.145 96.2827 237.013C95.9941 236.878 95.7653 236.684 95.5966 236.429C95.4302 236.175 95.347 235.863 95.347 235.493C95.347 235.175 95.4082 234.914 95.5305 234.708C95.6528 234.503 95.8179 234.34 96.0259 234.22C96.2338 234.1 96.4662 234.01 96.7231 233.949C96.9799 233.887 97.2417 233.841 97.5083 233.809C97.8459 233.77 98.1199 233.738 98.3303 233.714C98.5406 233.687 98.6935 233.644 98.7889 233.585C98.8843 233.527 98.932 233.431 98.932 233.299V233.273C98.932 232.953 98.8415 232.705 98.6605 232.529C98.4819 232.352 98.2153 232.264 97.8606 232.264C97.4912 232.264 97.2001 232.346 96.9873 232.51C96.7769 232.672 96.6313 232.851 96.5506 233.05L95.5195 232.815C95.6418 232.472 95.8204 232.196 96.0552 231.985C96.2925 231.773 96.5653 231.619 96.8735 231.523C97.1817 231.425 97.5059 231.376 97.8459 231.376C98.071 231.376 98.3095 231.403 98.5614 231.457C98.8158 231.508 99.0531 231.604 99.2733 231.743C99.4959 231.883 99.6782 232.082 99.82 232.341C99.9619 232.598 100.033 232.932 100.033 233.343V237.086H98.9614V236.315H98.9174C98.8464 236.457 98.74 236.597 98.5981 236.734C98.4562 236.871 98.274 236.984 98.0514 237.075C97.8288 237.165 97.5621 237.211 97.2515 237.211ZM97.49 236.33C97.7933 236.33 98.0526 236.27 98.2679 236.15C98.4856 236.03 98.6507 235.874 98.7633 235.681C98.8782 235.485 98.9357 235.276 98.9357 235.053V234.327C98.8966 234.366 98.8207 234.402 98.7082 234.437C98.5981 234.468 98.4721 234.497 98.3303 234.521C98.1884 234.543 98.0502 234.564 97.9156 234.583C97.7811 234.601 97.6685 234.615 97.578 234.627C97.3652 234.654 97.1707 234.7 96.9946 234.763C96.8209 234.827 96.6815 234.919 96.5763 235.038C96.4735 235.156 96.4222 235.312 96.4222 235.508C96.4222 235.78 96.5225 235.985 96.7231 236.125C96.9237 236.262 97.1793 236.33 97.49 236.33ZM104.548 233.328C104.548 232.409 104.669 231.562 104.911 230.789C105.154 230.016 105.507 229.303 105.972 228.65H106.977C106.796 228.892 106.627 229.189 106.471 229.542C106.314 229.894 106.177 230.28 106.06 230.701C105.942 231.119 105.851 231.554 105.785 232.004C105.719 232.451 105.686 232.893 105.686 233.328C105.686 233.911 105.743 234.5 105.858 235.097C105.973 235.694 106.128 236.248 106.324 236.759C106.52 237.271 106.737 237.688 106.977 238.011H105.972C105.507 237.357 105.154 236.644 104.911 235.871C104.669 235.098 104.548 234.251 104.548 233.328ZM108.222 237.086V229.571H110.901C111.485 229.571 111.97 229.677 112.354 229.89C112.738 230.103 113.025 230.394 113.216 230.764C113.407 231.13 113.502 231.544 113.502 232.004C113.502 232.466 113.406 232.882 113.212 233.251C113.022 233.618 112.733 233.909 112.347 234.125C111.962 234.338 111.479 234.444 110.897 234.444H109.055V233.483H110.794C111.164 233.483 111.463 233.419 111.693 233.292C111.923 233.162 112.092 232.986 112.2 232.763C112.307 232.541 112.361 232.288 112.361 232.004C112.361 231.72 112.307 231.468 112.2 231.248C112.092 231.028 111.922 230.855 111.69 230.731C111.46 230.606 111.156 230.543 110.78 230.543H109.356V237.086H108.222ZM114.744 237.086V231.45H115.804V232.345H115.863C115.965 232.042 116.146 231.803 116.406 231.63C116.668 231.453 116.964 231.365 117.294 231.365C117.362 231.365 117.443 231.368 117.536 231.373C117.631 231.378 117.706 231.384 117.76 231.391V232.44C117.716 232.428 117.637 232.415 117.525 232.4C117.412 232.383 117.3 232.374 117.187 232.374C116.928 232.374 116.697 232.429 116.494 232.54C116.293 232.647 116.134 232.798 116.017 232.991C115.899 233.182 115.841 233.399 115.841 233.644V237.086H114.744ZM120.882 237.2C120.353 237.2 119.892 237.079 119.498 236.836C119.104 236.594 118.799 236.255 118.581 235.82C118.363 235.385 118.254 234.876 118.254 234.294C118.254 233.709 118.363 233.198 118.581 232.76C118.799 232.322 119.104 231.982 119.498 231.74C119.892 231.497 120.353 231.376 120.882 231.376C121.41 231.376 121.871 231.497 122.265 231.74C122.659 231.982 122.965 232.322 123.182 232.76C123.4 233.198 123.509 233.709 123.509 234.294C123.509 234.876 123.4 235.385 123.182 235.82C122.965 236.255 122.659 236.594 122.265 236.836C121.871 237.079 121.41 237.2 120.882 237.2ZM120.885 236.279C121.228 236.279 121.511 236.188 121.737 236.007C121.962 235.826 122.128 235.585 122.236 235.284C122.346 234.983 122.401 234.652 122.401 234.29C122.401 233.93 122.346 233.6 122.236 233.299C122.128 232.996 121.962 232.752 121.737 232.569C121.511 232.385 121.228 232.294 120.885 232.294C120.54 232.294 120.254 232.385 120.027 232.569C119.802 232.752 119.634 232.996 119.524 233.299C119.416 233.6 119.362 233.93 119.362 234.29C119.362 234.652 119.416 234.983 119.524 235.284C119.634 235.585 119.802 235.826 120.027 236.007C120.254 236.188 120.54 236.279 120.885 236.279ZM126.843 237.196C126.388 237.196 125.982 237.08 125.625 236.847C125.27 236.613 124.992 236.279 124.789 235.846C124.588 235.41 124.488 234.888 124.488 234.279C124.488 233.67 124.589 233.149 124.792 232.716C124.998 232.283 125.279 231.951 125.636 231.721C125.993 231.491 126.398 231.376 126.851 231.376C127.201 231.376 127.482 231.435 127.695 231.552C127.91 231.667 128.076 231.802 128.194 231.956C128.314 232.11 128.407 232.246 128.473 232.363H128.539V229.571H129.636V237.086H128.564V236.209H128.473C128.407 236.329 128.311 236.466 128.186 236.62C128.064 236.774 127.895 236.909 127.68 237.024C127.465 237.139 127.186 237.196 126.843 237.196ZM127.086 236.26C127.401 236.26 127.668 236.177 127.886 236.011C128.106 235.842 128.272 235.608 128.385 235.31C128.5 235.011 128.557 234.664 128.557 234.268C128.557 233.876 128.501 233.534 128.388 233.24C128.276 232.947 128.111 232.718 127.893 232.554C127.675 232.39 127.406 232.308 127.086 232.308C126.755 232.308 126.48 232.394 126.26 232.565C126.04 232.736 125.873 232.97 125.761 233.266C125.651 233.562 125.596 233.896 125.596 234.268C125.596 234.645 125.652 234.983 125.765 235.284C125.877 235.585 126.044 235.824 126.264 236C126.486 236.173 126.76 236.26 127.086 236.26ZM134.772 234.749V231.45H135.873V237.086H134.794V236.11H134.735C134.606 236.411 134.398 236.662 134.112 236.862C133.828 237.06 133.474 237.159 133.051 237.159C132.689 237.159 132.369 237.08 132.09 236.921C131.813 236.759 131.596 236.521 131.437 236.205C131.28 235.89 131.202 235.5 131.202 235.035V231.45H132.299V234.903C132.299 235.287 132.405 235.592 132.618 235.82C132.831 236.047 133.107 236.161 133.447 236.161C133.653 236.161 133.857 236.11 134.06 236.007C134.266 235.904 134.436 235.749 134.57 235.541C134.707 235.333 134.775 235.069 134.772 234.749ZM139.721 237.2C139.176 237.2 138.706 237.076 138.312 236.829C137.921 236.58 137.62 236.236 137.41 235.798C137.199 235.36 137.094 234.859 137.094 234.294C137.094 233.721 137.202 233.216 137.417 232.778C137.632 232.338 137.935 231.994 138.327 231.747C138.718 231.5 139.179 231.376 139.71 231.376C140.138 231.376 140.52 231.456 140.855 231.615C141.19 231.771 141.461 231.992 141.666 232.275C141.874 232.559 141.997 232.891 142.037 233.27H140.969C140.91 233.006 140.776 232.778 140.565 232.587C140.357 232.396 140.078 232.301 139.729 232.301C139.423 232.301 139.155 232.382 138.925 232.543C138.697 232.702 138.52 232.93 138.393 233.226C138.266 233.519 138.202 233.867 138.202 234.268C138.202 234.679 138.264 235.034 138.389 235.332C138.514 235.63 138.69 235.862 138.918 236.025C139.148 236.189 139.418 236.271 139.729 236.271C139.937 236.271 140.125 236.233 140.294 236.158C140.465 236.079 140.608 235.968 140.723 235.824C140.84 235.679 140.922 235.506 140.969 235.303H142.037C141.997 235.667 141.879 235.992 141.681 236.279C141.483 236.565 141.217 236.79 140.884 236.954C140.554 237.118 140.166 237.2 139.721 237.2ZM145.841 231.45V232.33H142.762V231.45H145.841ZM143.588 230.099H144.685V235.431C144.685 235.644 144.717 235.804 144.78 235.912C144.844 236.017 144.926 236.089 145.026 236.128C145.129 236.165 145.24 236.183 145.36 236.183C145.448 236.183 145.525 236.177 145.591 236.165C145.657 236.153 145.709 236.143 145.745 236.136L145.944 237.042C145.88 237.066 145.79 237.091 145.672 237.115C145.555 237.142 145.408 237.157 145.232 237.159C144.943 237.164 144.674 237.113 144.425 237.005C144.175 236.898 143.973 236.731 143.819 236.506C143.665 236.281 143.588 235.999 143.588 235.659V230.099ZM152.31 237.086H149.877V229.571H152.387C153.123 229.571 153.756 229.721 154.284 230.022C154.813 230.321 155.217 230.75 155.499 231.31C155.783 231.868 155.924 232.537 155.924 233.317C155.924 234.1 155.781 234.773 155.495 235.336C155.211 235.898 154.8 236.331 154.262 236.635C153.724 236.935 153.073 237.086 152.31 237.086ZM151.011 236.095H152.248C152.82 236.095 153.296 235.988 153.675 235.772C154.054 235.555 154.338 235.24 154.526 234.829C154.715 234.416 154.809 233.912 154.809 233.317C154.809 232.728 154.715 232.228 154.526 231.817C154.34 231.406 154.063 231.094 153.693 230.881C153.324 230.668 152.865 230.562 152.317 230.562H151.011V236.095ZM159.675 237.2C159.12 237.2 158.642 237.081 158.241 236.844C157.842 236.604 157.534 236.268 157.316 235.835C157.101 235.399 156.993 234.889 156.993 234.305C156.993 233.727 157.101 233.218 157.316 232.778C157.534 232.338 157.837 231.994 158.226 231.747C158.617 231.5 159.075 231.376 159.598 231.376C159.916 231.376 160.225 231.429 160.523 231.534C160.822 231.639 161.089 231.804 161.327 232.029C161.564 232.255 161.751 232.547 161.888 232.906C162.025 233.264 162.094 233.698 162.094 234.209V234.598H157.613V233.776H161.019C161.019 233.487 160.96 233.232 160.842 233.009C160.725 232.784 160.56 232.607 160.347 232.477C160.137 232.348 159.89 232.283 159.606 232.283C159.298 232.283 159.028 232.359 158.799 232.51C158.571 232.659 158.395 232.855 158.27 233.097C158.148 233.337 158.087 233.598 158.087 233.879V234.521C158.087 234.898 158.153 235.218 158.285 235.482C158.419 235.747 158.606 235.948 158.846 236.088C159.086 236.225 159.366 236.293 159.687 236.293C159.894 236.293 160.084 236.264 160.255 236.205C160.427 236.144 160.575 236.054 160.699 235.934C160.824 235.814 160.919 235.666 160.985 235.49L162.024 235.677C161.941 235.983 161.792 236.251 161.576 236.48C161.363 236.708 161.096 236.885 160.773 237.013C160.452 237.137 160.086 237.2 159.675 237.2ZM167.534 232.826L166.54 233.002C166.498 232.875 166.432 232.754 166.342 232.639C166.254 232.524 166.134 232.429 165.982 232.356C165.831 232.283 165.641 232.246 165.414 232.246C165.103 232.246 164.844 232.316 164.636 232.455C164.428 232.592 164.324 232.769 164.324 232.987C164.324 233.176 164.393 233.327 164.533 233.442C164.672 233.557 164.897 233.651 165.208 233.725L166.103 233.93C166.622 234.05 167.009 234.235 167.263 234.484C167.517 234.734 167.645 235.058 167.645 235.457C167.645 235.794 167.547 236.095 167.351 236.359C167.158 236.621 166.887 236.827 166.54 236.976C166.195 237.125 165.795 237.2 165.34 237.2C164.709 237.2 164.194 237.065 163.795 236.796C163.397 236.525 163.152 236.139 163.061 235.64L164.122 235.479C164.188 235.755 164.324 235.964 164.529 236.106C164.735 236.246 165.003 236.315 165.333 236.315C165.692 236.315 165.98 236.241 166.195 236.092C166.41 235.94 166.518 235.755 166.518 235.537C166.518 235.361 166.452 235.213 166.32 235.093C166.19 234.974 165.991 234.883 165.722 234.822L164.768 234.613C164.242 234.493 163.853 234.302 163.601 234.04C163.351 233.779 163.227 233.447 163.227 233.046C163.227 232.713 163.32 232.422 163.505 232.173C163.691 231.923 163.948 231.729 164.276 231.589C164.604 231.447 164.979 231.376 165.403 231.376C166.012 231.376 166.491 231.508 166.841 231.773C167.191 232.034 167.422 232.385 167.534 232.826ZM168.851 237.086V231.45H169.948V237.086H168.851ZM169.405 230.58C169.214 230.58 169.05 230.516 168.913 230.389C168.779 230.26 168.711 230.105 168.711 229.927C168.711 229.746 168.779 229.592 168.913 229.465C169.05 229.335 169.214 229.27 169.405 229.27C169.596 229.27 169.758 229.335 169.893 229.465C170.03 229.592 170.098 229.746 170.098 229.927C170.098 230.105 170.03 230.26 169.893 230.389C169.758 230.516 169.596 230.58 169.405 230.58ZM173.787 239.317C173.339 239.317 172.954 239.258 172.631 239.141C172.311 239.023 172.049 238.868 171.846 238.675C171.643 238.482 171.491 238.27 171.391 238.04L172.334 237.651C172.4 237.759 172.488 237.872 172.598 237.992C172.711 238.115 172.862 238.219 173.053 238.304C173.247 238.39 173.495 238.433 173.798 238.433C174.214 238.433 174.558 238.331 174.829 238.128C175.101 237.927 175.237 237.607 175.237 237.167V236.059H175.167C175.101 236.178 175.005 236.312 174.881 236.458C174.758 236.605 174.59 236.732 174.374 236.84C174.159 236.948 173.879 237.002 173.534 237.002C173.089 237.002 172.688 236.898 172.33 236.69C171.976 236.479 171.694 236.17 171.486 235.761C171.281 235.35 171.178 234.845 171.178 234.246C171.178 233.646 171.28 233.133 171.483 232.705C171.688 232.277 171.97 231.949 172.327 231.721C172.684 231.491 173.089 231.376 173.541 231.376C173.891 231.376 174.174 231.435 174.389 231.552C174.604 231.667 174.772 231.802 174.892 231.956C175.014 232.11 175.108 232.246 175.174 232.363H175.255V231.45H176.33V237.211C176.33 237.695 176.218 238.093 175.992 238.403C175.767 238.714 175.463 238.944 175.079 239.093C174.697 239.242 174.267 239.317 173.787 239.317ZM173.776 236.092C174.092 236.092 174.358 236.018 174.576 235.871C174.796 235.722 174.963 235.509 175.075 235.233C175.19 234.954 175.248 234.62 175.248 234.231C175.248 233.852 175.191 233.518 175.079 233.229C174.966 232.941 174.801 232.716 174.583 232.554C174.366 232.39 174.097 232.308 173.776 232.308C173.446 232.308 173.171 232.394 172.951 232.565C172.73 232.734 172.564 232.964 172.451 233.255C172.341 233.546 172.286 233.872 172.286 234.231C172.286 234.601 172.343 234.925 172.455 235.204C172.568 235.482 172.734 235.7 172.954 235.857C173.177 236.013 173.451 236.092 173.776 236.092ZM178.899 233.739V237.086H177.801V231.45H178.855V232.367H178.924C179.054 232.069 179.257 231.829 179.533 231.648C179.812 231.467 180.163 231.376 180.587 231.376C180.971 231.376 181.307 231.457 181.596 231.619C181.884 231.778 182.108 232.015 182.267 232.33C182.426 232.646 182.506 233.036 182.506 233.501V237.086H181.409V233.633C181.409 233.224 181.302 232.905 181.089 232.675C180.876 232.443 180.584 232.327 180.212 232.327C179.958 232.327 179.732 232.382 179.533 232.492C179.338 232.602 179.182 232.763 179.067 232.976C178.955 233.187 178.899 233.441 178.899 233.739ZM186.406 237.2C185.851 237.2 185.373 237.081 184.972 236.844C184.573 236.604 184.265 236.268 184.047 235.835C183.832 235.399 183.724 234.889 183.724 234.305C183.724 233.727 183.832 233.218 184.047 232.778C184.265 232.338 184.568 231.994 184.957 231.747C185.348 231.5 185.806 231.376 186.329 231.376C186.647 231.376 186.955 231.429 187.254 231.534C187.552 231.639 187.82 231.804 188.057 232.029C188.295 232.255 188.482 232.547 188.619 232.906C188.756 233.264 188.824 233.698 188.824 234.209V234.598H184.344V233.776H187.749C187.749 233.487 187.691 233.232 187.573 233.009C187.456 232.784 187.291 232.607 187.078 232.477C186.867 232.348 186.62 232.283 186.337 232.283C186.028 232.283 185.759 232.359 185.529 232.51C185.302 232.659 185.126 232.855 185.001 233.097C184.879 233.337 184.817 233.598 184.817 233.879V234.521C184.817 234.898 184.883 235.218 185.016 235.482C185.15 235.747 185.337 235.948 185.577 236.088C185.817 236.225 186.097 236.293 186.417 236.293C186.625 236.293 186.815 236.264 186.986 236.205C187.157 236.144 187.305 236.054 187.43 235.934C187.555 235.814 187.65 235.666 187.716 235.49L188.755 235.677C188.672 235.983 188.522 236.251 188.307 236.48C188.094 236.708 187.826 236.885 187.503 237.013C187.183 237.137 186.817 237.2 186.406 237.2ZM190.042 237.086V231.45H191.102V232.345H191.161C191.264 232.042 191.445 231.803 191.704 231.63C191.966 231.453 192.262 231.365 192.592 231.365C192.66 231.365 192.741 231.368 192.834 231.373C192.93 231.378 193.004 231.384 193.058 231.391V232.44C193.014 232.428 192.936 232.415 192.823 232.4C192.711 232.383 192.598 232.374 192.486 232.374C192.226 232.374 191.995 232.429 191.792 232.54C191.591 232.647 191.432 232.798 191.315 232.991C191.198 233.182 191.139 233.399 191.139 233.644V237.086H190.042ZM196.117 233.967C196.117 234.889 195.996 235.737 195.754 236.51C195.512 237.283 195.158 237.996 194.694 238.649H193.688C193.869 238.407 194.038 238.11 194.195 237.757C194.351 237.405 194.488 237.02 194.606 236.602C194.723 236.181 194.815 235.745 194.881 235.295C194.947 234.845 194.98 234.402 194.98 233.967C194.98 233.387 194.922 232.799 194.807 232.202C194.692 231.605 194.537 231.051 194.341 230.54C194.146 230.028 193.928 229.611 193.688 229.288H194.694C195.158 229.942 195.512 230.655 195.754 231.428C195.996 232.201 196.117 233.047 196.117 233.967Z" fill="#151D53"/>
<path d="M162.443 59.5685L158.561 40.1543L175.756 51.2482L166.881 53.4669L162.443 59.5685Z" fill="#007BFB" stroke="white" stroke-width="1.10939"/>
<rect x="173.145" y="62.0088" width="144.009" height="21.4481" fill="#007BFB"/>
<path d="M179.355 77.335V69.82H182.034C182.618 69.82 183.103 69.9264 183.487 70.1392C183.871 70.3521 184.158 70.6432 184.349 71.0126C184.54 71.3795 184.635 71.7929 184.635 72.2528C184.635 72.7152 184.539 73.131 184.345 73.5004C184.155 73.8674 183.866 74.1585 183.479 74.3737C183.095 74.5866 182.612 74.693 182.03 74.693H180.188V73.7316H181.927C182.297 73.7316 182.596 73.668 182.826 73.5408C183.056 73.4111 183.225 73.235 183.333 73.0124C183.44 72.7898 183.494 72.5366 183.494 72.2528C183.494 71.9691 183.44 71.7171 183.333 71.4969C183.225 71.2768 183.055 71.1043 182.823 70.9795C182.593 70.8548 182.289 70.7924 181.912 70.7924H180.489V77.335H179.355ZM185.876 77.335V71.6987H186.937V72.5941H186.996C187.098 72.2907 187.279 72.0522 187.539 71.8785C187.8 71.7024 188.096 71.6143 188.427 71.6143C188.495 71.6143 188.576 71.6168 188.669 71.6217C188.764 71.6266 188.839 71.6327 188.893 71.64V72.6895C188.849 72.6773 188.77 72.6638 188.658 72.6491C188.545 72.632 188.433 72.6234 188.32 72.6234C188.061 72.6234 187.83 72.6785 187.627 72.7886C187.426 72.8962 187.267 73.0466 187.15 73.2399C187.032 73.4307 186.974 73.6484 186.974 73.8931V77.335H185.876ZM189.842 77.335V71.6987H190.939V77.335H189.842ZM190.396 70.8291C190.205 70.8291 190.041 70.7655 189.904 70.6383C189.77 70.5086 189.703 70.3545 189.703 70.1759C189.703 69.9949 189.77 69.8408 189.904 69.7136C190.041 69.5839 190.205 69.5191 190.396 69.5191C190.587 69.5191 190.75 69.5839 190.884 69.7136C191.021 69.8408 191.09 69.9949 191.09 70.1759C191.09 70.3545 191.021 70.5086 190.884 70.6383C190.75 70.7655 190.587 70.8291 190.396 70.8291ZM196.639 73.0748L195.644 73.2509C195.603 73.1237 195.537 73.0026 195.446 72.8876C195.358 72.7727 195.238 72.6785 195.087 72.6051C194.935 72.5317 194.745 72.495 194.518 72.495C194.207 72.495 193.948 72.5647 193.74 72.7042C193.532 72.8412 193.428 73.0185 193.428 73.2362C193.428 73.4246 193.498 73.5763 193.637 73.6912C193.777 73.8062 194.002 73.9004 194.312 73.9738L195.208 74.1793C195.726 74.2991 196.113 74.4838 196.367 74.7333C196.622 74.9829 196.749 75.307 196.749 75.7057C196.749 76.0433 196.651 76.3442 196.455 76.6084C196.262 76.8702 195.992 77.0757 195.644 77.2249C195.299 77.3741 194.899 77.4487 194.444 77.4487C193.813 77.4487 193.298 77.3142 192.9 77.0451C192.501 76.7735 192.256 76.3883 192.166 75.8892L193.226 75.7278C193.292 76.0042 193.428 76.2133 193.634 76.3552C193.839 76.4947 194.107 76.5644 194.437 76.5644C194.797 76.5644 195.084 76.4898 195.299 76.3406C195.515 76.1889 195.622 76.0042 195.622 75.7865C195.622 75.6103 195.556 75.4623 195.424 75.3425C195.295 75.2226 195.095 75.1321 194.826 75.0709L193.872 74.8618C193.346 74.7419 192.957 74.5511 192.705 74.2893C192.456 74.0276 192.331 73.6961 192.331 73.2949C192.331 72.9622 192.424 72.6711 192.61 72.4216C192.796 72.1721 193.053 71.9776 193.38 71.8382C193.708 71.6963 194.084 71.6254 194.507 71.6254C195.116 71.6254 195.595 71.7575 195.945 72.0217C196.295 72.2834 196.526 72.6344 196.639 73.0748ZM200.329 77.4487C199.784 77.4487 199.314 77.3252 198.92 77.0781C198.529 76.8286 198.228 76.4849 198.018 76.047C197.807 75.6091 197.702 75.1076 197.702 74.5425C197.702 73.9701 197.81 73.465 198.025 73.0271C198.24 72.5867 198.543 72.243 198.935 71.996C199.326 71.7489 199.787 71.6254 200.318 71.6254C200.746 71.6254 201.128 71.7049 201.463 71.8639C201.798 72.0204 202.069 72.2406 202.274 72.5244C202.482 72.8081 202.606 73.1396 202.645 73.5188H201.577C201.518 73.2546 201.384 73.0271 201.173 72.8363C200.965 72.6455 200.686 72.55 200.337 72.55C200.031 72.55 199.763 72.6308 199.533 72.7922C199.306 72.9512 199.128 73.1787 199.001 73.4747C198.874 73.7683 198.81 74.1157 198.81 74.5169C198.81 74.9278 198.873 75.2825 198.997 75.581C199.122 75.8794 199.298 76.1106 199.526 76.2745C199.756 76.4384 200.026 76.5204 200.337 76.5204C200.545 76.5204 200.733 76.4824 200.902 76.4066C201.073 76.3283 201.216 76.217 201.331 76.0727C201.448 75.9284 201.53 75.7547 201.577 75.5516H202.645C202.606 75.9161 202.487 76.2415 202.289 76.5277C202.091 76.8139 201.825 77.039 201.492 77.2029C201.162 77.3668 200.774 77.4487 200.329 77.4487ZM203.818 77.335V71.6987H204.915V77.335H203.818ZM204.372 70.8291C204.181 70.8291 204.017 70.7655 203.88 70.6383C203.746 70.5086 203.679 70.3545 203.679 70.1759C203.679 69.9949 203.746 69.8408 203.88 69.7136C204.017 69.5839 204.181 69.5191 204.372 69.5191C204.563 69.5191 204.726 69.5839 204.86 69.7136C204.997 69.8408 205.066 69.9949 205.066 70.1759C205.066 70.3545 204.997 70.5086 204.86 70.6383C204.726 70.7655 204.563 70.8291 204.372 70.8291ZM207.488 69.82V77.335H206.391V69.82H207.488ZM210.061 69.82V77.335H208.964V69.82H210.061ZM213.967 77.4487C213.411 77.4487 212.933 77.3301 212.532 77.0928C212.133 76.853 211.825 76.5167 211.607 76.0837C211.392 75.6483 211.284 75.1382 211.284 74.5535C211.284 73.9762 211.392 73.4674 211.607 73.0271C211.825 72.5867 212.128 72.243 212.517 71.996C212.909 71.7489 213.366 71.6254 213.89 71.6254C214.208 71.6254 214.516 71.678 214.814 71.7831C215.113 71.8883 215.381 72.0535 215.618 72.2785C215.855 72.5036 216.042 72.7959 216.179 73.1555C216.316 73.5127 216.385 73.9469 216.385 74.4581V74.8471H211.904V74.0252H215.31C215.31 73.7365 215.251 73.4809 215.134 73.2582C215.016 73.0332 214.851 72.8558 214.638 72.7262C214.428 72.5965 214.181 72.5317 213.897 72.5317C213.589 72.5317 213.32 72.6075 213.09 72.7592C212.862 72.9084 212.686 73.1041 212.561 73.3463C212.439 73.586 212.378 73.8466 212.378 74.1279V74.77C212.378 75.1468 212.444 75.4672 212.576 75.7314C212.71 75.9956 212.898 76.1974 213.137 76.3369C213.377 76.4739 213.657 76.5424 213.978 76.5424C214.186 76.5424 214.375 76.513 214.546 76.4543C214.718 76.3931 214.866 76.3026 214.99 76.1828C215.115 76.0629 215.211 75.9149 215.277 75.7388L216.315 75.9259C216.232 76.2317 216.083 76.4996 215.867 76.7295C215.655 76.957 215.387 77.1344 215.064 77.2616C214.743 77.3863 214.378 77.4487 213.967 77.4487ZM220.656 73.5775C220.656 72.6577 220.777 71.8113 221.019 71.0382C221.261 70.2652 221.615 69.5521 222.08 68.899H223.085C222.904 69.1412 222.735 69.4384 222.579 69.7906C222.422 70.1429 222.285 70.5294 222.168 70.9502C222.05 71.3685 221.959 71.8027 221.893 72.2528C221.827 72.7005 221.794 73.142 221.794 73.5775C221.794 74.1597 221.851 74.7492 221.966 75.3461C222.081 75.943 222.236 76.4971 222.432 77.0084C222.628 77.5197 222.845 77.9367 223.085 78.2597H222.08C221.615 77.6065 221.261 76.8934 221.019 76.1204C220.777 75.3474 220.656 74.4997 220.656 73.5775ZM224.33 77.335V69.82H227.009C227.593 69.82 228.078 69.9264 228.462 70.1392C228.846 70.3521 229.133 70.6432 229.324 71.0126C229.515 71.3795 229.61 71.7929 229.61 72.2528C229.61 72.7152 229.514 73.131 229.32 73.5004C229.13 73.8674 228.841 74.1585 228.454 74.3737C228.07 74.5866 227.587 74.693 227.005 74.693H225.163V73.7316H226.902C227.272 73.7316 227.571 73.668 227.801 73.5408C228.031 73.4111 228.2 73.235 228.308 73.0124C228.415 72.7898 228.469 72.5366 228.469 72.2528C228.469 71.9691 228.415 71.7171 228.308 71.4969C228.2 71.2768 228.03 71.1043 227.798 70.9795C227.568 70.8548 227.264 70.7924 226.888 70.7924H225.464V77.335H224.33ZM230.851 77.335V71.6987H231.912V72.5941H231.971C232.073 72.2907 232.254 72.0522 232.514 71.8785C232.775 71.7024 233.071 71.6143 233.402 71.6143C233.47 71.6143 233.551 71.6168 233.644 71.6217C233.739 71.6266 233.814 71.6327 233.868 71.64V72.6895C233.824 72.6773 233.745 72.6638 233.633 72.6491C233.52 72.632 233.408 72.6234 233.295 72.6234C233.036 72.6234 232.805 72.6785 232.602 72.7886C232.401 72.8962 232.242 73.0466 232.125 73.2399C232.007 73.4307 231.949 73.6484 231.949 73.8931V77.335H230.851ZM236.989 77.4487C236.461 77.4487 236 77.3276 235.606 77.0854C235.212 76.8433 234.906 76.5045 234.689 76.069C234.471 75.6336 234.362 75.1248 234.362 74.5425C234.362 73.9579 234.471 73.4466 234.689 73.0087C234.906 72.5708 235.212 72.2308 235.606 71.9886C236 71.7464 236.461 71.6254 236.989 71.6254C237.518 71.6254 237.979 71.7464 238.373 71.9886C238.767 72.2308 239.072 72.5708 239.29 73.0087C239.508 73.4466 239.617 73.9579 239.617 74.5425C239.617 75.1248 239.508 75.6336 239.29 76.069C239.072 76.5045 238.767 76.8433 238.373 77.0854C237.979 77.3276 237.518 77.4487 236.989 77.4487ZM236.993 76.5277C237.336 76.5277 237.619 76.4372 237.844 76.2562C238.069 76.0751 238.236 75.8342 238.343 75.5333C238.454 75.2324 238.509 74.9009 238.509 74.5389C238.509 74.1793 238.454 73.849 238.343 73.5481C238.236 73.2448 238.069 73.0014 237.844 72.8179C237.619 72.6344 237.336 72.5427 236.993 72.5427C236.648 72.5427 236.362 72.6344 236.134 72.8179C235.909 73.0014 235.742 73.2448 235.632 73.5481C235.524 73.849 235.47 74.1793 235.47 74.5389C235.47 74.9009 235.524 75.2324 235.632 75.5333C235.742 75.8342 235.909 76.0751 236.134 76.2562C236.362 76.4372 236.648 76.5277 236.993 76.5277ZM242.951 77.445C242.496 77.445 242.09 77.3288 241.733 77.0964C241.378 76.8616 241.1 76.5277 240.896 76.0947C240.696 75.6593 240.596 75.137 240.596 74.5279C240.596 73.9187 240.697 73.3977 240.9 72.9647C241.106 72.5317 241.387 72.2002 241.744 71.9703C242.101 71.7403 242.506 71.6254 242.959 71.6254C243.308 71.6254 243.59 71.6841 243.803 71.8015C244.018 71.9165 244.184 72.051 244.302 72.2051C244.422 72.3592 244.515 72.495 244.581 72.6124H244.647V69.82H245.744V77.335H244.672V76.458H244.581C244.515 76.5778 244.419 76.7148 244.294 76.8689C244.172 77.0231 244.003 77.1576 243.788 77.2726C243.573 77.3876 243.294 77.445 242.951 77.445ZM243.194 76.5093C243.509 76.5093 243.776 76.4262 243.993 76.2598C244.214 76.091 244.38 75.8574 244.492 75.559C244.607 75.2605 244.665 74.9131 244.665 74.5169C244.665 74.1254 244.609 73.783 244.496 73.4894C244.384 73.1959 244.219 72.9671 244.001 72.8032C243.783 72.6393 243.514 72.5574 243.194 72.5574C242.863 72.5574 242.588 72.643 242.368 72.8142C242.148 72.9855 241.981 73.2191 241.869 73.5151C241.759 73.8111 241.704 74.145 241.704 74.5169C241.704 74.8936 241.76 75.2324 241.873 75.5333C241.985 75.8342 242.151 76.0727 242.372 76.2488C242.594 76.4225 242.868 76.5093 243.194 76.5093ZM250.88 74.9975V71.6987H251.981V77.335H250.902V76.3589H250.843C250.714 76.6598 250.506 76.9105 250.22 77.1111C249.936 77.3093 249.582 77.4083 249.159 77.4083C248.797 77.4083 248.477 77.3288 248.198 77.1698C247.921 77.0084 247.704 76.7699 247.545 76.4543C247.388 76.1387 247.31 75.7486 247.31 75.2838V71.6987H248.407V75.1517C248.407 75.5357 248.513 75.8415 248.726 76.069C248.939 76.2965 249.215 76.4103 249.555 76.4103C249.761 76.4103 249.965 76.3589 250.168 76.2562C250.374 76.1534 250.544 75.9981 250.678 75.7901C250.815 75.5822 250.882 75.318 250.88 74.9975ZM255.829 77.4487C255.284 77.4487 254.814 77.3252 254.42 77.0781C254.029 76.8286 253.728 76.4849 253.517 76.047C253.307 75.6091 253.202 75.1076 253.202 74.5425C253.202 73.9701 253.309 73.465 253.525 73.0271C253.74 72.5867 254.043 72.243 254.435 71.996C254.826 71.7489 255.287 71.6254 255.818 71.6254C256.246 71.6254 256.628 71.7049 256.963 71.8639C257.298 72.0204 257.568 72.2406 257.774 72.5244C257.982 72.8081 258.105 73.1396 258.145 73.5188H257.077C257.018 73.2546 256.883 73.0271 256.673 72.8363C256.465 72.6455 256.186 72.55 255.836 72.55C255.531 72.55 255.263 72.6308 255.033 72.7922C254.805 72.9512 254.628 73.1787 254.501 73.4747C254.374 73.7683 254.31 74.1157 254.31 74.5169C254.31 74.9278 254.372 75.2825 254.497 75.581C254.622 75.8794 254.798 76.1106 255.026 76.2745C255.255 76.4384 255.526 76.5204 255.836 76.5204C256.044 76.5204 256.233 76.4824 256.402 76.4066C256.573 76.3283 256.716 76.217 256.831 76.0727C256.948 75.9284 257.03 75.7547 257.077 75.5516H258.145C258.105 75.9161 257.987 76.2415 257.789 76.5277C257.59 76.8139 257.325 77.039 256.992 77.2029C256.662 77.3668 256.274 77.4487 255.829 77.4487ZM261.949 71.6987V72.5794H258.87V71.6987H261.949ZM259.696 70.3484H260.793V75.6801C260.793 75.8929 260.825 76.0531 260.888 76.1607C260.952 76.2659 261.034 76.3381 261.134 76.3772C261.237 76.4139 261.348 76.4323 261.468 76.4323C261.556 76.4323 261.633 76.4262 261.699 76.4139C261.765 76.4017 261.817 76.3919 261.853 76.3846L262.052 77.2909C261.988 77.3154 261.897 77.3399 261.78 77.3643C261.663 77.3912 261.516 77.4059 261.34 77.4083C261.051 77.4132 260.782 77.3619 260.532 77.2542C260.283 77.1466 260.081 76.9803 259.927 76.7552C259.773 76.5301 259.696 76.2476 259.696 75.9076V70.3484ZM268.418 77.335H265.985V69.82H268.495C269.231 69.82 269.864 69.9705 270.392 70.2713C270.921 70.5698 271.325 70.9991 271.607 71.5593C271.89 72.1171 272.032 72.7861 272.032 73.5665C272.032 74.3493 271.889 75.022 271.603 75.5847C271.319 76.1473 270.908 76.5803 270.37 76.8836C269.832 77.1845 269.181 77.335 268.418 77.335ZM267.119 76.3442H268.356C268.928 76.3442 269.404 76.2366 269.783 76.0213C270.162 75.8036 270.446 75.4892 270.634 75.0783C270.823 74.6649 270.917 74.1609 270.917 73.5665C270.917 72.9769 270.823 72.4767 270.634 72.0657C270.448 71.6547 270.171 71.3428 269.801 71.13C269.432 70.9172 268.973 70.8107 268.425 70.8107H267.119V76.3442ZM275.783 77.4487C275.228 77.4487 274.75 77.3301 274.349 77.0928C273.95 76.853 273.642 76.5167 273.424 76.0837C273.209 75.6483 273.101 75.1382 273.101 74.5535C273.101 73.9762 273.209 73.4674 273.424 73.0271C273.642 72.5867 273.945 72.243 274.334 71.996C274.725 71.7489 275.183 71.6254 275.706 71.6254C276.024 71.6254 276.333 71.678 276.631 71.7831C276.929 71.8883 277.197 72.0535 277.435 72.2785C277.672 72.5036 277.859 72.7959 277.996 73.1555C278.133 73.5127 278.202 73.9469 278.202 74.4581V74.8471H273.721V74.0252H277.126C277.126 73.7365 277.068 73.4809 276.95 73.2582C276.833 73.0332 276.668 72.8558 276.455 72.7262C276.245 72.5965 275.997 72.5317 275.714 72.5317C275.405 72.5317 275.136 72.6075 274.906 72.7592C274.679 72.9084 274.503 73.1041 274.378 73.3463C274.256 73.586 274.195 73.8466 274.195 74.1279V74.77C274.195 75.1468 274.261 75.4672 274.393 75.7314C274.527 75.9956 274.714 76.1974 274.954 76.3369C275.194 76.4739 275.474 76.5424 275.794 76.5424C276.002 76.5424 276.192 76.513 276.363 76.4543C276.534 76.3931 276.682 76.3026 276.807 76.1828C276.932 76.0629 277.027 75.9149 277.093 75.7388L278.132 75.9259C278.049 76.2317 277.899 76.4996 277.684 76.7295C277.471 76.957 277.203 77.1344 276.881 77.2616C276.56 77.3863 276.194 77.4487 275.783 77.4487ZM283.642 73.0748L282.648 73.2509C282.606 73.1237 282.54 73.0026 282.45 72.8876C282.362 72.7727 282.242 72.6785 282.09 72.6051C281.939 72.5317 281.749 72.495 281.521 72.495C281.211 72.495 280.951 72.5647 280.744 72.7042C280.536 72.8412 280.432 73.0185 280.432 73.2362C280.432 73.4246 280.501 73.5763 280.641 73.6912C280.78 73.8062 281.005 73.9004 281.316 73.9738L282.211 74.1793C282.73 74.2991 283.116 74.4838 283.371 74.7333C283.625 74.9829 283.752 75.307 283.752 75.7057C283.752 76.0433 283.655 76.3442 283.459 76.6084C283.266 76.8702 282.995 77.0757 282.648 77.2249C282.303 77.3741 281.903 77.4487 281.448 77.4487C280.817 77.4487 280.302 77.3142 279.903 77.0451C279.504 76.7735 279.26 76.3883 279.169 75.8892L280.23 75.7278C280.296 76.0042 280.432 76.2133 280.637 76.3552C280.843 76.4947 281.11 76.5644 281.441 76.5644C281.8 76.5644 282.088 76.4898 282.303 76.3406C282.518 76.1889 282.626 76.0042 282.626 75.7865C282.626 75.6103 282.56 75.4623 282.428 75.3425C282.298 75.2226 282.099 75.1321 281.83 75.0709L280.876 74.8618C280.35 74.7419 279.961 74.5511 279.709 74.2893C279.459 74.0276 279.334 73.6961 279.334 73.2949C279.334 72.9622 279.427 72.6711 279.613 72.4216C279.799 72.1721 280.056 71.9776 280.384 71.8382C280.712 71.6963 281.087 71.6254 281.51 71.6254C282.12 71.6254 282.599 71.7575 282.949 72.0217C283.299 72.2834 283.53 72.6344 283.642 73.0748ZM284.959 77.335V71.6987H286.056V77.335H284.959ZM285.513 70.8291C285.322 70.8291 285.158 70.7655 285.021 70.6383C284.887 70.5086 284.819 70.3545 284.819 70.1759C284.819 69.9949 284.887 69.8408 285.021 69.7136C285.158 69.5839 285.322 69.5191 285.513 69.5191C285.704 69.5191 285.866 69.5839 286.001 69.7136C286.138 69.8408 286.206 69.9949 286.206 70.1759C286.206 70.3545 286.138 70.5086 286.001 70.6383C285.866 70.7655 285.704 70.8291 285.513 70.8291ZM289.895 79.566C289.447 79.566 289.062 79.5073 288.739 79.3898C288.419 79.2724 288.157 79.1171 287.954 78.9238C287.751 78.7306 287.599 78.519 287.499 78.289L288.442 77.9001C288.508 78.0077 288.596 78.1214 288.706 78.2413C288.819 78.3636 288.97 78.4676 289.161 78.5532C289.354 78.6388 289.603 78.6816 289.906 78.6816C290.322 78.6816 290.666 78.5801 290.937 78.3771C291.209 78.1765 291.344 77.856 291.344 77.4157V76.3075H291.275C291.209 76.4274 291.113 76.5607 290.989 76.7075C290.866 76.8543 290.697 76.9815 290.482 77.0891C290.267 77.1967 289.987 77.2506 289.642 77.2506C289.197 77.2506 288.795 77.1466 288.438 76.9387C288.084 76.7283 287.802 76.4188 287.594 76.0103C287.389 75.5993 287.286 75.0942 287.286 74.4948C287.286 73.8955 287.388 73.3818 287.591 72.9537C287.796 72.5256 288.077 72.1978 288.435 71.9703C288.792 71.7403 289.197 71.6254 289.649 71.6254C289.999 71.6254 290.282 71.6841 290.497 71.8015C290.712 71.9165 290.88 72.051 291 72.2051C291.122 72.3592 291.216 72.495 291.282 72.6124H291.363V71.6987H292.438V77.4597C292.438 77.9441 292.325 78.3416 292.1 78.6523C291.875 78.963 291.571 79.1929 291.187 79.3421C290.805 79.4914 290.375 79.566 289.895 79.566ZM289.884 76.3406C290.2 76.3406 290.466 76.2672 290.684 76.1204C290.904 75.9712 291.07 75.7583 291.183 75.4819C291.298 75.203 291.355 74.8691 291.355 74.4802C291.355 74.101 291.299 73.7671 291.187 73.4784C291.074 73.1897 290.909 72.9647 290.691 72.8032C290.474 72.6393 290.204 72.5574 289.884 72.5574C289.554 72.5574 289.279 72.643 289.058 72.8142C288.838 72.983 288.672 73.213 288.559 73.5041C288.449 73.7952 288.394 74.1206 288.394 74.4802C288.394 74.8495 288.451 75.1737 288.563 75.4526C288.676 75.7314 288.842 75.9491 289.062 76.1057C289.285 76.2623 289.559 76.3406 289.884 76.3406ZM295.007 73.9885V77.335H293.909V71.6987H294.963V72.6161H295.032C295.162 72.3177 295.365 72.0779 295.641 71.8969C295.92 71.7159 296.271 71.6254 296.694 71.6254C297.079 71.6254 297.415 71.7061 297.704 71.8675C297.992 72.0265 298.216 72.2638 298.375 72.5794C298.534 72.895 298.614 73.2852 298.614 73.7499V77.335H297.516V73.882C297.516 73.4735 297.41 73.1543 297.197 72.9243C296.984 72.6919 296.692 72.5757 296.32 72.5757C296.066 72.5757 295.839 72.6308 295.641 72.7409C295.446 72.8509 295.29 73.0124 295.175 73.2252C295.063 73.4356 295.007 73.69 295.007 73.9885ZM302.514 77.4487C301.959 77.4487 301.481 77.3301 301.079 77.0928C300.681 76.853 300.372 76.5167 300.155 76.0837C299.939 75.6483 299.832 75.1382 299.832 74.5535C299.832 73.9762 299.939 73.4674 300.155 73.0271C300.372 72.5867 300.676 72.243 301.065 71.996C301.456 71.7489 301.914 71.6254 302.437 71.6254C302.755 71.6254 303.063 71.678 303.362 71.7831C303.66 71.8883 303.928 72.0535 304.165 72.2785C304.403 72.5036 304.59 72.7959 304.727 73.1555C304.864 73.5127 304.932 73.9469 304.932 74.4581V74.8471H300.452V74.0252H303.857C303.857 73.7365 303.798 73.4809 303.681 73.2582C303.564 73.0332 303.398 72.8558 303.186 72.7262C302.975 72.5965 302.728 72.5317 302.444 72.5317C302.136 72.5317 301.867 72.6075 301.637 72.7592C301.41 72.9084 301.234 73.1041 301.109 73.3463C300.986 73.586 300.925 73.8466 300.925 74.1279V74.77C300.925 75.1468 300.991 75.4672 301.123 75.7314C301.258 75.9956 301.445 76.1974 301.685 76.3369C301.925 76.4739 302.205 76.5424 302.525 76.5424C302.733 76.5424 302.923 76.513 303.094 76.4543C303.265 76.3931 303.413 76.3026 303.538 76.1828C303.663 76.0629 303.758 75.9149 303.824 75.7388L304.863 75.9259C304.779 76.2317 304.63 76.4996 304.415 76.7295C304.202 76.957 303.934 77.1344 303.611 77.2616C303.291 77.3863 302.925 77.4487 302.514 77.4487ZM306.15 77.335V71.6987H307.21V72.5941H307.269C307.372 72.2907 307.553 72.0522 307.812 71.8785C308.074 71.7024 308.37 71.6143 308.7 71.6143C308.768 71.6143 308.849 71.6168 308.942 71.6217C309.037 71.6266 309.112 71.6327 309.166 71.64V72.6895C309.122 72.6773 309.044 72.6638 308.931 72.6491C308.819 72.632 308.706 72.6234 308.593 72.6234C308.334 72.6234 308.103 72.6785 307.9 72.7886C307.699 72.8962 307.54 73.0466 307.423 73.2399C307.305 73.4307 307.247 73.6484 307.247 73.8931V77.335H306.15ZM312.225 74.216C312.225 75.1382 312.104 75.9858 311.862 76.7589C311.62 77.5319 311.266 78.245 310.802 78.8981H309.796C309.977 78.6559 310.146 78.3587 310.302 78.0065C310.459 77.6542 310.596 77.2689 310.713 76.8506C310.831 76.4298 310.923 75.9944 310.989 75.5443C311.055 75.0942 311.088 74.6514 311.088 74.216C311.088 73.6362 311.03 73.0479 310.915 72.451C310.8 71.8541 310.645 71.3 310.449 70.7887C310.254 70.2775 310.036 69.8604 309.796 69.5375H310.802C311.266 70.1906 311.62 70.9037 311.862 71.6767C312.104 72.4497 312.225 73.2962 312.225 74.216Z" fill="white"/>
</g>
<defs>
<filter id="filter0_b_985_56251" x="26.5487" y="59.0146" width="110.938" height="47.7033" filterUnits="userSpaceOnUse" color-interpolation-filters="sRGB">
<feFlood flood-opacity="0" result="BackgroundImageFix"/>
<feGaussianBlur in="BackgroundImageFix" stdDeviation="4.99224"/>
<feComposite in2="SourceAlpha" operator="in" result="effect1_backgroundBlur_985_56251"/>
<feBlend mode="normal" in="SourceGraphic" in2="effect1_backgroundBlur_985_56251" result="shape"/>
</filter>
<filter id="filter1_b_985_56251" x="-42.2325" y="92.2968" width="179.721" height="82.0949" filterUnits="userSpaceOnUse" color-interpolation-filters="sRGB">
<feFlood flood-opacity="0" result="BackgroundImageFix"/>
<feGaussianBlur in="BackgroundImageFix" stdDeviation="4.99224"/>
<feComposite in2="SourceAlpha" operator="in" result="effect1_backgroundBlur_985_56251"/>
<feBlend mode="normal" in="SourceGraphic" in2="effect1_backgroundBlur_985_56251" result="shape"/>
</filter>
<filter id="filter2_b_985_56251" x="-42.0177" y="160.089" width="179.926" height="55.0158" filterUnits="userSpaceOnUse" color-interpolation-filters="sRGB">
<feFlood flood-opacity="0" result="BackgroundImageFix"/>
<feGaussianBlur in="BackgroundImageFix" stdDeviation="4.99224"/>
<feComposite in2="SourceAlpha" operator="in" result="effect1_backgroundBlur_985_56251"/>
<feBlend mode="normal" in="SourceGraphic" in2="effect1_backgroundBlur_985_56251" result="shape"/>
</filter>
<filter id="filter3_b_985_56251" x="-69.9669" y="59.0146" width="110.938" height="47.7033" filterUnits="userSpaceOnUse" color-interpolation-filters="sRGB">
<feFlood flood-opacity="0" result="BackgroundImageFix"/>
<feGaussianBlur in="BackgroundImageFix" stdDeviation="4.99224"/>
<feComposite in2="SourceAlpha" operator="in" result="effect1_backgroundBlur_985_56251"/>
<feBlend mode="normal" in="SourceGraphic" in2="effect1_backgroundBlur_985_56251" result="shape"/>
</filter>
<filter id="filter4_b_985_56251" x="-130.983" y="41.2646" width="268.471" height="29.9533" filterUnits="userSpaceOnUse" color-interpolation-filters="sRGB">
<feFlood flood-opacity="0" result="BackgroundImageFix"/>
<feGaussianBlur in="BackgroundImageFix" stdDeviation="4.99224"/>
<feComposite in2="SourceAlpha" operator="in" result="effect1_backgroundBlur_985_56251"/>
<feBlend mode="normal" in="SourceGraphic" in2="effect1_backgroundBlur_985_56251" result="shape"/>
</filter>
<filter id="filter5_b_985_56251" x="193.525" y="184.375" width="385.496" height="193.033" filterUnits="userSpaceOnUse" color-interpolation-filters="sRGB">
<feFlood flood-opacity="0" result="BackgroundImageFix"/>
<feGaussianBlur in="BackgroundImageFix" stdDeviation="4.99224"/>
<feComposite in2="SourceAlpha" operator="in" result="effect1_backgroundBlur_985_56251"/>
<feBlend mode="normal" in="SourceGraphic" in2="effect1_backgroundBlur_985_56251" result="shape"/>
</filter>
<filter id="filter6_b_985_56251" x="310.553" y="301.971" width="110.938" height="47.7033" filterUnits="userSpaceOnUse" color-interpolation-filters="sRGB">
<feFlood flood-opacity="0" result="BackgroundImageFix"/>
<feGaussianBlur in="BackgroundImageFix" stdDeviation="4.99224"/>
<feComposite in2="SourceAlpha" operator="in" result="effect1_backgroundBlur_985_56251"/>
<feBlend mode="normal" in="SourceGraphic" in2="effect1_backgroundBlur_985_56251" result="shape"/>
</filter>
<filter id="filter7_b_985_56251" x="310.551" y="234.297" width="179.721" height="82.0949" filterUnits="userSpaceOnUse" color-interpolation-filters="sRGB">
<feFlood flood-opacity="0" result="BackgroundImageFix"/>
<feGaussianBlur in="BackgroundImageFix" stdDeviation="4.99224"/>
<feComposite in2="SourceAlpha" operator="in" result="effect1_backgroundBlur_985_56251"/>
<feBlend mode="normal" in="SourceGraphic" in2="effect1_backgroundBlur_985_56251" result="shape"/>
</filter>
<filter id="filter8_b_985_56251" x="310.551" y="194.359" width="179.721" height="54.3596" filterUnits="userSpaceOnUse" color-interpolation-filters="sRGB">
<feFlood flood-opacity="0" result="BackgroundImageFix"/>
<feGaussianBlur in="BackgroundImageFix" stdDeviation="4.99224"/>
<feComposite in2="SourceAlpha" operator="in" result="effect1_backgroundBlur_985_56251"/>
<feBlend mode="normal" in="SourceGraphic" in2="effect1_backgroundBlur_985_56251" result="shape"/>
</filter>
<filter id="filter9_b_985_56251" x="310.551" y="337.471" width="268.471" height="29.9533" filterUnits="userSpaceOnUse" color-interpolation-filters="sRGB">
<feFlood flood-opacity="0" result="BackgroundImageFix"/>
<feGaussianBlur in="BackgroundImageFix" stdDeviation="4.99224"/>
<feComposite in2="SourceAlpha" operator="in" result="effect1_backgroundBlur_985_56251"/>
<feBlend mode="normal" in="SourceGraphic" in2="effect1_backgroundBlur_985_56251" result="shape"/>
</filter>
<filter id="filter10_b_985_56251" x="258.41" y="194.358" width="65.4533" height="173.065" filterUnits="userSpaceOnUse" color-interpolation-filters="sRGB">
<feFlood flood-opacity="0" result="BackgroundImageFix"/>
<feGaussianBlur in="BackgroundImageFix" stdDeviation="4.99224"/>
<feComposite in2="SourceAlpha" operator="in" result="effect1_backgroundBlur_985_56251"/>
<feBlend mode="normal" in="SourceGraphic" in2="effect1_backgroundBlur_985_56251" result="shape"/>
</filter>
<filter id="filter11_b_985_56251" x="131.939" y="109.598" width="137.01" height="183.393" filterUnits="userSpaceOnUse" color-interpolation-filters="sRGB">
<feFlood flood-opacity="0" result="BackgroundImageFix"/>
<feGaussianBlur in="BackgroundImageFix" stdDeviation="4.99224"/>
<feComposite in2="SourceAlpha" operator="in" result="effect1_backgroundBlur_985_56251"/>
<feBlend mode="normal" in="SourceGraphic" in2="effect1_backgroundBlur_985_56251" result="shape"/>
</filter>
<filter id="filter12_b_985_56251" x="242.879" y="265.36" width="34.3908" height="34.3908" filterUnits="userSpaceOnUse" color-interpolation-filters="sRGB">
<feFlood flood-opacity="0" result="BackgroundImageFix"/>
<feGaussianBlur in="BackgroundImageFix" stdDeviation="4.99224"/>
<feComposite in2="SourceAlpha" operator="in" result="effect1_backgroundBlur_985_56251"/>
<feBlend mode="normal" in="SourceGraphic" in2="effect1_backgroundBlur_985_56251" result="shape"/>
</filter>
<clipPath id="clip0_985_56251">
<rect width="402" height="350" fill="white"/>
</clipPath>
</defs>
</svg>
