<svg width="402" height="350" viewBox="0 0 402 350" fill="none" xmlns="http://www.w3.org/2000/svg">
<g clip-path="url(#clip0_985_56288)">
<g filter="url(#filter0_d_985_56288)">
<g clip-path="url(#clip1_985_56288)">
<rect width="380.499" height="250.455" rx="14.4493" transform="matrix(1 0 0 -1 65 366.857)" fill="#BADCFF" fill-opacity="0.18" shape-rendering="crispEdges"/>
<g filter="url(#filter1_b_985_56288)">
<rect x="80" y="135.402" width="351" height="121.434" rx="5.76963" fill="#BADCFF" fill-opacity="0.18"/>
<path d="M108.547 165.485C108.547 165.623 108.478 165.692 108.339 165.692H106.743C106.673 165.692 106.639 165.72 106.639 165.775L106.224 168.637C106.224 168.692 106.245 168.72 106.286 168.72H107.593C107.731 168.72 107.8 168.789 107.8 168.927V170.234C107.8 170.372 107.731 170.441 107.593 170.441H106.017C105.948 170.441 105.913 170.469 105.913 170.524L105.395 173.801C105.381 173.925 105.312 173.988 105.187 173.988L103.611 173.967C103.556 173.967 103.507 173.946 103.466 173.905C103.424 173.863 103.411 173.808 103.424 173.739L103.922 170.524C103.922 170.469 103.901 170.441 103.86 170.441H100.977C100.908 170.441 100.874 170.469 100.874 170.524L100.355 173.801C100.341 173.925 100.272 173.988 100.148 173.988L98.5716 173.967C98.5163 173.967 98.4679 173.946 98.4264 173.905C98.3849 173.863 98.3711 173.808 98.3849 173.739L98.8827 170.524C98.8827 170.469 98.8619 170.441 98.8204 170.441H97.5139C97.3757 170.441 97.3065 170.372 97.3065 170.234L97.3273 168.927C97.3273 168.789 97.3964 168.72 97.5347 168.72H99.0693C99.1384 168.72 99.173 168.692 99.173 168.637L99.6085 165.775C99.6085 165.72 99.5878 165.692 99.5463 165.692H98.2812C98.143 165.692 98.0739 165.623 98.0739 165.485V164.158C98.0739 164.019 98.143 163.95 98.2812 163.95H99.8159C99.885 163.95 99.9196 163.922 99.9196 163.867L100.438 160.59C100.452 160.466 100.521 160.404 100.645 160.404L102.222 160.425C102.277 160.425 102.325 160.445 102.367 160.487C102.408 160.528 102.422 160.584 102.408 160.653L101.91 163.867C101.91 163.922 101.931 163.95 101.973 163.95H104.855C104.924 163.95 104.959 163.922 104.959 163.867L105.478 160.59C105.491 160.466 105.56 160.404 105.685 160.404L107.261 160.425C107.316 160.425 107.365 160.445 107.406 160.487C107.448 160.528 107.461 160.584 107.448 160.653L106.95 163.867C106.95 163.922 106.971 163.95 107.012 163.95H108.36C108.498 163.95 108.568 164.019 108.568 164.158L108.547 165.485ZM104.109 168.72C104.178 168.72 104.212 168.692 104.212 168.637L104.648 165.775C104.648 165.72 104.627 165.692 104.586 165.692H101.703C101.634 165.692 101.599 165.72 101.599 165.775L101.185 168.637C101.185 168.692 101.205 168.72 101.247 168.72H104.109ZM119.143 167.517C119.42 168.195 119.558 168.976 119.558 169.861C119.558 170.593 119.447 171.271 119.226 171.893C118.922 172.75 118.417 173.414 117.712 173.884C117.007 174.34 116.157 174.568 115.161 174.568C114.166 174.568 113.302 174.312 112.569 173.801C111.85 173.289 111.345 172.598 111.055 171.727C110.903 171.34 110.813 170.787 110.785 170.068C110.785 169.93 110.855 169.861 110.993 169.861H112.59C112.728 169.861 112.797 169.93 112.797 170.068C112.825 170.566 112.88 170.932 112.963 171.167C113.101 171.679 113.357 172.087 113.73 172.391C114.117 172.695 114.594 172.847 115.161 172.847C116.212 172.847 116.917 172.37 117.277 171.416C117.456 171.001 117.546 170.462 117.546 169.798C117.546 169.093 117.436 168.464 117.214 167.911C116.827 167.054 116.136 166.625 115.141 166.625C114.905 166.625 114.608 166.729 114.249 166.936C114.193 166.964 114.152 166.978 114.124 166.978C114.055 166.978 114 166.943 113.958 166.874L113.17 165.796C113.143 165.741 113.129 165.692 113.129 165.651C113.129 165.609 113.15 165.561 113.191 165.506L116.737 161.71C116.779 161.641 116.765 161.607 116.696 161.607H111.179C111.041 161.607 110.972 161.538 110.972 161.399V160.093C110.972 159.955 111.041 159.885 111.179 159.885H119.226C119.364 159.885 119.433 159.955 119.433 160.093V161.586C119.433 161.655 119.399 161.738 119.33 161.835L116.177 165.277C116.15 165.305 116.143 165.333 116.157 165.36C116.171 165.374 116.198 165.388 116.24 165.402C116.945 165.471 117.539 165.692 118.023 166.065C118.507 166.425 118.88 166.909 119.143 167.517ZM124.153 159.948C124.236 159.906 124.325 159.885 124.422 159.885H126.06C126.199 159.885 126.268 159.955 126.268 160.093V174.195C126.268 174.333 126.199 174.402 126.06 174.402H124.484C124.346 174.402 124.277 174.333 124.277 174.195V162.021C124.277 161.994 124.263 161.973 124.236 161.959C124.222 161.945 124.201 161.945 124.173 161.959L121.996 162.706C121.968 162.72 121.934 162.727 121.892 162.727C121.809 162.727 121.761 162.671 121.747 162.561L121.664 161.379C121.664 161.24 121.705 161.157 121.788 161.13L124.153 159.948ZM133.003 168.927C132.865 168.927 132.795 168.858 132.795 168.72V167.413C132.795 167.275 132.865 167.206 133.003 167.206H139.411C139.549 167.206 139.618 167.275 139.618 167.413V168.72C139.618 168.858 139.549 168.927 139.411 168.927H133.003ZM150.954 174.589C149.945 174.589 149.053 174.382 148.279 173.967C147.504 173.552 146.903 172.971 146.474 172.225C146.046 171.464 145.831 170.593 145.831 169.612V164.676C145.831 163.694 146.046 162.83 146.474 162.084C146.903 161.337 147.504 160.756 148.279 160.342C149.053 159.927 149.945 159.719 150.954 159.719C151.977 159.719 152.876 159.927 153.65 160.342C154.424 160.756 155.026 161.337 155.454 162.084C155.883 162.83 156.097 163.694 156.097 164.676V169.612C156.097 170.593 155.883 171.464 155.454 172.225C155.026 172.971 154.424 173.552 153.65 173.967C152.876 174.382 151.977 174.589 150.954 174.589ZM150.954 172.868C151.894 172.868 152.654 172.577 153.235 171.997C153.816 171.416 154.106 170.649 154.106 169.695V164.655C154.106 163.687 153.816 162.913 153.235 162.333C152.654 161.738 151.894 161.441 150.954 161.441C150.014 161.441 149.253 161.738 148.673 162.333C148.106 162.913 147.822 163.687 147.822 164.655V169.695C147.822 170.649 148.106 171.416 148.673 171.997C149.253 172.577 150.014 172.868 150.954 172.868ZM167.442 166.501C167.705 167.248 167.836 168.132 167.836 169.155C167.836 170.123 167.726 170.96 167.505 171.665C167.214 172.591 166.737 173.31 166.074 173.822C165.41 174.319 164.56 174.568 163.523 174.568C163.053 174.568 162.603 174.478 162.175 174.299C161.76 174.105 161.401 173.835 161.096 173.49C161.069 173.462 161.041 173.455 161.014 173.469C161 173.483 160.993 173.504 160.993 173.531V178.156C160.993 178.294 160.924 178.363 160.785 178.363H159.209C159.071 178.363 159.002 178.294 159.002 178.156V164.054C159.002 163.916 159.071 163.846 159.209 163.846H160.785C160.924 163.846 160.993 163.916 160.993 164.054V164.738C160.993 164.766 161 164.787 161.014 164.8C161.041 164.814 161.069 164.807 161.096 164.78C161.401 164.434 161.76 164.164 162.175 163.971C162.59 163.777 163.039 163.681 163.523 163.681C164.518 163.681 165.341 163.929 165.991 164.427C166.654 164.911 167.138 165.602 167.442 166.501ZM165.161 171.852C165.604 171.188 165.825 170.275 165.825 169.114C165.825 168.049 165.652 167.192 165.306 166.542C164.905 165.782 164.249 165.402 163.336 165.402C162.534 165.402 161.926 165.775 161.511 166.522C161.179 167.116 161.014 167.987 161.014 169.135C161.014 170.296 161.193 171.181 161.553 171.789C161.954 172.494 162.541 172.847 163.315 172.847C164.145 172.847 164.76 172.515 165.161 171.852ZM178.864 167.807C178.92 168.374 178.94 169.01 178.927 169.715C178.927 169.854 178.857 169.923 178.719 169.923H172.104C172.048 169.923 172.021 169.95 172.021 170.006C172.021 170.476 172.062 170.835 172.145 171.084C172.297 171.637 172.601 172.073 173.058 172.391C173.528 172.695 174.115 172.847 174.82 172.847C175.843 172.847 176.632 172.425 177.185 171.582C177.254 171.444 177.344 171.423 177.454 171.52L178.636 172.308C178.733 172.391 178.754 172.481 178.698 172.577C178.311 173.2 177.758 173.69 177.039 174.05C176.334 174.409 175.532 174.589 174.634 174.589C173.624 174.589 172.774 174.368 172.083 173.925C171.392 173.483 170.873 172.854 170.527 172.038C170.196 171.222 170.03 170.234 170.03 169.073C170.03 168.063 170.106 167.296 170.258 166.771C170.507 165.817 171.004 165.063 171.751 164.51C172.498 163.957 173.403 163.681 174.468 163.681C175.864 163.681 176.908 164.033 177.599 164.738C178.291 165.429 178.712 166.453 178.864 167.807ZM174.468 165.402C173.873 165.402 173.382 165.554 172.995 165.858C172.608 166.148 172.346 166.542 172.207 167.04C172.111 167.344 172.048 167.731 172.021 168.202C172.021 168.257 172.048 168.284 172.104 168.284H176.853C176.908 168.284 176.936 168.257 176.936 168.202C176.908 167.745 176.867 167.407 176.811 167.185C176.673 166.646 176.396 166.218 175.982 165.9C175.581 165.568 175.076 165.402 174.468 165.402ZM186.146 163.701C187.28 163.701 188.179 164.033 188.842 164.697C189.506 165.347 189.838 166.231 189.838 167.351V174.195C189.838 174.333 189.769 174.402 189.63 174.402H188.054C187.916 174.402 187.847 174.333 187.847 174.195V167.745C187.847 167.054 187.646 166.494 187.245 166.065C186.845 165.637 186.312 165.423 185.649 165.423C184.999 165.423 184.467 165.637 184.052 166.065C183.637 166.494 183.43 167.047 183.43 167.725V174.195C183.43 174.333 183.36 174.402 183.222 174.402H181.646C181.508 174.402 181.439 174.333 181.439 174.195V164.054C181.439 163.916 181.508 163.846 181.646 163.846H183.222C183.36 163.846 183.43 163.916 183.43 164.054V164.8C183.43 164.828 183.436 164.849 183.45 164.863C183.478 164.876 183.499 164.87 183.513 164.842C184.107 164.081 184.985 163.701 186.146 163.701ZM197.407 174.568C196.343 174.568 195.416 174.402 194.628 174.071C193.854 173.739 193.253 173.269 192.824 172.66C192.409 172.052 192.202 171.34 192.202 170.524V169.923C192.202 169.785 192.271 169.715 192.409 169.715H193.923C194.061 169.715 194.13 169.785 194.13 169.923V170.421C194.13 171.126 194.435 171.706 195.043 172.163C195.651 172.619 196.488 172.847 197.552 172.847C198.506 172.847 199.225 172.646 199.709 172.246C200.193 171.845 200.435 171.319 200.435 170.669C200.435 170.241 200.311 169.874 200.062 169.57C199.813 169.266 199.446 168.99 198.963 168.741C198.493 168.478 197.801 168.167 196.889 167.807C195.879 167.42 195.078 167.068 194.483 166.75C193.902 166.432 193.418 166.017 193.031 165.506C192.644 164.98 192.451 164.323 192.451 163.535C192.451 162.346 192.872 161.413 193.716 160.736C194.573 160.058 195.727 159.719 197.179 159.719C198.202 159.719 199.101 159.892 199.875 160.238C200.649 160.584 201.244 161.067 201.659 161.69C202.087 162.312 202.301 163.031 202.301 163.846V164.261C202.301 164.399 202.232 164.469 202.094 164.469H200.539C200.4 164.469 200.331 164.399 200.331 164.261V163.95C200.331 163.231 200.041 162.637 199.46 162.167C198.893 161.683 198.105 161.441 197.096 161.441C196.239 161.441 195.575 161.62 195.105 161.98C194.635 162.326 194.4 162.83 194.4 163.494C194.4 163.95 194.518 164.323 194.753 164.614C194.988 164.904 195.333 165.167 195.79 165.402C196.26 165.623 196.972 165.913 197.926 166.273C198.907 166.66 199.702 167.019 200.311 167.351C200.919 167.669 201.424 168.098 201.824 168.637C202.225 169.162 202.426 169.819 202.426 170.607C202.426 171.824 201.977 172.792 201.078 173.511C200.193 174.216 198.969 174.568 197.407 174.568ZM213.415 167.807C213.47 168.374 213.491 169.01 213.477 169.715C213.477 169.854 213.408 169.923 213.27 169.923H206.654C206.599 169.923 206.571 169.95 206.571 170.006C206.571 170.476 206.613 170.835 206.696 171.084C206.848 171.637 207.152 172.073 207.608 172.391C208.078 172.695 208.666 172.847 209.371 172.847C210.394 172.847 211.182 172.425 211.735 171.582C211.804 171.444 211.894 171.423 212.005 171.52L213.187 172.308C213.284 172.391 213.304 172.481 213.249 172.577C212.862 173.2 212.309 173.69 211.59 174.05C210.885 174.409 210.083 174.589 209.184 174.589C208.175 174.589 207.325 174.368 206.634 173.925C205.942 173.483 205.424 172.854 205.078 172.038C204.746 171.222 204.58 170.234 204.58 169.073C204.58 168.063 204.656 167.296 204.809 166.771C205.057 165.817 205.555 165.063 206.302 164.51C207.048 163.957 207.954 163.681 209.018 163.681C210.415 163.681 211.459 164.033 212.15 164.738C212.841 165.429 213.263 166.453 213.415 167.807ZM209.018 165.402C208.424 165.402 207.933 165.554 207.546 165.858C207.159 166.148 206.896 166.542 206.758 167.04C206.661 167.344 206.599 167.731 206.571 168.202C206.571 168.257 206.599 168.284 206.654 168.284H211.403C211.459 168.284 211.486 168.257 211.486 168.202C211.459 167.745 211.417 167.407 211.362 167.185C211.224 166.646 210.947 166.218 210.532 165.9C210.131 165.568 209.627 165.402 209.018 165.402ZM219.745 163.681C220.589 163.681 221.322 163.833 221.944 164.137C222.58 164.427 223.064 164.842 223.395 165.381C223.741 165.906 223.914 166.508 223.914 167.185V174.195C223.914 174.333 223.845 174.402 223.707 174.402H222.13C221.992 174.402 221.923 174.333 221.923 174.195V173.448C221.923 173.379 221.888 173.365 221.819 173.407C221.46 173.78 221.017 174.071 220.492 174.278C219.981 174.471 219.407 174.568 218.771 174.568C217.748 174.568 216.897 174.312 216.22 173.801C215.556 173.276 215.224 172.487 215.224 171.437C215.224 170.358 215.598 169.515 216.344 168.907C217.105 168.284 218.162 167.973 219.517 167.973H221.84C221.895 167.973 221.923 167.946 221.923 167.89V167.331C221.923 166.722 221.743 166.252 221.384 165.92C221.038 165.575 220.506 165.402 219.787 165.402C219.206 165.402 218.729 165.519 218.356 165.754C217.997 165.976 217.775 166.28 217.692 166.667C217.651 166.805 217.568 166.867 217.444 166.854L215.764 166.625C215.625 166.598 215.563 166.542 215.577 166.459C215.688 165.644 216.123 164.98 216.884 164.469C217.644 163.943 218.598 163.681 219.745 163.681ZM219.206 172.888C219.939 172.888 220.575 172.695 221.114 172.308C221.653 171.921 221.923 171.43 221.923 170.835V169.612C221.923 169.556 221.895 169.529 221.84 169.529H219.891C219.075 169.529 218.425 169.688 217.941 170.006C217.457 170.324 217.215 170.766 217.215 171.333C217.215 171.845 217.395 172.232 217.755 172.494C218.128 172.757 218.612 172.888 219.206 172.888ZM231.226 163.743C231.669 163.743 232.07 163.833 232.429 164.012C232.526 164.054 232.561 164.137 232.533 164.261L232.201 165.817C232.187 165.941 232.104 165.983 231.952 165.941C231.717 165.844 231.441 165.796 231.123 165.796L230.832 165.817C230.183 165.844 229.643 166.072 229.215 166.501C228.8 166.916 228.593 167.462 228.593 168.139V174.195C228.593 174.333 228.523 174.402 228.385 174.402H226.809C226.671 174.402 226.602 174.333 226.602 174.195V164.054C226.602 163.916 226.671 163.846 226.809 163.846H228.385C228.523 163.846 228.593 163.916 228.593 164.054V165.153C228.593 165.194 228.6 165.222 228.613 165.236C228.641 165.236 228.662 165.222 228.676 165.194C229.298 164.227 230.148 163.743 231.226 163.743ZM238.366 174.568C237.316 174.568 236.417 174.306 235.67 173.78C234.924 173.241 234.412 172.515 234.136 171.603C233.928 170.967 233.825 170.13 233.825 169.093C233.825 168.139 233.928 167.303 234.136 166.584C234.412 165.699 234.924 164.994 235.67 164.469C236.431 163.943 237.329 163.681 238.366 163.681C239.403 163.681 240.309 163.943 241.083 164.469C241.857 164.994 242.362 165.658 242.597 166.459C242.68 166.681 242.735 166.909 242.763 167.144C242.763 167.254 242.701 167.324 242.576 167.351L241.021 167.579H240.979C240.883 167.579 240.813 167.517 240.772 167.393L240.71 167.061C240.599 166.591 240.33 166.197 239.901 165.879C239.472 165.561 238.954 165.402 238.346 165.402C237.751 165.402 237.246 165.561 236.832 165.879C236.417 166.197 236.147 166.618 236.023 167.144C235.898 167.642 235.836 168.298 235.836 169.114C235.836 169.916 235.898 170.566 236.023 171.063C236.161 171.616 236.431 172.052 236.832 172.37C237.246 172.688 237.751 172.847 238.346 172.847C238.954 172.847 239.472 172.688 239.901 172.37C240.343 172.052 240.62 171.637 240.73 171.126C240.744 171.112 240.744 171.098 240.73 171.084C240.73 171.057 240.737 171.036 240.751 171.022V170.939C240.793 170.828 240.869 170.787 240.979 170.815L242.535 171.063C242.645 171.091 242.701 171.146 242.701 171.229V171.312C242.701 171.437 242.666 171.589 242.597 171.769C242.362 172.612 241.857 173.289 241.083 173.801C240.309 174.312 239.403 174.568 238.366 174.568ZM249.759 163.701C250.893 163.701 251.792 164.033 252.455 164.697C253.119 165.347 253.451 166.231 253.451 167.351V174.195C253.451 174.333 253.382 174.402 253.243 174.402H251.667C251.529 174.402 251.46 174.333 251.46 174.195V167.745C251.46 167.054 251.259 166.494 250.858 166.065C250.458 165.637 249.925 165.423 249.262 165.423C248.612 165.423 248.08 165.637 247.665 166.065C247.25 166.494 247.043 167.047 247.043 167.725V174.195C247.043 174.333 246.973 174.402 246.835 174.402H245.259C245.121 174.402 245.052 174.333 245.052 174.195V160.093C245.052 159.955 245.121 159.885 245.259 159.885H246.835C246.973 159.885 247.043 159.955 247.043 160.093V164.8C247.043 164.828 247.049 164.849 247.063 164.863C247.091 164.876 247.112 164.87 247.126 164.842C247.72 164.081 248.598 163.701 249.759 163.701ZM259.925 168.927C259.787 168.927 259.718 168.858 259.718 168.72V167.413C259.718 167.275 259.787 167.206 259.925 167.206H266.333C266.472 167.206 266.541 167.275 266.541 167.413V168.72C266.541 168.858 266.472 168.927 266.333 168.927H259.925ZM278.83 159.865C279.673 159.865 280.413 160.044 281.049 160.404C281.699 160.749 282.197 161.24 282.542 161.876C282.902 162.512 283.081 163.245 283.081 164.075C283.081 164.904 282.902 165.63 282.542 166.252C282.183 166.874 281.671 167.358 281.008 167.704C280.358 168.049 279.604 168.222 278.747 168.222H275.097C275.042 168.222 275.014 168.25 275.014 168.305V174.195C275.014 174.333 274.945 174.402 274.807 174.402H273.231C273.092 174.402 273.023 174.333 273.023 174.195V160.072C273.023 159.934 273.092 159.865 273.231 159.865H278.83ZM278.56 166.605C279.321 166.605 279.929 166.377 280.385 165.92C280.856 165.464 281.091 164.863 281.091 164.116C281.091 163.356 280.856 162.747 280.385 162.291C279.929 161.821 279.321 161.586 278.56 161.586H275.097C275.042 161.586 275.014 161.614 275.014 161.669V166.522C275.014 166.577 275.042 166.605 275.097 166.605H278.56ZM288.968 163.681C289.812 163.681 290.545 163.833 291.167 164.137C291.803 164.427 292.287 164.842 292.618 165.381C292.964 165.906 293.137 166.508 293.137 167.185V174.195C293.137 174.333 293.068 174.402 292.929 174.402H291.353C291.215 174.402 291.146 174.333 291.146 174.195V173.448C291.146 173.379 291.111 173.365 291.042 173.407C290.683 173.78 290.24 174.071 289.715 174.278C289.203 174.471 288.63 174.568 287.994 174.568C286.971 174.568 286.12 174.312 285.443 173.801C284.779 173.276 284.447 172.487 284.447 171.437C284.447 170.358 284.821 169.515 285.567 168.907C286.328 168.284 287.385 167.973 288.74 167.973H291.063C291.118 167.973 291.146 167.946 291.146 167.89V167.331C291.146 166.722 290.966 166.252 290.607 165.92C290.261 165.575 289.729 165.402 289.01 165.402C288.429 165.402 287.952 165.519 287.579 165.754C287.219 165.976 286.998 166.28 286.915 166.667C286.874 166.805 286.791 166.867 286.666 166.854L284.987 166.625C284.848 166.598 284.786 166.542 284.8 166.459C284.911 165.644 285.346 164.98 286.107 164.469C286.867 163.943 287.821 163.681 288.968 163.681ZM288.429 172.888C289.162 172.888 289.798 172.695 290.337 172.308C290.876 171.921 291.146 171.43 291.146 170.835V169.612C291.146 169.556 291.118 169.529 291.063 169.529H289.114C288.298 169.529 287.648 169.688 287.164 170.006C286.68 170.324 286.438 170.766 286.438 171.333C286.438 171.845 286.618 172.232 286.978 172.494C287.351 172.757 287.835 172.888 288.429 172.888ZM300.888 165.277C300.888 165.416 300.819 165.485 300.681 165.485H298.441C298.386 165.485 298.358 165.512 298.358 165.568V171.063C298.358 171.644 298.489 172.066 298.752 172.328C299.015 172.577 299.423 172.702 299.976 172.702H300.577C300.715 172.702 300.785 172.771 300.785 172.909V174.195C300.785 174.333 300.715 174.402 300.577 174.402C300.135 174.43 299.817 174.444 299.623 174.444C298.572 174.444 297.777 174.257 297.238 173.884C296.713 173.497 296.45 172.792 296.45 171.769V165.568C296.45 165.512 296.423 165.485 296.367 165.485H295.102C294.964 165.485 294.895 165.416 294.895 165.277V164.054C294.895 163.916 294.964 163.846 295.102 163.846H296.367C296.423 163.846 296.45 163.819 296.45 163.763V161.316C296.45 161.178 296.519 161.109 296.658 161.109H298.151C298.289 161.109 298.358 161.178 298.358 161.316V163.763C298.358 163.819 298.386 163.846 298.441 163.846H300.681C300.819 163.846 300.888 163.916 300.888 164.054V165.277ZM307.326 174.568C306.275 174.568 305.376 174.306 304.63 173.78C303.883 173.241 303.372 172.515 303.095 171.603C302.888 170.967 302.784 170.13 302.784 169.093C302.784 168.139 302.888 167.303 303.095 166.584C303.372 165.699 303.883 164.994 304.63 164.469C305.39 163.943 306.289 163.681 307.326 163.681C308.363 163.681 309.268 163.943 310.043 164.469C310.817 164.994 311.322 165.658 311.557 166.459C311.64 166.681 311.695 166.909 311.722 167.144C311.722 167.254 311.66 167.324 311.536 167.351L309.98 167.579H309.939C309.842 167.579 309.773 167.517 309.732 167.393L309.669 167.061C309.559 166.591 309.289 166.197 308.861 165.879C308.432 165.561 307.914 165.402 307.305 165.402C306.711 165.402 306.206 165.561 305.791 165.879C305.376 166.197 305.107 166.618 304.982 167.144C304.858 167.642 304.796 168.298 304.796 169.114C304.796 169.916 304.858 170.566 304.982 171.063C305.121 171.616 305.39 172.052 305.791 172.37C306.206 172.688 306.711 172.847 307.305 172.847C307.914 172.847 308.432 172.688 308.861 172.37C309.303 172.052 309.579 171.637 309.69 171.126C309.704 171.112 309.704 171.098 309.69 171.084C309.69 171.057 309.697 171.036 309.711 171.022V170.939C309.752 170.828 309.828 170.787 309.939 170.815L311.494 171.063C311.605 171.091 311.66 171.146 311.66 171.229V171.312C311.66 171.437 311.626 171.589 311.557 171.769C311.322 172.612 310.817 173.289 310.043 173.801C309.268 174.312 308.363 174.568 307.326 174.568ZM318.719 163.701C319.853 163.701 320.751 164.033 321.415 164.697C322.079 165.347 322.41 166.231 322.41 167.351V174.195C322.41 174.333 322.341 174.402 322.203 174.402H320.627C320.489 174.402 320.42 174.333 320.42 174.195V167.745C320.42 167.054 320.219 166.494 319.818 166.065C319.417 165.637 318.885 165.423 318.221 165.423C317.571 165.423 317.039 165.637 316.624 166.065C316.21 166.494 316.002 167.047 316.002 167.725V174.195C316.002 174.333 315.933 174.402 315.795 174.402H314.219C314.08 174.402 314.011 174.333 314.011 174.195V160.093C314.011 159.955 314.08 159.885 314.219 159.885H315.795C315.933 159.885 316.002 159.955 316.002 160.093V164.8C316.002 164.828 316.009 164.849 316.023 164.863C316.051 164.876 316.071 164.87 316.085 164.842C316.68 164.081 317.558 163.701 318.719 163.701ZM337.927 174.402C337.816 174.402 337.74 174.354 337.699 174.257L334.795 168.056C334.781 168.015 334.754 167.994 334.712 167.994H331.726C331.671 167.994 331.643 168.022 331.643 168.077V174.195C331.643 174.333 331.574 174.402 331.436 174.402H329.859C329.721 174.402 329.652 174.333 329.652 174.195V160.093C329.652 159.955 329.721 159.885 329.859 159.885H335.438C336.268 159.885 336.994 160.058 337.616 160.404C338.252 160.749 338.742 161.233 339.088 161.856C339.434 162.478 339.607 163.197 339.607 164.012C339.607 164.98 339.351 165.803 338.839 166.48C338.342 167.144 337.643 167.593 336.745 167.828C336.689 167.856 336.676 167.89 336.703 167.932L339.71 174.153C339.724 174.181 339.731 174.216 339.731 174.257C339.731 174.354 339.676 174.402 339.565 174.402H337.927ZM331.726 161.607C331.671 161.607 331.643 161.634 331.643 161.69V166.335C331.643 166.39 331.671 166.418 331.726 166.418H335.189C335.922 166.418 336.51 166.204 336.952 165.775C337.394 165.333 337.616 164.752 337.616 164.033C337.616 163.3 337.394 162.713 336.952 162.27C336.51 161.828 335.922 161.607 335.189 161.607H331.726ZM350.585 167.807C350.64 168.374 350.661 169.01 350.647 169.715C350.647 169.854 350.578 169.923 350.44 169.923H343.824C343.769 169.923 343.741 169.95 343.741 170.006C343.741 170.476 343.783 170.835 343.866 171.084C344.018 171.637 344.322 172.073 344.778 172.391C345.248 172.695 345.836 172.847 346.541 172.847C347.564 172.847 348.352 172.425 348.905 171.582C348.974 171.444 349.064 171.423 349.175 171.52L350.357 172.308C350.454 172.391 350.474 172.481 350.419 172.577C350.032 173.2 349.479 173.69 348.76 174.05C348.055 174.409 347.253 174.589 346.354 174.589C345.345 174.589 344.495 174.368 343.804 173.925C343.112 173.483 342.594 172.854 342.248 172.038C341.916 171.222 341.75 170.234 341.75 169.073C341.75 168.063 341.826 167.296 341.979 166.771C342.227 165.817 342.725 165.063 343.472 164.51C344.218 163.957 345.124 163.681 346.188 163.681C347.585 163.681 348.629 164.033 349.32 164.738C350.011 165.429 350.433 166.453 350.585 167.807ZM346.188 165.402C345.594 165.402 345.103 165.554 344.716 165.858C344.329 166.148 344.066 166.542 343.928 167.04C343.831 167.344 343.769 167.731 343.741 168.202C343.741 168.257 343.769 168.284 343.824 168.284H348.573C348.629 168.284 348.656 168.257 348.656 168.202C348.629 167.745 348.587 167.407 348.532 167.185C348.394 166.646 348.117 166.218 347.702 165.9C347.301 165.568 346.797 165.402 346.188 165.402ZM353.367 174.402C353.228 174.402 353.159 174.333 353.159 174.195V160.093C353.159 159.955 353.228 159.885 353.367 159.885H354.943C355.081 159.885 355.15 159.955 355.15 160.093V174.195C355.15 174.333 355.081 174.402 354.943 174.402H353.367ZM366.584 167.807C366.64 168.374 366.661 169.01 366.647 169.715C366.647 169.854 366.578 169.923 366.439 169.923H359.824C359.768 169.923 359.741 169.95 359.741 170.006C359.741 170.476 359.782 170.835 359.865 171.084C360.017 171.637 360.321 172.073 360.778 172.391C361.248 172.695 361.835 172.847 362.54 172.847C363.564 172.847 364.352 172.425 364.905 171.582C364.974 171.444 365.064 171.423 365.174 171.52L366.356 172.308C366.453 172.391 366.474 172.481 366.419 172.577C366.031 173.2 365.478 173.69 364.759 174.05C364.054 174.409 363.252 174.589 362.354 174.589C361.345 174.589 360.494 174.368 359.803 173.925C359.112 173.483 358.593 172.854 358.248 172.038C357.916 171.222 357.75 170.234 357.75 169.073C357.75 168.063 357.826 167.296 357.978 166.771C358.227 165.817 358.725 165.063 359.471 164.51C360.218 163.957 361.123 163.681 362.188 163.681C363.584 163.681 364.628 164.033 365.319 164.738C366.011 165.429 366.432 166.453 366.584 167.807ZM362.188 165.402C361.593 165.402 361.103 165.554 360.715 165.858C360.328 166.148 360.066 166.542 359.927 167.04C359.831 167.344 359.768 167.731 359.741 168.202C359.741 168.257 359.768 168.284 359.824 168.284H364.573C364.628 168.284 364.656 168.257 364.656 168.202C364.628 167.745 364.587 167.407 364.531 167.185C364.393 166.646 364.117 166.218 363.702 165.9C363.301 165.568 362.796 165.402 362.188 165.402ZM372.915 163.681C373.758 163.681 374.491 163.833 375.113 164.137C375.749 164.427 376.233 164.842 376.565 165.381C376.911 165.906 377.083 166.508 377.083 167.185V174.195C377.083 174.333 377.014 174.402 376.876 174.402H375.3C375.162 174.402 375.092 174.333 375.092 174.195V173.448C375.092 173.379 375.058 173.365 374.989 173.407C374.629 173.78 374.187 174.071 373.661 174.278C373.15 174.471 372.576 174.568 371.94 174.568C370.917 174.568 370.067 174.312 369.389 173.801C368.726 173.276 368.394 172.487 368.394 171.437C368.394 170.358 368.767 169.515 369.514 168.907C370.274 168.284 371.332 167.973 372.687 167.973H375.009C375.065 167.973 375.092 167.946 375.092 167.89V167.331C375.092 166.722 374.913 166.252 374.553 165.92C374.208 165.575 373.675 165.402 372.956 165.402C372.376 165.402 371.899 165.519 371.525 165.754C371.166 165.976 370.945 166.28 370.862 166.667C370.82 166.805 370.737 166.867 370.613 166.854L368.933 166.625C368.795 166.598 368.733 166.542 368.746 166.459C368.857 165.644 369.293 164.98 370.053 164.469C370.813 163.943 371.767 163.681 372.915 163.681ZM372.376 172.888C373.108 172.888 373.744 172.695 374.284 172.308C374.823 171.921 375.092 171.43 375.092 170.835V169.612C375.092 169.556 375.065 169.529 375.009 169.529H373.06C372.244 169.529 371.595 169.688 371.111 170.006C370.627 170.324 370.385 170.766 370.385 171.333C370.385 171.845 370.565 172.232 370.924 172.494C371.297 172.757 371.781 172.888 372.376 172.888ZM383.483 174.527C382.654 174.527 381.921 174.402 381.285 174.153C380.663 173.905 380.179 173.566 379.833 173.137C379.488 172.695 379.315 172.211 379.315 171.686V171.457C379.315 171.319 379.384 171.25 379.522 171.25H381.015C381.154 171.25 381.223 171.319 381.223 171.457V171.561C381.223 171.948 381.43 172.287 381.845 172.577C382.274 172.868 382.813 173.013 383.463 173.013C384.085 173.013 384.589 172.882 384.976 172.619C385.364 172.342 385.557 171.997 385.557 171.582C385.557 171.181 385.377 170.884 385.018 170.69C384.658 170.483 384.078 170.268 383.276 170.047C382.488 169.826 381.824 169.605 381.285 169.384C380.76 169.149 380.31 168.824 379.937 168.409C379.578 167.98 379.398 167.434 379.398 166.771C379.398 165.844 379.757 165.111 380.476 164.572C381.209 164.019 382.177 163.743 383.38 163.743C384.181 163.743 384.887 163.874 385.495 164.137C386.117 164.386 386.594 164.738 386.926 165.194C387.258 165.651 387.424 166.162 387.424 166.729V166.791C387.424 166.93 387.354 166.999 387.216 166.999H385.765C385.626 166.999 385.557 166.93 385.557 166.791V166.729C385.557 166.328 385.357 165.996 384.956 165.734C384.569 165.457 384.036 165.319 383.359 165.319C382.751 165.319 382.253 165.436 381.866 165.671C381.492 165.906 381.306 166.224 381.306 166.625C381.306 167.026 381.485 167.331 381.845 167.538C382.218 167.745 382.813 167.966 383.628 168.202C384.43 168.423 385.094 168.644 385.619 168.865C386.159 169.073 386.615 169.391 386.988 169.819C387.361 170.234 387.548 170.78 387.548 171.457C387.548 172.398 387.175 173.144 386.428 173.697C385.695 174.25 384.714 174.527 383.483 174.527ZM398.421 167.807C398.477 168.374 398.497 169.01 398.484 169.715C398.484 169.854 398.414 169.923 398.276 169.923H391.661C391.605 169.923 391.578 169.95 391.578 170.006C391.578 170.476 391.619 170.835 391.702 171.084C391.854 171.637 392.158 172.073 392.615 172.391C393.085 172.695 393.672 172.847 394.377 172.847C395.4 172.847 396.189 172.425 396.742 171.582C396.811 171.444 396.901 171.423 397.011 171.52L398.193 172.308C398.29 172.391 398.311 172.481 398.255 172.577C397.868 173.2 397.315 173.69 396.596 174.05C395.891 174.409 395.089 174.589 394.191 174.589C393.181 174.589 392.331 174.368 391.64 173.925C390.949 173.483 390.43 172.854 390.084 172.038C389.753 171.222 389.587 170.234 389.587 169.073C389.587 168.063 389.663 167.296 389.815 166.771C390.064 165.817 390.561 165.063 391.308 164.51C392.055 163.957 392.96 163.681 394.025 163.681C395.421 163.681 396.465 164.033 397.156 164.738C397.848 165.429 398.269 166.453 398.421 167.807ZM394.025 165.402C393.43 165.402 392.939 165.554 392.552 165.858C392.165 166.148 391.903 166.542 391.764 167.04C391.668 167.344 391.605 167.731 391.578 168.202C391.578 168.257 391.605 168.284 391.661 168.284H396.41C396.465 168.284 396.493 168.257 396.493 168.202C396.465 167.745 396.424 167.407 396.368 167.185C396.23 166.646 395.953 166.218 395.539 165.9C395.138 165.568 394.633 165.402 394.025 165.402Z" fill="white"/>
<g filter="url(#filter2_b_985_56288)">
<rect width="185.434" height="42" rx="5.76963" transform="matrix(1 0 0 -1 96 240.837)" fill="#BADCFF" fill-opacity="0.18"/>
<circle cx="115.5" cy="219.837" r="3.5" fill="white"/>
<path d="M139.342 228.337C139.203 228.337 139.134 228.268 139.134 228.13V214.027C139.134 213.889 139.203 213.82 139.342 213.82H140.918C141.056 213.82 141.125 213.889 141.125 214.027V228.13C141.125 228.268 141.056 228.337 140.918 228.337H139.342ZM148.98 217.636C150.114 217.636 151.012 217.968 151.676 218.631C152.34 219.281 152.672 220.166 152.672 221.286V228.13C152.672 228.268 152.602 228.337 152.464 228.337H150.888C150.75 228.337 150.681 228.268 150.681 228.13V221.68C150.681 220.989 150.48 220.429 150.079 220C149.678 219.571 149.146 219.357 148.482 219.357C147.833 219.357 147.3 219.571 146.886 220C146.471 220.429 146.263 220.982 146.263 221.659V228.13C146.263 228.268 146.194 228.337 146.056 228.337H144.48C144.342 228.337 144.272 228.268 144.272 228.13V217.988C144.272 217.85 144.342 217.781 144.48 217.781H146.056C146.194 217.781 146.263 217.85 146.263 217.988V218.735C146.263 218.763 146.27 218.783 146.284 218.797C146.312 218.811 146.332 218.804 146.346 218.776C146.941 218.016 147.819 217.636 148.98 217.636ZM160.158 215.562C159.467 215.562 158.997 215.693 158.748 215.956C158.499 216.219 158.374 216.716 158.374 217.449V217.698C158.374 217.753 158.402 217.781 158.457 217.781H160.635C160.773 217.781 160.842 217.85 160.842 217.988V219.399C160.842 219.537 160.773 219.606 160.635 219.606H158.457C158.402 219.606 158.374 219.634 158.374 219.689V228.13C158.374 228.268 158.305 228.337 158.167 228.337H156.591C156.453 228.337 156.384 228.268 156.384 228.13V219.689C156.384 219.634 156.356 219.606 156.301 219.606H154.911C154.773 219.606 154.704 219.537 154.704 219.399V217.988C154.704 217.85 154.773 217.781 154.911 217.781H156.301C156.356 217.781 156.384 217.753 156.384 217.698V217.325C156.384 216.412 156.487 215.707 156.695 215.209C156.916 214.712 157.282 214.359 157.794 214.152C158.305 213.931 159.024 213.82 159.951 213.82H160.656C160.794 213.82 160.863 213.889 160.863 214.027V215.355C160.863 215.493 160.794 215.562 160.656 215.562H160.158ZM167.752 217.677C168.195 217.677 168.596 217.767 168.955 217.947C169.052 217.988 169.086 218.071 169.059 218.196L168.727 219.751C168.713 219.876 168.63 219.917 168.478 219.876C168.243 219.779 167.966 219.73 167.648 219.73L167.358 219.751C166.708 219.779 166.169 220.007 165.741 220.436C165.326 220.85 165.118 221.396 165.118 222.074V228.13C165.118 228.268 165.049 228.337 164.911 228.337H163.335C163.197 228.337 163.127 228.268 163.127 228.13V217.988C163.127 217.85 163.197 217.781 163.335 217.781H164.911C165.049 217.781 165.118 217.85 165.118 217.988V219.088C165.118 219.129 165.125 219.157 165.139 219.17C165.167 219.17 165.188 219.157 165.201 219.129C165.824 218.161 166.674 217.677 167.752 217.677ZM174.6 217.615C175.443 217.615 176.176 217.767 176.798 218.071C177.434 218.362 177.918 218.776 178.25 219.316C178.595 219.841 178.768 220.442 178.768 221.12V228.13C178.768 228.268 178.699 228.337 178.561 228.337H176.985C176.846 228.337 176.777 228.268 176.777 228.13V227.383C176.777 227.314 176.743 227.3 176.674 227.341C176.314 227.715 175.872 228.005 175.346 228.212C174.835 228.406 174.261 228.503 173.625 228.503C172.602 228.503 171.752 228.247 171.074 227.735C170.411 227.21 170.079 226.422 170.079 225.371C170.079 224.293 170.452 223.45 171.199 222.841C171.959 222.219 173.017 221.908 174.372 221.908H176.694C176.75 221.908 176.777 221.88 176.777 221.825V221.265C176.777 220.657 176.598 220.187 176.238 219.855C175.892 219.509 175.36 219.336 174.641 219.336C174.061 219.336 173.584 219.454 173.21 219.689C172.851 219.91 172.63 220.214 172.547 220.601C172.505 220.74 172.422 220.802 172.298 220.788L170.618 220.56C170.48 220.532 170.418 220.477 170.431 220.394C170.542 219.578 170.977 218.915 171.738 218.403C172.498 217.878 173.452 217.615 174.6 217.615ZM174.061 226.823C174.793 226.823 175.429 226.629 175.969 226.242C176.508 225.855 176.777 225.364 176.777 224.77V223.546C176.777 223.491 176.75 223.463 176.694 223.463H174.745C173.929 223.463 173.279 223.622 172.796 223.94C172.312 224.258 172.07 224.701 172.07 225.268C172.07 225.779 172.249 226.166 172.609 226.429C172.982 226.692 173.466 226.823 174.061 226.823ZM185.168 228.461C184.339 228.461 183.606 228.337 182.97 228.088C182.348 227.839 181.864 227.5 181.518 227.072C181.173 226.629 181 226.146 181 225.62V225.392C181 225.254 181.069 225.185 181.207 225.185H182.7C182.839 225.185 182.908 225.254 182.908 225.392V225.496C182.908 225.883 183.115 226.222 183.53 226.512C183.958 226.802 184.498 226.947 185.147 226.947C185.77 226.947 186.274 226.816 186.661 226.553C187.048 226.277 187.242 225.931 187.242 225.516C187.242 225.116 187.062 224.818 186.703 224.625C186.343 224.417 185.763 224.203 184.961 223.982C184.173 223.761 183.509 223.539 182.97 223.318C182.445 223.083 181.995 222.758 181.622 222.343C181.262 221.915 181.083 221.369 181.083 220.705C181.083 219.779 181.442 219.046 182.161 218.507C182.894 217.954 183.862 217.677 185.064 217.677C185.866 217.677 186.571 217.809 187.18 218.071C187.802 218.32 188.279 218.673 188.611 219.129C188.943 219.585 189.108 220.097 189.108 220.664V220.726C189.108 220.864 189.039 220.933 188.901 220.933H187.449C187.311 220.933 187.242 220.864 187.242 220.726V220.664C187.242 220.263 187.042 219.931 186.641 219.668C186.253 219.392 185.721 219.253 185.044 219.253C184.435 219.253 183.938 219.371 183.551 219.606C183.177 219.841 182.991 220.159 182.991 220.56C182.991 220.961 183.17 221.265 183.53 221.472C183.903 221.68 184.498 221.901 185.313 222.136C186.115 222.357 186.779 222.579 187.304 222.8C187.843 223.007 188.3 223.325 188.673 223.754C189.046 224.168 189.233 224.715 189.233 225.392C189.233 226.332 188.86 227.079 188.113 227.632C187.38 228.185 186.399 228.461 185.168 228.461ZM196.747 219.212C196.747 219.35 196.678 219.419 196.54 219.419H194.3C194.245 219.419 194.217 219.447 194.217 219.502V224.998C194.217 225.579 194.348 226 194.611 226.263C194.874 226.512 195.282 226.636 195.835 226.636H196.436C196.574 226.636 196.643 226.705 196.643 226.844V228.13C196.643 228.268 196.574 228.337 196.436 228.337C195.994 228.365 195.676 228.378 195.482 228.378C194.431 228.378 193.636 228.192 193.097 227.818C192.572 227.431 192.309 226.726 192.309 225.703V219.502C192.309 219.447 192.281 219.419 192.226 219.419H190.961C190.823 219.419 190.754 219.35 190.754 219.212V217.988C190.754 217.85 190.823 217.781 190.961 217.781H192.226C192.281 217.781 192.309 217.753 192.309 217.698V215.251C192.309 215.113 192.378 215.044 192.516 215.044H194.01C194.148 215.044 194.217 215.113 194.217 215.251V217.698C194.217 217.753 194.245 217.781 194.3 217.781H196.54C196.678 217.781 196.747 217.85 196.747 217.988V219.212ZM203.822 217.677C204.264 217.677 204.665 217.767 205.025 217.947C205.121 217.988 205.156 218.071 205.128 218.196L204.797 219.751C204.783 219.876 204.7 219.917 204.548 219.876C204.313 219.779 204.036 219.73 203.718 219.73L203.428 219.751C202.778 219.779 202.239 220.007 201.81 220.436C201.395 220.85 201.188 221.396 201.188 222.074V228.13C201.188 228.268 201.119 228.337 200.981 228.337H199.405C199.266 228.337 199.197 228.268 199.197 228.13V217.988C199.197 217.85 199.266 217.781 199.405 217.781H200.981C201.119 217.781 201.188 217.85 201.188 217.988V219.088C201.188 219.129 201.195 219.157 201.209 219.17C201.236 219.17 201.257 219.157 201.271 219.129C201.893 218.161 202.743 217.677 203.822 217.677ZM213.177 217.988C213.177 217.85 213.246 217.781 213.384 217.781H214.94C215.078 217.781 215.147 217.85 215.147 217.988V228.13C215.147 228.268 215.078 228.337 214.94 228.337H213.384C213.246 228.337 213.177 228.268 213.177 228.13V227.362C213.177 227.335 213.163 227.321 213.135 227.321C213.122 227.307 213.101 227.314 213.073 227.341C212.52 228.102 211.67 228.482 210.522 228.482C209.845 228.482 209.216 228.351 208.635 228.088C208.068 227.825 207.612 227.438 207.266 226.927C206.921 226.415 206.748 225.793 206.748 225.06V217.988C206.748 217.85 206.817 217.781 206.955 217.781H208.511C208.649 217.781 208.718 217.85 208.718 217.988V224.438C208.718 225.157 208.905 225.724 209.278 226.139C209.665 226.553 210.204 226.761 210.896 226.761C211.587 226.761 212.14 226.553 212.555 226.139C212.969 225.71 213.177 225.143 213.177 224.438V217.988ZM222.283 228.503C221.232 228.503 220.333 228.24 219.587 227.715C218.84 227.176 218.329 226.45 218.052 225.537C217.845 224.901 217.741 224.065 217.741 223.028C217.741 222.074 217.845 221.237 218.052 220.518C218.329 219.634 218.84 218.929 219.587 218.403C220.347 217.878 221.246 217.615 222.283 217.615C223.32 217.615 224.225 217.878 225 218.403C225.774 218.929 226.278 219.592 226.514 220.394C226.596 220.615 226.652 220.843 226.679 221.078C226.679 221.189 226.617 221.258 226.493 221.286L224.937 221.514H224.896C224.799 221.514 224.73 221.452 224.689 221.327L224.626 220.995C224.516 220.525 224.246 220.131 223.817 219.813C223.389 219.495 222.87 219.336 222.262 219.336C221.668 219.336 221.163 219.495 220.748 219.813C220.333 220.131 220.064 220.553 219.939 221.078C219.815 221.576 219.753 222.233 219.753 223.049C219.753 223.85 219.815 224.5 219.939 224.998C220.078 225.551 220.347 225.987 220.748 226.305C221.163 226.623 221.668 226.782 222.262 226.782C222.87 226.782 223.389 226.623 223.817 226.305C224.26 225.987 224.536 225.572 224.647 225.06C224.661 225.046 224.661 225.033 224.647 225.019C224.647 224.991 224.654 224.97 224.668 224.957V224.874C224.709 224.763 224.785 224.721 224.896 224.749L226.451 224.998C226.562 225.026 226.617 225.081 226.617 225.164V225.247C226.617 225.371 226.583 225.523 226.514 225.703C226.278 226.546 225.774 227.224 225 227.735C224.225 228.247 223.32 228.503 222.283 228.503ZM234.174 219.212C234.174 219.35 234.105 219.419 233.966 219.419H231.726C231.671 219.419 231.644 219.447 231.644 219.502V224.998C231.644 225.579 231.775 226 232.038 226.263C232.3 226.512 232.708 226.636 233.261 226.636H233.863C234.001 226.636 234.07 226.705 234.07 226.844V228.13C234.07 228.268 234.001 228.337 233.863 228.337C233.42 228.365 233.102 228.378 232.909 228.378C231.858 228.378 231.063 228.192 230.524 227.818C229.998 227.431 229.736 226.726 229.736 225.703V219.502C229.736 219.447 229.708 219.419 229.653 219.419H228.388C228.249 219.419 228.18 219.35 228.18 219.212V217.988C228.18 217.85 228.249 217.781 228.388 217.781H229.653C229.708 217.781 229.736 217.753 229.736 217.698V215.251C229.736 215.113 229.805 215.044 229.943 215.044H231.436C231.574 215.044 231.644 215.113 231.644 215.251V217.698C231.644 217.753 231.671 217.781 231.726 217.781H233.966C234.105 217.781 234.174 217.85 234.174 217.988V219.212ZM242.907 217.988C242.907 217.85 242.977 217.781 243.115 217.781H244.67C244.809 217.781 244.878 217.85 244.878 217.988V228.13C244.878 228.268 244.809 228.337 244.67 228.337H243.115C242.977 228.337 242.907 228.268 242.907 228.13V227.362C242.907 227.335 242.894 227.321 242.866 227.321C242.852 227.307 242.831 227.314 242.804 227.341C242.251 228.102 241.4 228.482 240.253 228.482C239.575 228.482 238.946 228.351 238.366 228.088C237.799 227.825 237.343 227.438 236.997 226.927C236.651 226.415 236.479 225.793 236.479 225.06V217.988C236.479 217.85 236.548 217.781 236.686 217.781H238.241C238.38 217.781 238.449 217.85 238.449 217.988V224.438C238.449 225.157 238.635 225.724 239.009 226.139C239.396 226.553 239.935 226.761 240.626 226.761C241.318 226.761 241.871 226.553 242.285 226.139C242.7 225.71 242.907 225.143 242.907 224.438V217.988ZM252.408 217.677C252.85 217.677 253.251 217.767 253.61 217.947C253.707 217.988 253.742 218.071 253.714 218.196L253.382 219.751C253.368 219.876 253.285 219.917 253.133 219.876C252.898 219.779 252.622 219.73 252.304 219.73L252.013 219.751C251.364 219.779 250.824 220.007 250.396 220.436C249.981 220.85 249.774 221.396 249.774 222.074V228.13C249.774 228.268 249.705 228.337 249.566 228.337H247.99C247.852 228.337 247.783 228.268 247.783 228.13V217.988C247.783 217.85 247.852 217.781 247.99 217.781H249.566C249.705 217.781 249.774 217.85 249.774 217.988V219.088C249.774 219.129 249.781 219.157 249.794 219.17C249.822 219.17 249.843 219.157 249.857 219.129C250.479 218.161 251.329 217.677 252.408 217.677ZM263.861 221.742C263.916 222.309 263.937 222.945 263.923 223.65C263.923 223.788 263.854 223.857 263.716 223.857H257.1C257.045 223.857 257.017 223.885 257.017 223.94C257.017 224.41 257.059 224.77 257.142 225.019C257.294 225.572 257.598 226.007 258.054 226.325C258.524 226.629 259.112 226.782 259.817 226.782C260.84 226.782 261.628 226.36 262.181 225.516C262.25 225.378 262.34 225.357 262.451 225.454L263.633 226.242C263.73 226.325 263.75 226.415 263.695 226.512C263.308 227.134 262.755 227.625 262.036 227.984C261.331 228.344 260.529 228.524 259.63 228.524C258.621 228.524 257.771 228.302 257.08 227.86C256.388 227.418 255.87 226.788 255.524 225.973C255.192 225.157 255.026 224.168 255.026 223.007C255.026 221.998 255.102 221.231 255.255 220.705C255.503 219.751 256.001 218.998 256.748 218.445C257.494 217.892 258.4 217.615 259.464 217.615C260.861 217.615 261.905 217.968 262.596 218.673C263.287 219.364 263.709 220.387 263.861 221.742ZM259.464 219.336C258.87 219.336 258.379 219.488 257.992 219.793C257.605 220.083 257.342 220.477 257.204 220.975C257.107 221.279 257.045 221.666 257.017 222.136C257.017 222.191 257.045 222.219 257.1 222.219H261.849C261.905 222.219 261.932 222.191 261.932 222.136C261.905 221.68 261.863 221.341 261.808 221.12C261.67 220.581 261.393 220.152 260.978 219.834C260.577 219.502 260.073 219.336 259.464 219.336Z" fill="white"/>
</g>
</g>
<g filter="url(#filter3_b_985_56288)">
<rect x="80" y="267.402" width="351" height="121.434" rx="5.76963" fill="#BADCFF" fill-opacity="0.18"/>
<path d="M108.547 297.485C108.547 297.623 108.478 297.692 108.339 297.692H106.743C106.673 297.692 106.639 297.72 106.639 297.775L106.224 300.637C106.224 300.692 106.245 300.72 106.286 300.72H107.593C107.731 300.72 107.8 300.789 107.8 300.927V302.234C107.8 302.372 107.731 302.441 107.593 302.441H106.017C105.948 302.441 105.913 302.469 105.913 302.524L105.395 305.801C105.381 305.925 105.312 305.988 105.187 305.988L103.611 305.967C103.556 305.967 103.507 305.946 103.466 305.905C103.424 305.863 103.411 305.808 103.424 305.739L103.922 302.524C103.922 302.469 103.901 302.441 103.86 302.441H100.977C100.908 302.441 100.874 302.469 100.874 302.524L100.355 305.801C100.341 305.925 100.272 305.988 100.148 305.988L98.5716 305.967C98.5163 305.967 98.4679 305.946 98.4264 305.905C98.3849 305.863 98.3711 305.808 98.3849 305.739L98.8827 302.524C98.8827 302.469 98.8619 302.441 98.8204 302.441H97.5139C97.3757 302.441 97.3065 302.372 97.3065 302.234L97.3273 300.927C97.3273 300.789 97.3964 300.72 97.5347 300.72H99.0693C99.1384 300.72 99.173 300.692 99.173 300.637L99.6085 297.775C99.6085 297.72 99.5878 297.692 99.5463 297.692H98.2812C98.143 297.692 98.0739 297.623 98.0739 297.485V296.158C98.0739 296.019 98.143 295.95 98.2812 295.95H99.8159C99.885 295.95 99.9196 295.922 99.9196 295.867L100.438 292.59C100.452 292.466 100.521 292.404 100.645 292.404L102.222 292.425C102.277 292.425 102.325 292.445 102.367 292.487C102.408 292.528 102.422 292.584 102.408 292.653L101.91 295.867C101.91 295.922 101.931 295.95 101.973 295.95H104.855C104.924 295.95 104.959 295.922 104.959 295.867L105.478 292.59C105.491 292.466 105.56 292.404 105.685 292.404L107.261 292.425C107.316 292.425 107.365 292.445 107.406 292.487C107.448 292.528 107.461 292.584 107.448 292.653L106.95 295.867C106.95 295.922 106.971 295.95 107.012 295.95H108.36C108.498 295.95 108.568 296.019 108.568 296.158L108.547 297.485ZM104.109 300.72C104.178 300.72 104.212 300.692 104.212 300.637L104.648 297.775C104.648 297.72 104.627 297.692 104.586 297.692H101.703C101.634 297.692 101.599 297.72 101.599 297.775L101.185 300.637C101.185 300.692 101.205 300.72 101.247 300.72H104.109ZM119.143 299.517C119.42 300.195 119.558 300.976 119.558 301.861C119.558 302.593 119.447 303.271 119.226 303.893C118.922 304.75 118.417 305.414 117.712 305.884C117.007 306.34 116.157 306.568 115.161 306.568C114.166 306.568 113.302 306.312 112.569 305.801C111.85 305.289 111.345 304.598 111.055 303.727C110.903 303.34 110.813 302.787 110.785 302.068C110.785 301.93 110.855 301.861 110.993 301.861H112.59C112.728 301.861 112.797 301.93 112.797 302.068C112.825 302.566 112.88 302.932 112.963 303.167C113.101 303.679 113.357 304.087 113.73 304.391C114.117 304.695 114.594 304.847 115.161 304.847C116.212 304.847 116.917 304.37 117.277 303.416C117.456 303.001 117.546 302.462 117.546 301.798C117.546 301.093 117.436 300.464 117.214 299.911C116.827 299.054 116.136 298.625 115.141 298.625C114.905 298.625 114.608 298.729 114.249 298.936C114.193 298.964 114.152 298.978 114.124 298.978C114.055 298.978 114 298.943 113.958 298.874L113.17 297.796C113.143 297.741 113.129 297.692 113.129 297.651C113.129 297.609 113.15 297.561 113.191 297.506L116.737 293.71C116.779 293.641 116.765 293.607 116.696 293.607H111.179C111.041 293.607 110.972 293.538 110.972 293.399V292.093C110.972 291.955 111.041 291.885 111.179 291.885H119.226C119.364 291.885 119.433 291.955 119.433 292.093V293.586C119.433 293.655 119.399 293.738 119.33 293.835L116.177 297.277C116.15 297.305 116.143 297.333 116.157 297.36C116.171 297.374 116.198 297.388 116.24 297.402C116.945 297.471 117.539 297.692 118.023 298.065C118.507 298.425 118.88 298.909 119.143 299.517ZM124.461 304.577C124.447 304.605 124.447 304.633 124.461 304.66C124.475 304.674 124.495 304.681 124.523 304.681H130.765C130.903 304.681 130.973 304.75 130.973 304.888V306.195C130.973 306.333 130.903 306.402 130.765 306.402H122.076C121.938 306.402 121.868 306.333 121.868 306.195V304.93C121.868 304.833 121.903 304.75 121.972 304.681C122.442 304.142 123.521 302.877 125.207 300.886L126.638 299.165C127.924 297.63 128.567 296.441 128.567 295.598C128.567 294.948 128.346 294.429 127.903 294.042C127.475 293.641 126.901 293.441 126.182 293.441C125.463 293.441 124.889 293.641 124.461 294.042C124.032 294.443 123.825 294.969 123.839 295.618V296.24C123.839 296.379 123.769 296.448 123.631 296.448H122.034C121.896 296.448 121.827 296.379 121.827 296.24V295.349C121.855 294.63 122.055 293.994 122.428 293.441C122.815 292.888 123.334 292.466 123.984 292.176C124.634 291.872 125.366 291.719 126.182 291.719C127.067 291.719 127.841 291.885 128.505 292.217C129.168 292.549 129.68 293.005 130.039 293.586C130.399 294.167 130.579 294.823 130.579 295.556C130.579 296.704 129.956 298.059 128.712 299.621C128.159 300.326 127.502 301.121 126.742 302.006C125.982 302.877 125.221 303.734 124.461 304.577ZM137.114 300.927C136.976 300.927 136.907 300.858 136.907 300.72V299.413C136.907 299.275 136.976 299.206 137.114 299.206H143.522C143.661 299.206 143.73 299.275 143.73 299.413V300.72C143.73 300.858 143.661 300.927 143.522 300.927H137.114ZM156.019 291.865C156.862 291.865 157.602 292.044 158.238 292.404C158.888 292.749 159.386 293.24 159.731 293.876C160.091 294.512 160.27 295.245 160.27 296.075C160.27 296.904 160.091 297.63 159.731 298.252C159.372 298.874 158.86 299.358 158.197 299.704C157.547 300.049 156.793 300.222 155.936 300.222H152.286C152.231 300.222 152.203 300.25 152.203 300.305V306.195C152.203 306.333 152.134 306.402 151.996 306.402H150.42C150.281 306.402 150.212 306.333 150.212 306.195V292.072C150.212 291.934 150.281 291.865 150.42 291.865H156.019ZM155.749 298.605C156.51 298.605 157.118 298.377 157.574 297.92C158.045 297.464 158.28 296.863 158.28 296.116C158.28 295.356 158.045 294.747 157.574 294.291C157.118 293.821 156.51 293.586 155.749 293.586H152.286C152.231 293.586 152.203 293.614 152.203 293.669V298.522C152.203 298.577 152.231 298.605 152.286 298.605H155.749ZM166.229 306.568C165.206 306.568 164.314 306.312 163.554 305.801C162.793 305.276 162.261 304.55 161.957 303.623C161.708 302.877 161.583 302.033 161.583 301.093C161.583 300.112 161.701 299.282 161.936 298.605C162.24 297.692 162.772 296.98 163.533 296.469C164.293 295.943 165.199 295.681 166.25 295.681C167.245 295.681 168.109 295.943 168.842 296.469C169.589 296.98 170.121 297.685 170.439 298.584C170.688 299.289 170.812 300.119 170.812 301.073C170.812 302.04 170.688 302.891 170.439 303.623C170.135 304.55 169.609 305.276 168.863 305.801C168.116 306.312 167.238 306.568 166.229 306.568ZM166.229 304.847C166.782 304.847 167.266 304.695 167.681 304.391C168.095 304.073 168.393 303.63 168.572 303.063C168.724 302.538 168.8 301.888 168.8 301.114C168.8 300.34 168.731 299.697 168.593 299.185C168.413 298.618 168.116 298.183 167.701 297.879C167.287 297.561 166.782 297.402 166.187 297.402C165.621 297.402 165.13 297.561 164.715 297.879C164.3 298.183 164.003 298.618 163.823 299.185C163.671 299.669 163.595 300.312 163.595 301.114C163.595 301.916 163.671 302.566 163.823 303.063C163.989 303.63 164.279 304.073 164.694 304.391C165.123 304.695 165.634 304.847 166.229 304.847ZM179.702 296.054C179.702 295.916 179.772 295.846 179.91 295.846H181.465C181.604 295.846 181.673 295.916 181.673 296.054V306.195C181.673 306.333 181.604 306.402 181.465 306.402H179.91C179.772 306.402 179.702 306.333 179.702 306.195V305.428C179.702 305.4 179.689 305.386 179.661 305.386C179.647 305.372 179.626 305.379 179.599 305.407C179.046 306.167 178.195 306.548 177.048 306.548C176.37 306.548 175.741 306.416 175.161 306.153C174.594 305.891 174.138 305.504 173.792 304.992C173.446 304.481 173.274 303.858 173.274 303.126V296.054C173.274 295.916 173.343 295.846 173.481 295.846H175.036C175.175 295.846 175.244 295.916 175.244 296.054V302.504C175.244 303.222 175.43 303.789 175.804 304.204C176.191 304.619 176.73 304.826 177.421 304.826C178.113 304.826 178.666 304.619 179.08 304.204C179.495 303.775 179.702 303.209 179.702 302.504V296.054ZM187.357 306.402C187.232 306.402 187.149 306.347 187.108 306.236L183.728 296.075L183.707 295.992C183.707 295.895 183.769 295.846 183.893 295.846H185.635C185.76 295.846 185.843 295.902 185.884 296.012L188.166 303.52C188.179 303.547 188.2 303.561 188.228 303.561C188.255 303.561 188.276 303.547 188.29 303.52L190.551 296.012C190.592 295.902 190.675 295.846 190.799 295.846L192.541 295.867C192.693 295.867 192.749 295.943 192.707 296.095L189.348 306.236C189.306 306.347 189.223 306.402 189.099 306.402H187.357ZM198.613 306.568C197.59 306.568 196.698 306.312 195.937 305.801C195.177 305.276 194.645 304.55 194.34 303.623C194.092 302.877 193.967 302.033 193.967 301.093C193.967 300.112 194.085 299.282 194.32 298.605C194.624 297.692 195.156 296.98 195.917 296.469C196.677 295.943 197.583 295.681 198.633 295.681C199.629 295.681 200.493 295.943 201.226 296.469C201.972 296.98 202.505 297.685 202.823 298.584C203.071 299.289 203.196 300.119 203.196 301.073C203.196 302.04 203.071 302.891 202.823 303.623C202.518 304.55 201.993 305.276 201.246 305.801C200.5 306.312 199.622 306.568 198.613 306.568ZM198.613 304.847C199.166 304.847 199.65 304.695 200.064 304.391C200.479 304.073 200.776 303.63 200.956 303.063C201.108 302.538 201.184 301.888 201.184 301.114C201.184 300.34 201.115 299.697 200.977 299.185C200.797 298.618 200.5 298.183 200.085 297.879C199.67 297.561 199.166 297.402 198.571 297.402C198.004 297.402 197.513 297.561 197.099 297.879C196.684 298.183 196.387 298.618 196.207 299.185C196.055 299.669 195.979 300.312 195.979 301.114C195.979 301.916 196.055 302.566 196.207 303.063C196.373 303.63 196.663 304.073 197.078 304.391C197.507 304.695 198.018 304.847 198.613 304.847ZM207.005 294.187C206.618 294.187 206.3 294.063 206.051 293.814C205.802 293.565 205.678 293.247 205.678 292.86C205.678 292.473 205.802 292.155 206.051 291.906C206.3 291.657 206.618 291.533 207.005 291.533C207.392 291.533 207.71 291.657 207.959 291.906C208.208 292.155 208.332 292.473 208.332 292.86C208.332 293.247 208.208 293.565 207.959 293.814C207.71 294.063 207.392 294.187 207.005 294.187ZM206.176 306.382C206.037 306.382 205.968 306.312 205.968 306.174V296.054C205.968 295.916 206.037 295.846 206.176 295.846H207.752C207.89 295.846 207.959 295.916 207.959 296.054V306.174C207.959 306.312 207.89 306.382 207.752 306.382H206.176ZM215.713 295.743C216.155 295.743 216.556 295.833 216.916 296.012C217.013 296.054 217.047 296.137 217.02 296.261L216.688 297.817C216.674 297.941 216.591 297.983 216.439 297.941C216.204 297.844 215.927 297.796 215.609 297.796L215.319 297.817C214.669 297.844 214.13 298.072 213.701 298.501C213.287 298.916 213.079 299.462 213.079 300.139V306.195C213.079 306.333 213.01 306.402 212.872 306.402H211.296C211.157 306.402 211.088 306.333 211.088 306.195V296.054C211.088 295.916 211.157 295.846 211.296 295.846H212.872C213.01 295.846 213.079 295.916 213.079 296.054V297.153C213.079 297.194 213.086 297.222 213.1 297.236C213.128 297.236 213.148 297.222 213.162 297.194C213.784 296.227 214.635 295.743 215.713 295.743ZM227.581 293.627C226.89 293.627 226.42 293.759 226.171 294.021C225.922 294.284 225.798 294.782 225.798 295.515V295.763C225.798 295.819 225.826 295.846 225.881 295.846H228.058C228.197 295.846 228.266 295.916 228.266 296.054V297.464C228.266 297.602 228.197 297.671 228.058 297.671H225.881C225.826 297.671 225.798 297.699 225.798 297.754V306.195C225.798 306.333 225.729 306.402 225.591 306.402H224.014C223.876 306.402 223.807 306.333 223.807 306.195V297.754C223.807 297.699 223.779 297.671 223.724 297.671H222.335C222.196 297.671 222.127 297.602 222.127 297.464V296.054C222.127 295.916 222.196 295.846 222.335 295.846H223.724C223.779 295.846 223.807 295.819 223.807 295.763V295.39C223.807 294.478 223.911 293.773 224.118 293.275C224.339 292.777 224.706 292.425 225.217 292.217C225.729 291.996 226.448 291.885 227.374 291.885H228.079C228.217 291.885 228.287 291.955 228.287 292.093V293.42C228.287 293.558 228.217 293.627 228.079 293.627H227.581ZM231.75 294.187C231.363 294.187 231.045 294.063 230.796 293.814C230.547 293.565 230.423 293.247 230.423 292.86C230.423 292.473 230.547 292.155 230.796 291.906C231.045 291.657 231.363 291.533 231.75 291.533C232.137 291.533 232.455 291.657 232.704 291.906C232.953 292.155 233.077 292.473 233.077 292.86C233.077 293.247 232.953 293.565 232.704 293.814C232.455 294.063 232.137 294.187 231.75 294.187ZM230.92 306.382C230.782 306.382 230.713 306.312 230.713 306.174V296.054C230.713 295.916 230.782 295.846 230.92 295.846H232.496C232.635 295.846 232.704 295.916 232.704 296.054V306.174C232.704 306.312 232.635 306.382 232.496 306.382H230.92ZM236.044 306.402C235.906 306.402 235.837 306.333 235.837 306.195V292.093C235.837 291.955 235.906 291.885 236.044 291.885H237.62C237.759 291.885 237.828 291.955 237.828 292.093V306.195C237.828 306.333 237.759 306.402 237.62 306.402H236.044ZM245.923 297.277C245.923 297.416 245.854 297.485 245.716 297.485H243.476C243.421 297.485 243.393 297.512 243.393 297.568V303.063C243.393 303.644 243.524 304.066 243.787 304.328C244.05 304.577 244.458 304.702 245.011 304.702H245.612C245.75 304.702 245.819 304.771 245.819 304.909V306.195C245.819 306.333 245.75 306.402 245.612 306.402C245.17 306.43 244.852 306.444 244.658 306.444C243.607 306.444 242.812 306.257 242.273 305.884C241.748 305.497 241.485 304.792 241.485 303.769V297.568C241.485 297.512 241.457 297.485 241.402 297.485H240.137C239.999 297.485 239.93 297.416 239.93 297.277V296.054C239.93 295.916 239.999 295.846 240.137 295.846H241.402C241.457 295.846 241.485 295.819 241.485 295.763V293.316C241.485 293.178 241.554 293.109 241.692 293.109H243.186C243.324 293.109 243.393 293.178 243.393 293.316V295.763C243.393 295.819 243.421 295.846 243.476 295.846H245.716C245.854 295.846 245.923 295.916 245.923 296.054V297.277ZM252.998 295.743C253.44 295.743 253.841 295.833 254.201 296.012C254.297 296.054 254.332 296.137 254.304 296.261L253.972 297.817C253.959 297.941 253.876 297.983 253.724 297.941C253.489 297.844 253.212 297.796 252.894 297.796L252.604 297.817C251.954 297.844 251.415 298.072 250.986 298.501C250.571 298.916 250.364 299.462 250.364 300.139V306.195C250.364 306.333 250.295 306.402 250.157 306.402H248.58C248.442 306.402 248.373 306.333 248.373 306.195V296.054C248.373 295.916 248.442 295.846 248.58 295.846H250.157C250.295 295.846 250.364 295.916 250.364 296.054V297.153C250.364 297.194 250.371 297.222 250.385 297.236C250.412 297.236 250.433 297.222 250.447 297.194C251.069 296.227 251.919 295.743 252.998 295.743ZM264.451 299.807C264.507 300.374 264.527 301.01 264.513 301.715C264.513 301.854 264.444 301.923 264.306 301.923H257.691C257.635 301.923 257.608 301.95 257.608 302.006C257.608 302.476 257.649 302.835 257.732 303.084C257.884 303.637 258.188 304.073 258.644 304.391C259.115 304.695 259.702 304.847 260.407 304.847C261.43 304.847 262.218 304.425 262.771 303.582C262.841 303.444 262.93 303.423 263.041 303.52L264.223 304.308C264.32 304.391 264.341 304.481 264.285 304.577C263.898 305.2 263.345 305.69 262.626 306.05C261.921 306.409 261.119 306.589 260.221 306.589C259.211 306.589 258.361 306.368 257.67 305.925C256.978 305.483 256.46 304.854 256.114 304.038C255.783 303.222 255.617 302.234 255.617 301.073C255.617 300.063 255.693 299.296 255.845 298.771C256.094 297.817 256.591 297.063 257.338 296.51C258.085 295.957 258.99 295.681 260.055 295.681C261.451 295.681 262.495 296.033 263.186 296.738C263.878 297.429 264.299 298.453 264.451 299.807ZM260.055 297.402C259.46 297.402 258.969 297.554 258.582 297.858C258.195 298.148 257.932 298.542 257.794 299.04C257.697 299.344 257.635 299.731 257.608 300.202C257.608 300.257 257.635 300.284 257.691 300.284H262.44C262.495 300.284 262.523 300.257 262.523 300.202C262.495 299.745 262.453 299.407 262.398 299.185C262.26 298.646 261.983 298.218 261.569 297.9C261.168 297.568 260.663 297.402 260.055 297.402ZM271.65 295.743C272.093 295.743 272.494 295.833 272.853 296.012C272.95 296.054 272.984 296.137 272.957 296.261L272.625 297.817C272.611 297.941 272.528 297.983 272.376 297.941C272.141 297.844 271.865 297.796 271.547 297.796L271.256 297.817C270.606 297.844 270.067 298.072 269.639 298.501C269.224 298.916 269.017 299.462 269.017 300.139V306.195C269.017 306.333 268.947 306.402 268.809 306.402H267.233C267.095 306.402 267.026 306.333 267.026 306.195V296.054C267.026 295.916 267.095 295.846 267.233 295.846H268.809C268.947 295.846 269.017 295.916 269.017 296.054V297.153C269.017 297.194 269.023 297.222 269.037 297.236C269.065 297.236 269.086 297.222 269.099 297.194C269.722 296.227 270.572 295.743 271.65 295.743ZM279.081 306.402C278.942 306.402 278.873 306.333 278.873 306.195V292.093C278.873 291.955 278.942 291.885 279.081 291.885H280.657C280.795 291.885 280.864 291.955 280.864 292.093V306.195C280.864 306.333 280.795 306.402 280.657 306.402H279.081ZM292.298 299.807C292.354 300.374 292.374 301.01 292.361 301.715C292.361 301.854 292.292 301.923 292.153 301.923H285.538C285.482 301.923 285.455 301.95 285.455 302.006C285.455 302.476 285.496 302.835 285.579 303.084C285.731 303.637 286.035 304.073 286.492 304.391C286.962 304.695 287.549 304.847 288.254 304.847C289.278 304.847 290.066 304.425 290.619 303.582C290.688 303.444 290.778 303.423 290.888 303.52L292.07 304.308C292.167 304.391 292.188 304.481 292.133 304.577C291.745 305.2 291.192 305.69 290.473 306.05C289.768 306.409 288.966 306.589 288.068 306.589C287.058 306.589 286.208 306.368 285.517 305.925C284.826 305.483 284.307 304.854 283.962 304.038C283.63 303.222 283.464 302.234 283.464 301.073C283.464 300.063 283.54 299.296 283.692 298.771C283.941 297.817 284.439 297.063 285.185 296.51C285.932 295.957 286.837 295.681 287.902 295.681C289.298 295.681 290.342 296.033 291.033 296.738C291.725 297.429 292.146 298.453 292.298 299.807ZM287.902 297.402C287.307 297.402 286.817 297.554 286.429 297.858C286.042 298.148 285.78 298.542 285.641 299.04C285.545 299.344 285.482 299.731 285.455 300.202C285.455 300.257 285.482 300.284 285.538 300.284H290.287C290.342 300.284 290.37 300.257 290.37 300.202C290.342 299.745 290.301 299.407 290.245 299.185C290.107 298.646 289.831 298.218 289.416 297.9C289.015 297.568 288.51 297.402 287.902 297.402ZM298.423 306.527C297.593 306.527 296.861 306.402 296.225 306.153C295.602 305.905 295.119 305.566 294.773 305.137C294.427 304.695 294.254 304.211 294.254 303.686V303.457C294.254 303.319 294.324 303.25 294.462 303.25H295.955C296.093 303.25 296.162 303.319 296.162 303.457V303.561C296.162 303.948 296.37 304.287 296.785 304.577C297.213 304.868 297.752 305.013 298.402 305.013C299.024 305.013 299.529 304.882 299.916 304.619C300.303 304.342 300.497 303.997 300.497 303.582C300.497 303.181 300.317 302.884 299.958 302.69C299.598 302.483 299.017 302.268 298.216 302.047C297.427 301.826 296.764 301.605 296.225 301.384C295.699 301.149 295.25 300.824 294.877 300.409C294.517 299.98 294.337 299.434 294.337 298.771C294.337 297.844 294.697 297.111 295.416 296.572C296.149 296.019 297.116 295.743 298.319 295.743C299.121 295.743 299.826 295.874 300.435 296.137C301.057 296.386 301.534 296.738 301.866 297.194C302.197 297.651 302.363 298.162 302.363 298.729V298.791C302.363 298.93 302.294 298.999 302.156 298.999H300.704C300.566 298.999 300.497 298.93 300.497 298.791V298.729C300.497 298.328 300.296 297.996 299.895 297.734C299.508 297.457 298.976 297.319 298.298 297.319C297.69 297.319 297.192 297.436 296.805 297.671C296.432 297.906 296.245 298.224 296.245 298.625C296.245 299.026 296.425 299.331 296.785 299.538C297.158 299.745 297.752 299.966 298.568 300.202C299.37 300.423 300.034 300.644 300.559 300.865C301.098 301.073 301.554 301.391 301.928 301.819C302.301 302.234 302.488 302.78 302.488 303.457C302.488 304.398 302.114 305.144 301.368 305.697C300.635 306.25 299.653 306.527 298.423 306.527ZM312.826 295.681C313.669 295.681 314.402 295.833 315.024 296.137C315.66 296.427 316.144 296.842 316.476 297.381C316.821 297.906 316.994 298.508 316.994 299.185V306.195C316.994 306.333 316.925 306.402 316.787 306.402H315.211C315.073 306.402 315.003 306.333 315.003 306.195V305.448C315.003 305.379 314.969 305.365 314.9 305.407C314.54 305.78 314.098 306.071 313.572 306.278C313.061 306.471 312.487 306.568 311.851 306.568C310.828 306.568 309.978 306.312 309.3 305.801C308.637 305.276 308.305 304.487 308.305 303.437C308.305 302.358 308.678 301.515 309.425 300.907C310.185 300.284 311.243 299.973 312.598 299.973H314.92C314.976 299.973 315.003 299.946 315.003 299.89V299.331C315.003 298.722 314.824 298.252 314.464 297.92C314.119 297.575 313.586 297.402 312.867 297.402C312.287 297.402 311.81 297.519 311.436 297.754C311.077 297.976 310.856 298.28 310.773 298.667C310.731 298.805 310.648 298.867 310.524 298.854L308.844 298.625C308.706 298.598 308.644 298.542 308.657 298.459C308.768 297.644 309.204 296.98 309.964 296.469C310.724 295.943 311.678 295.681 312.826 295.681ZM312.287 304.888C313.019 304.888 313.655 304.695 314.195 304.308C314.734 303.921 315.003 303.43 315.003 302.835V301.612C315.003 301.556 314.976 301.529 314.92 301.529H312.971C312.155 301.529 311.505 301.688 311.022 302.006C310.538 302.324 310.296 302.766 310.296 303.333C310.296 303.845 310.475 304.232 310.835 304.494C311.208 304.757 311.692 304.888 312.287 304.888ZM322.279 306.402C322.154 306.402 322.071 306.347 322.03 306.236L318.649 296.075L318.629 295.992C318.629 295.895 318.691 295.846 318.815 295.846H320.557C320.682 295.846 320.765 295.902 320.806 296.012L323.088 303.52C323.101 303.547 323.122 303.561 323.15 303.561C323.177 303.561 323.198 303.547 323.212 303.52L325.472 296.012C325.514 295.902 325.597 295.846 325.721 295.846L327.463 295.867C327.615 295.867 327.671 295.943 327.629 296.095L324.27 306.236C324.228 306.347 324.145 306.402 324.021 306.402H322.279ZM330.89 294.187C330.502 294.187 330.184 294.063 329.936 293.814C329.687 293.565 329.562 293.247 329.562 292.86C329.562 292.473 329.687 292.155 329.936 291.906C330.184 291.657 330.502 291.533 330.89 291.533C331.277 291.533 331.595 291.657 331.844 291.906C332.092 292.155 332.217 292.473 332.217 292.86C332.217 293.247 332.092 293.565 331.844 293.814C331.595 294.063 331.277 294.187 330.89 294.187ZM330.06 306.382C329.922 306.382 329.853 306.312 329.853 306.174V296.054C329.853 295.916 329.922 295.846 330.06 295.846H331.636C331.774 295.846 331.844 295.916 331.844 296.054V306.174C331.844 306.312 331.774 306.382 331.636 306.382H330.06ZM338.685 306.527C337.855 306.527 337.123 306.402 336.487 306.153C335.864 305.905 335.38 305.566 335.035 305.137C334.689 304.695 334.516 304.211 334.516 303.686V303.457C334.516 303.319 334.586 303.25 334.724 303.25H336.217C336.355 303.25 336.424 303.319 336.424 303.457V303.561C336.424 303.948 336.632 304.287 337.046 304.577C337.475 304.868 338.014 305.013 338.664 305.013C339.286 305.013 339.791 304.882 340.178 304.619C340.565 304.342 340.759 303.997 340.759 303.582C340.759 303.181 340.579 302.884 340.219 302.69C339.86 302.483 339.279 302.268 338.477 302.047C337.689 301.826 337.026 301.605 336.487 301.384C335.961 301.149 335.512 300.824 335.139 300.409C334.779 299.98 334.599 299.434 334.599 298.771C334.599 297.844 334.959 297.111 335.678 296.572C336.411 296.019 337.378 295.743 338.581 295.743C339.383 295.743 340.088 295.874 340.696 296.137C341.319 296.386 341.796 296.738 342.127 297.194C342.459 297.651 342.625 298.162 342.625 298.729V298.791C342.625 298.93 342.556 298.999 342.418 298.999H340.966C340.828 298.999 340.759 298.93 340.759 298.791V298.729C340.759 298.328 340.558 297.996 340.157 297.734C339.77 297.457 339.238 297.319 338.56 297.319C337.952 297.319 337.454 297.436 337.067 297.671C336.694 297.906 336.507 298.224 336.507 298.625C336.507 299.026 336.687 299.331 337.046 299.538C337.42 299.745 338.014 299.966 338.83 300.202C339.632 300.423 340.296 300.644 340.821 300.865C341.36 301.073 341.816 301.391 342.19 301.819C342.563 302.234 342.75 302.78 342.75 303.457C342.75 304.398 342.376 305.144 341.63 305.697C340.897 306.25 339.915 306.527 338.685 306.527ZM355.784 292.093C355.784 291.955 355.853 291.885 355.991 291.885H357.567C357.706 291.885 357.775 291.955 357.775 292.093V306.195C357.775 306.333 357.706 306.402 357.567 306.402H355.991C355.853 306.402 355.784 306.333 355.784 306.195V305.511C355.784 305.483 355.77 305.462 355.742 305.448C355.728 305.435 355.708 305.441 355.68 305.469C355.376 305.815 355.016 306.084 354.602 306.278C354.187 306.471 353.738 306.568 353.254 306.568C352.258 306.568 351.429 306.326 350.765 305.842C350.115 305.345 349.638 304.646 349.334 303.748C349.071 303.015 348.94 302.13 348.94 301.093C348.94 300.125 349.051 299.289 349.272 298.584C349.562 297.671 350.039 296.959 350.703 296.448C351.366 295.936 352.217 295.681 353.254 295.681C353.724 295.681 354.166 295.777 354.581 295.971C355.01 296.151 355.376 296.413 355.68 296.759C355.708 296.787 355.728 296.793 355.742 296.78C355.77 296.766 355.784 296.745 355.784 296.717V292.093ZM355.265 303.727C355.583 303.146 355.742 302.275 355.742 301.114C355.742 299.953 355.569 299.068 355.224 298.459C354.823 297.754 354.235 297.402 353.461 297.402C352.632 297.402 352.016 297.734 351.615 298.397C351.173 299.089 350.952 300.001 350.952 301.135C350.952 302.199 351.125 303.057 351.47 303.706C351.871 304.467 352.528 304.847 353.44 304.847C354.242 304.847 354.851 304.474 355.265 303.727ZM366.977 296.054C366.977 295.916 367.046 295.846 367.184 295.846H368.74C368.878 295.846 368.947 295.916 368.947 296.054V306.195C368.947 306.333 368.878 306.402 368.74 306.402H367.184C367.046 306.402 366.977 306.333 366.977 306.195V305.428C366.977 305.4 366.963 305.386 366.936 305.386C366.922 305.372 366.901 305.379 366.873 305.407C366.32 306.167 365.47 306.548 364.323 306.548C363.645 306.548 363.016 306.416 362.435 306.153C361.868 305.891 361.412 305.504 361.067 304.992C360.721 304.481 360.548 303.858 360.548 303.126V296.054C360.548 295.916 360.617 295.846 360.755 295.846H362.311C362.449 295.846 362.518 295.916 362.518 296.054V302.504C362.518 303.222 362.705 303.789 363.078 304.204C363.465 304.619 364.005 304.826 364.696 304.826C365.387 304.826 365.94 304.619 366.355 304.204C366.77 303.775 366.977 303.209 366.977 302.504V296.054ZM381.209 297.277C381.209 297.416 381.14 297.485 381.002 297.485H378.762C378.707 297.485 378.679 297.512 378.679 297.568V303.063C378.679 303.644 378.811 304.066 379.073 304.328C379.336 304.577 379.744 304.702 380.297 304.702H380.898C381.037 304.702 381.106 304.771 381.106 304.909V306.195C381.106 306.333 381.037 306.402 380.898 306.402C380.456 306.43 380.138 306.444 379.944 306.444C378.894 306.444 378.099 306.257 377.56 305.884C377.034 305.497 376.771 304.792 376.771 303.769V297.568C376.771 297.512 376.744 297.485 376.688 297.485H375.423C375.285 297.485 375.216 297.416 375.216 297.277V296.054C375.216 295.916 375.285 295.846 375.423 295.846H376.688C376.744 295.846 376.771 295.819 376.771 295.763V293.316C376.771 293.178 376.841 293.109 376.979 293.109H378.472C378.61 293.109 378.679 293.178 378.679 293.316V295.763C378.679 295.819 378.707 295.846 378.762 295.846H381.002C381.14 295.846 381.209 295.916 381.209 296.054V297.277ZM387.517 295.681C388.36 295.681 389.093 295.833 389.715 296.137C390.351 296.427 390.835 296.842 391.167 297.381C391.513 297.906 391.685 298.508 391.685 299.185V306.195C391.685 306.333 391.616 306.402 391.478 306.402H389.902C389.764 306.402 389.694 306.333 389.694 306.195V305.448C389.694 305.379 389.66 305.365 389.591 305.407C389.231 305.78 388.789 306.071 388.264 306.278C387.752 306.471 387.178 306.568 386.542 306.568C385.519 306.568 384.669 306.312 383.991 305.801C383.328 305.276 382.996 304.487 382.996 303.437C382.996 302.358 383.369 301.515 384.116 300.907C384.876 300.284 385.934 299.973 387.289 299.973H389.612C389.667 299.973 389.694 299.946 389.694 299.89V299.331C389.694 298.722 389.515 298.252 389.155 297.92C388.81 297.575 388.277 297.402 387.558 297.402C386.978 297.402 386.501 297.519 386.127 297.754C385.768 297.976 385.547 298.28 385.464 298.667C385.422 298.805 385.339 298.867 385.215 298.854L383.535 298.625C383.397 298.598 383.335 298.542 383.349 298.459C383.459 297.644 383.895 296.98 384.655 296.469C385.415 295.943 386.369 295.681 387.517 295.681ZM386.978 304.888C387.711 304.888 388.346 304.695 388.886 304.308C389.425 303.921 389.694 303.43 389.694 302.835V301.612C389.694 301.556 389.667 301.529 389.612 301.529H387.662C386.846 301.529 386.197 301.688 385.713 302.006C385.229 302.324 384.987 302.766 384.987 303.333C384.987 303.845 385.167 304.232 385.526 304.494C385.899 304.757 386.383 304.888 386.978 304.888ZM402.897 298.584C403.118 299.289 403.228 300.125 403.228 301.093C403.228 302.13 403.097 303.015 402.834 303.748C402.53 304.646 402.046 305.345 401.383 305.842C400.733 306.326 399.91 306.568 398.915 306.568C398.431 306.568 397.982 306.471 397.567 306.278C397.152 306.084 396.793 305.815 396.488 305.469C396.461 305.441 396.433 305.435 396.405 305.448C396.392 305.462 396.385 305.483 396.385 305.511V306.195C396.385 306.333 396.316 306.402 396.177 306.402H394.601C394.463 306.402 394.394 306.333 394.394 306.195V292.093C394.394 291.955 394.463 291.885 394.601 291.885H396.177C396.316 291.885 396.385 291.955 396.385 292.093V296.717C396.385 296.745 396.392 296.766 396.405 296.78C396.433 296.793 396.461 296.787 396.488 296.759C396.793 296.413 397.152 296.151 397.567 295.971C397.995 295.777 398.445 295.681 398.915 295.681C399.952 295.681 400.802 295.936 401.466 296.448C402.129 296.959 402.606 297.671 402.897 298.584ZM400.698 303.706C401.044 303.057 401.217 302.199 401.217 301.135C401.217 300.001 400.996 299.089 400.553 298.397C400.152 297.734 399.537 297.402 398.707 297.402C397.933 297.402 397.346 297.754 396.945 298.459C396.585 299.095 396.405 299.98 396.405 301.114C396.405 302.248 396.571 303.119 396.903 303.727C397.318 304.474 397.926 304.847 398.728 304.847C399.641 304.847 400.297 304.467 400.698 303.706ZM406.043 306.402C405.905 306.402 405.836 306.333 405.836 306.195V292.093C405.836 291.955 405.905 291.885 406.043 291.885H407.62C407.758 291.885 407.827 291.955 407.827 292.093V306.195C407.827 306.333 407.758 306.402 407.62 306.402H406.043ZM419.261 299.807C419.316 300.374 419.337 301.01 419.323 301.715C419.323 301.854 419.254 301.923 419.116 301.923H412.5C412.445 301.923 412.417 301.95 412.417 302.006C412.417 302.476 412.459 302.835 412.542 303.084C412.694 303.637 412.998 304.073 413.454 304.391C413.924 304.695 414.512 304.847 415.217 304.847C416.24 304.847 417.028 304.425 417.581 303.582C417.65 303.444 417.74 303.423 417.851 303.52L419.033 304.308C419.13 304.391 419.151 304.481 419.095 304.577C418.708 305.2 418.155 305.69 417.436 306.05C416.731 306.409 415.929 306.589 415.03 306.589C414.021 306.589 413.171 306.368 412.48 305.925C411.788 305.483 411.27 304.854 410.924 304.038C410.592 303.222 410.427 302.234 410.427 301.073C410.427 300.063 410.503 299.296 410.655 298.771C410.904 297.817 411.401 297.063 412.148 296.51C412.894 295.957 413.8 295.681 414.865 295.681C416.261 295.681 417.305 296.033 417.996 296.738C418.687 297.429 419.109 298.453 419.261 299.807ZM414.865 297.402C414.27 297.402 413.779 297.554 413.392 297.858C413.005 298.148 412.742 298.542 412.604 299.04C412.507 299.344 412.445 299.731 412.417 300.202C412.417 300.257 412.445 300.284 412.5 300.284H417.25C417.305 300.284 417.332 300.257 417.332 300.202C417.305 299.745 417.263 299.407 417.208 299.185C417.07 298.646 416.793 298.218 416.378 297.9C415.978 297.568 415.473 297.402 414.865 297.402ZM425.592 295.681C426.435 295.681 427.168 295.833 427.79 296.137C428.426 296.427 428.91 296.842 429.242 297.381C429.587 297.906 429.76 298.508 429.76 299.185V306.195C429.76 306.333 429.691 306.402 429.553 306.402H427.976C427.838 306.402 427.769 306.333 427.769 306.195V305.448C427.769 305.379 427.735 305.365 427.665 305.407C427.306 305.78 426.864 306.071 426.338 306.278C425.827 306.471 425.253 306.568 424.617 306.568C423.594 306.568 422.743 306.312 422.066 305.801C421.402 305.276 421.071 304.487 421.071 303.437C421.071 302.358 421.444 301.515 422.19 300.907C422.951 300.284 424.009 299.973 425.363 299.973H427.686C427.741 299.973 427.769 299.946 427.769 299.89V299.331C427.769 298.722 427.589 298.252 427.23 297.92C426.884 297.575 426.352 297.402 425.633 297.402C425.052 297.402 424.575 297.519 424.202 297.754C423.843 297.976 423.621 298.28 423.538 298.667C423.497 298.805 423.414 298.867 423.29 298.854L421.61 298.625C421.472 298.598 421.409 298.542 421.423 298.459C421.534 297.644 421.969 296.98 422.73 296.469C423.49 295.943 424.444 295.681 425.592 295.681ZM425.052 304.888C425.785 304.888 426.421 304.695 426.96 304.308C427.5 303.921 427.769 303.43 427.769 302.835V301.612C427.769 301.556 427.741 301.529 427.686 301.529H425.737C424.921 301.529 424.271 301.688 423.787 302.006C423.303 302.324 423.061 302.766 423.061 303.333C423.061 303.845 423.241 304.232 423.601 304.494C423.974 304.757 424.458 304.888 425.052 304.888ZM438.732 296.054C438.732 295.916 438.801 295.846 438.939 295.846H440.494C440.633 295.846 440.702 295.916 440.702 296.054V306.195C440.702 306.333 440.633 306.402 440.494 306.402H438.939C438.801 306.402 438.732 306.333 438.732 306.195V305.428C438.732 305.4 438.718 305.386 438.69 305.386C438.676 305.372 438.655 305.379 438.628 305.407C438.075 306.167 437.225 306.548 436.077 306.548C435.4 306.548 434.77 306.416 434.19 306.153C433.623 305.891 433.167 305.504 432.821 304.992C432.475 304.481 432.303 303.858 432.303 303.126V296.054C432.303 295.916 432.372 295.846 432.51 295.846H434.065C434.204 295.846 434.273 295.916 434.273 296.054V302.504C434.273 303.222 434.459 303.789 434.833 304.204C435.22 304.619 435.759 304.826 436.45 304.826C437.142 304.826 437.695 304.619 438.109 304.204C438.524 303.775 438.732 303.209 438.732 302.504V296.054Z" fill="white"/>
<g filter="url(#filter4_b_985_56288)">
<rect width="174" height="42" rx="5.76963" transform="matrix(1 0 0 -1 96 372.837)" fill="#BADCFF" fill-opacity="0.18"/>
<circle cx="115.5" cy="351.837" r="3.5" fill="white"/>
<path d="M148.757 347.334C148.757 347.472 148.688 347.541 148.549 347.541H141.208C141.153 347.541 141.125 347.569 141.125 347.624V352.083C141.125 352.138 141.153 352.166 141.208 352.166H146.247C146.386 352.166 146.455 352.235 146.455 352.373V353.68C146.455 353.818 146.386 353.887 146.247 353.887H141.208C141.153 353.887 141.125 353.915 141.125 353.97V360.13C141.125 360.268 141.056 360.337 140.918 360.337H139.342C139.203 360.337 139.134 360.268 139.134 360.13V346.027C139.134 345.889 139.203 345.82 139.342 345.82H148.549C148.688 345.82 148.757 345.889 148.757 346.027V347.334ZM154.872 349.677C155.314 349.677 155.715 349.767 156.074 349.947C156.171 349.988 156.206 350.071 156.178 350.196L155.846 351.751C155.833 351.876 155.75 351.917 155.597 351.876C155.362 351.779 155.086 351.73 154.768 351.73L154.478 351.751C153.828 351.779 153.289 352.007 152.86 352.436C152.445 352.85 152.238 353.396 152.238 354.074V360.13C152.238 360.268 152.169 360.337 152.03 360.337H150.454C150.316 360.337 150.247 360.268 150.247 360.13V349.988C150.247 349.85 150.316 349.781 150.454 349.781H152.03C152.169 349.781 152.238 349.85 152.238 349.988V351.088C152.238 351.129 152.245 351.157 152.259 351.17C152.286 351.17 152.307 351.157 152.321 351.129C152.943 350.161 153.793 349.677 154.872 349.677ZM162.094 360.503C161.071 360.503 160.18 360.247 159.419 359.735C158.659 359.21 158.126 358.484 157.822 357.558C157.573 356.811 157.449 355.968 157.449 355.028C157.449 354.046 157.567 353.217 157.802 352.539C158.106 351.627 158.638 350.915 159.398 350.403C160.159 349.878 161.064 349.615 162.115 349.615C163.111 349.615 163.975 349.878 164.708 350.403C165.454 350.915 165.986 351.62 166.304 352.518C166.553 353.224 166.678 354.053 166.678 355.007C166.678 355.975 166.553 356.825 166.304 357.558C166 358.484 165.475 359.21 164.728 359.735C163.982 360.247 163.104 360.503 162.094 360.503ZM162.094 358.782C162.647 358.782 163.131 358.629 163.546 358.325C163.961 358.007 164.258 357.565 164.438 356.998C164.59 356.473 164.666 355.823 164.666 355.049C164.666 354.274 164.597 353.631 164.459 353.12C164.279 352.553 163.982 352.118 163.567 351.813C163.152 351.495 162.647 351.336 162.053 351.336C161.486 351.336 160.995 351.495 160.581 351.813C160.166 352.118 159.869 352.553 159.689 353.12C159.537 353.604 159.461 354.247 159.461 355.049C159.461 355.85 159.537 356.5 159.689 356.998C159.855 357.565 160.145 358.007 160.56 358.325C160.988 358.629 161.5 358.782 162.094 358.782ZM173.992 349.636C175.126 349.636 176.024 349.968 176.688 350.631C177.352 351.281 177.683 352.166 177.683 353.286V360.13C177.683 360.268 177.614 360.337 177.476 360.337H175.9C175.762 360.337 175.692 360.268 175.692 360.13V353.68C175.692 352.989 175.492 352.429 175.091 352C174.69 351.571 174.158 351.357 173.494 351.357C172.844 351.357 172.312 351.571 171.897 352C171.483 352.429 171.275 352.982 171.275 353.659V360.13C171.275 360.268 171.206 360.337 171.068 360.337H169.492C169.353 360.337 169.284 360.268 169.284 360.13V349.988C169.284 349.85 169.353 349.781 169.492 349.781H171.068C171.206 349.781 171.275 349.85 171.275 349.988V350.735C171.275 350.763 171.282 350.783 171.296 350.797C171.324 350.811 171.344 350.804 171.358 350.776C171.953 350.016 172.831 349.636 173.992 349.636ZM185.73 351.212C185.73 351.35 185.661 351.419 185.522 351.419H183.283C183.227 351.419 183.2 351.447 183.2 351.502V356.998C183.2 357.579 183.331 358 183.594 358.263C183.856 358.512 184.264 358.636 184.817 358.636H185.419C185.557 358.636 185.626 358.705 185.626 358.844V360.13C185.626 360.268 185.557 360.337 185.419 360.337C184.976 360.365 184.658 360.378 184.465 360.378C183.414 360.378 182.619 360.192 182.08 359.818C181.554 359.431 181.292 358.726 181.292 357.703V351.502C181.292 351.447 181.264 351.419 181.209 351.419H179.944C179.805 351.419 179.736 351.35 179.736 351.212V349.988C179.736 349.85 179.805 349.781 179.944 349.781H181.209C181.264 349.781 181.292 349.753 181.292 349.698V347.251C181.292 347.113 181.361 347.044 181.499 347.044H182.992C183.131 347.044 183.2 347.113 183.2 347.251V349.698C183.2 349.753 183.227 349.781 183.283 349.781H185.522C185.661 349.781 185.73 349.85 185.73 349.988V351.212ZM187.418 354.862C187.28 354.862 187.211 354.793 187.211 354.655V353.348C187.211 353.21 187.28 353.141 187.418 353.141H193.827C193.965 353.141 194.034 353.21 194.034 353.348V354.655C194.034 354.793 193.965 354.862 193.827 354.862H187.418ZM206.133 347.334C206.133 347.472 206.063 347.541 205.925 347.541H198.563C198.508 347.541 198.48 347.569 198.48 347.624V352.083C198.48 352.138 198.508 352.166 198.563 352.166H203.623C203.761 352.166 203.831 352.235 203.831 352.373V353.68C203.831 353.818 203.761 353.887 203.623 353.887H198.563C198.508 353.887 198.48 353.915 198.48 353.97V358.533C198.48 358.588 198.508 358.616 198.563 358.616H205.925C206.063 358.616 206.133 358.685 206.133 358.823V360.13C206.133 360.268 206.063 360.337 205.925 360.337H196.697C196.558 360.337 196.489 360.268 196.489 360.13V346.027C196.489 345.889 196.558 345.82 196.697 345.82H205.925C206.063 345.82 206.133 345.889 206.133 346.027V347.334ZM213.342 349.636C214.476 349.636 215.375 349.968 216.038 350.631C216.702 351.281 217.034 352.166 217.034 353.286V360.13C217.034 360.268 216.965 360.337 216.827 360.337H215.25C215.112 360.337 215.043 360.268 215.043 360.13V353.68C215.043 352.989 214.843 352.429 214.442 352C214.041 351.571 213.508 351.357 212.845 351.357C212.195 351.357 211.663 351.571 211.248 352C210.833 352.429 210.626 352.982 210.626 353.659V360.13C210.626 360.268 210.557 360.337 210.418 360.337H208.842C208.704 360.337 208.635 360.268 208.635 360.13V349.988C208.635 349.85 208.704 349.781 208.842 349.781H210.418C210.557 349.781 210.626 349.85 210.626 349.988V350.735C210.626 350.763 210.633 350.783 210.646 350.797C210.674 350.811 210.695 350.804 210.709 350.776C211.303 350.016 212.181 349.636 213.342 349.636ZM226.307 346.027C226.307 345.889 226.376 345.82 226.514 345.82H228.09C228.229 345.82 228.298 345.889 228.298 346.027V360.13C228.298 360.268 228.229 360.337 228.09 360.337H226.514C226.376 360.337 226.307 360.268 226.307 360.13V359.445C226.307 359.418 226.293 359.397 226.265 359.383C226.251 359.369 226.231 359.376 226.203 359.404C225.899 359.749 225.539 360.019 225.125 360.212C224.71 360.406 224.261 360.503 223.777 360.503C222.781 360.503 221.952 360.261 221.288 359.777C220.638 359.279 220.161 358.581 219.857 357.682C219.594 356.95 219.463 356.065 219.463 355.028C219.463 354.06 219.574 353.224 219.795 352.518C220.085 351.606 220.562 350.894 221.226 350.382C221.889 349.871 222.74 349.615 223.777 349.615C224.247 349.615 224.689 349.712 225.104 349.905C225.533 350.085 225.899 350.348 226.203 350.693C226.231 350.721 226.251 350.728 226.265 350.714C226.293 350.7 226.307 350.68 226.307 350.652V346.027ZM225.788 357.662C226.106 357.081 226.265 356.21 226.265 355.049C226.265 353.887 226.092 353.002 225.747 352.394C225.346 351.689 224.758 351.336 223.984 351.336C223.155 351.336 222.539 351.668 222.138 352.332C221.696 353.023 221.475 353.936 221.475 355.069C221.475 356.134 221.648 356.991 221.993 357.641C222.394 358.401 223.051 358.782 223.963 358.782C224.765 358.782 225.374 358.408 225.788 357.662Z" fill="white"/>
</g>
</g>
</g>
</g>
<path d="M84.4448 79.9623C84.5088 79.9623 84.56 79.9879 84.5984 80.0391C84.6496 80.0775 84.6752 80.1287 84.6752 80.1927V82.0743C84.6752 82.1383 84.6496 82.1959 84.5984 82.2471C84.56 82.2855 84.5088 82.3047 84.4448 82.3047H81.008C80.944 82.3047 80.912 82.3367 80.912 82.4007V93.1719C80.912 93.2359 80.8864 93.2935 80.8352 93.3447C80.7968 93.3831 80.7456 93.4023 80.6816 93.4023H78.4352C78.3712 93.4023 78.3136 93.3831 78.2624 93.3447C78.224 93.2935 78.2048 93.2359 78.2048 93.1719V82.4007C78.2048 82.3367 78.1728 82.3047 78.1088 82.3047H74.768C74.704 82.3047 74.6464 82.2855 74.5952 82.2471C74.5568 82.1959 74.5376 82.1383 74.5376 82.0743V80.1927C74.5376 80.1287 74.5568 80.0775 74.5952 80.0391C74.6464 79.9879 74.704 79.9623 74.768 79.9623H84.4448ZM87.5764 82.4199C87.1412 82.4199 86.7764 82.2791 86.482 81.9975C86.2004 81.7031 86.0596 81.3383 86.0596 80.9031C86.0596 80.4551 86.2004 80.0903 86.482 79.8087C86.7636 79.5271 87.1284 79.3863 87.5764 79.3863C88.0244 79.3863 88.3892 79.5271 88.6708 79.8087C88.9524 80.0903 89.0932 80.4551 89.0932 80.9031C89.0932 81.3383 88.946 81.7031 88.6516 81.9975C88.37 82.2791 88.0116 82.4199 87.5764 82.4199ZM86.4244 93.4023C86.3604 93.4023 86.3028 93.3831 86.2516 93.3447C86.2132 93.2935 86.194 93.2359 86.194 93.1719V83.7447C86.194 83.6807 86.2132 83.6295 86.2516 83.5911C86.3028 83.5399 86.3604 83.5143 86.4244 83.5143H88.6708C88.7348 83.5143 88.786 83.5399 88.8244 83.5911C88.8756 83.6295 88.9012 83.6807 88.9012 83.7447V93.1719C88.9012 93.2359 88.8756 93.2935 88.8244 93.3447C88.786 93.3831 88.7348 93.4023 88.6708 93.4023H86.4244ZM95.3501 93.5559C94.3261 93.5559 93.4365 93.2999 92.6813 92.7879C91.9389 92.2759 91.4077 91.5719 91.0877 90.6759C90.8701 90.0359 90.7613 89.2807 90.7613 88.4103C90.7613 87.5527 90.8701 86.8103 91.0877 86.1831C91.3949 85.3127 91.9261 84.6279 92.6813 84.1287C93.4365 83.6295 94.3261 83.3799 95.3501 83.3799C96.3741 83.3799 97.2701 83.6359 98.0381 84.1479C98.8189 84.6599 99.3373 85.3063 99.5933 86.0871C99.6957 86.3943 99.7469 86.6247 99.7469 86.7783V86.8167C99.7469 86.9319 99.6829 87.0023 99.5549 87.0279L97.3469 87.3543H97.3085C97.1933 87.3543 97.1165 87.2903 97.0781 87.1623L97.0205 86.8551C96.9309 86.5223 96.7325 86.2471 96.4253 86.0295C96.1181 85.8119 95.7533 85.7031 95.3309 85.7031C94.9213 85.7031 94.5757 85.8055 94.2941 86.0103C94.0125 86.2151 93.8141 86.4967 93.6989 86.8551C93.5581 87.2391 93.4877 87.7639 93.4877 88.4295C93.4877 89.0951 93.5517 89.6199 93.6797 90.0039C93.7949 90.3879 93.9933 90.6887 94.2749 90.9063C94.5693 91.1239 94.9213 91.2327 95.3309 91.2327C95.7277 91.2327 96.0733 91.1303 96.3677 90.9255C96.6749 90.7079 96.8861 90.4135 97.0013 90.0423C97.0141 90.0167 97.0205 89.9783 97.0205 89.9271C97.0333 89.9143 97.0397 89.8951 97.0397 89.8695C97.0525 89.7159 97.1421 89.6519 97.3085 89.6775L99.5165 90.0231C99.6445 90.0487 99.7085 90.1191 99.7085 90.2343C99.7085 90.3367 99.6701 90.5287 99.5933 90.8103C99.3245 91.6679 98.7997 92.3399 98.0189 92.8263C97.2509 93.3127 96.3613 93.5559 95.3501 93.5559ZM101.554 93.4023C101.49 93.4023 101.432 93.3831 101.381 93.3447C101.343 93.2935 101.323 93.2359 101.323 93.1719V80.1927C101.323 80.1287 101.343 80.0775 101.381 80.0391C101.432 79.9879 101.49 79.9623 101.554 79.9623H103.8C103.864 79.9623 103.915 79.9879 103.954 80.0391C104.005 80.0775 104.031 80.1287 104.031 80.1927V86.6631C104.031 86.7015 104.043 86.7271 104.069 86.7399C104.095 86.7399 104.12 86.7271 104.146 86.7015L106.757 83.6679C106.847 83.5783 106.943 83.5335 107.045 83.5335H109.599C109.727 83.5335 109.791 83.5783 109.791 83.6679C109.791 83.7063 109.771 83.7575 109.733 83.8215L107.295 86.9127C107.269 86.9639 107.263 87.0087 107.275 87.0471L110.136 93.1335C110.162 93.1847 110.175 93.2231 110.175 93.2487C110.175 93.3511 110.104 93.4023 109.963 93.4023H107.602C107.474 93.4023 107.384 93.3447 107.333 93.2295L105.432 88.7367C105.419 88.7111 105.394 88.6983 105.355 88.6983C105.33 88.6855 105.311 88.6919 105.298 88.7175L104.069 90.2535C104.043 90.3047 104.031 90.3431 104.031 90.3687V93.1719C104.031 93.2359 104.005 93.2935 103.954 93.3447C103.915 93.3831 103.864 93.4023 103.8 93.4023H101.554ZM119.416 87.4503C119.492 87.9367 119.518 88.4807 119.492 89.0823C119.48 89.2359 119.396 89.3127 119.243 89.3127H113.31C113.233 89.3127 113.208 89.3447 113.233 89.4087C113.272 89.6647 113.342 89.9207 113.444 90.1767C113.777 90.8935 114.456 91.2519 115.48 91.2519C116.299 91.2391 116.945 90.9063 117.419 90.2535C117.47 90.1767 117.528 90.1383 117.592 90.1383C117.63 90.1383 117.675 90.1639 117.726 90.2151L119.108 91.5783C119.172 91.6423 119.204 91.6999 119.204 91.7511C119.204 91.7767 119.179 91.8279 119.128 91.9047C118.705 92.4295 118.161 92.8391 117.496 93.1335C116.83 93.4151 116.1 93.5559 115.307 93.5559C114.206 93.5559 113.272 93.3063 112.504 92.8071C111.748 92.3079 111.204 91.6103 110.872 90.7143C110.603 90.0743 110.468 89.2359 110.468 88.1991C110.468 87.4951 110.564 86.8743 110.756 86.3367C111.051 85.4279 111.563 84.7047 112.292 84.1671C113.035 83.6295 113.912 83.3607 114.923 83.3607C116.203 83.3607 117.227 83.7319 117.995 84.4743C118.776 85.2167 119.249 86.2087 119.416 87.4503ZM114.942 85.7031C114.136 85.7031 113.604 86.0807 113.348 86.8359C113.297 87.0023 113.252 87.2071 113.214 87.4503C113.214 87.5143 113.246 87.5463 113.31 87.5463H116.632C116.708 87.5463 116.734 87.5143 116.708 87.4503C116.644 87.0791 116.612 86.8999 116.612 86.9127C116.497 86.5287 116.292 86.2343 115.998 86.0295C115.716 85.8119 115.364 85.7031 114.942 85.7031ZM126.6 85.4727C126.6 85.5367 126.574 85.5943 126.523 85.6455C126.485 85.6839 126.434 85.7031 126.37 85.7031H124.526C124.462 85.7031 124.43 85.7351 124.43 85.7991V89.8695C124.43 90.2919 124.514 90.6055 124.68 90.8103C124.859 91.0151 125.141 91.1175 125.525 91.1175H126.158C126.222 91.1175 126.274 91.1431 126.312 91.1943C126.363 91.2327 126.389 91.2839 126.389 91.3479V93.1719C126.389 93.3127 126.312 93.3959 126.158 93.4215C125.621 93.4471 125.237 93.4599 125.006 93.4599C123.944 93.4599 123.15 93.2871 122.626 92.9415C122.101 92.5831 121.832 91.9175 121.819 90.9447V85.7991C121.819 85.7351 121.787 85.7031 121.723 85.7031H120.629C120.565 85.7031 120.507 85.6839 120.456 85.6455C120.418 85.5943 120.398 85.5367 120.398 85.4727V83.7639C120.398 83.6999 120.418 83.6487 120.456 83.6103C120.507 83.5591 120.565 83.5335 120.629 83.5335H121.723C121.787 83.5335 121.819 83.5015 121.819 83.4375V81.1527C121.819 81.0887 121.838 81.0375 121.877 80.9991C121.928 80.9479 121.986 80.9223 122.05 80.9223H124.2C124.264 80.9223 124.315 80.9479 124.354 80.9991C124.405 81.0375 124.43 81.0887 124.43 81.1527V83.4375C124.43 83.5015 124.462 83.5335 124.526 83.5335H126.37C126.434 83.5335 126.485 83.5591 126.523 83.6103C126.574 83.6487 126.6 83.6999 126.6 83.7639V85.4727ZM132.166 93.5367C131.308 93.5367 130.559 93.4151 129.919 93.1719C129.279 92.9287 128.78 92.5895 128.422 92.1543C128.076 91.7191 127.903 91.2263 127.903 90.6759V90.4839C127.903 90.4199 127.922 90.3687 127.961 90.3303C128.012 90.2791 128.07 90.2535 128.134 90.2535H130.265C130.329 90.2535 130.38 90.2791 130.418 90.3303C130.47 90.3687 130.495 90.4199 130.495 90.4839V90.5031C130.495 90.7847 130.649 91.0279 130.956 91.2327C131.276 91.4247 131.673 91.5207 132.146 91.5207C132.582 91.5207 132.934 91.4375 133.202 91.2711C133.471 91.0919 133.606 90.8743 133.606 90.6183C133.606 90.3879 133.49 90.2151 133.26 90.0999C133.03 89.9847 132.652 89.8631 132.127 89.7351C131.526 89.5815 131.052 89.4343 130.706 89.2935C129.887 89.0119 129.234 88.6663 128.748 88.2567C128.262 87.8471 128.018 87.2583 128.018 86.4903C128.018 85.5431 128.383 84.7943 129.113 84.2439C129.855 83.6807 130.834 83.3991 132.05 83.3991C132.87 83.3991 133.586 83.5335 134.201 83.8023C134.815 84.0583 135.289 84.4231 135.622 84.8967C135.967 85.3703 136.14 85.9079 136.14 86.5095C136.14 86.5735 136.114 86.6311 136.063 86.6823C136.025 86.7207 135.974 86.7399 135.91 86.7399H133.855C133.791 86.7399 133.734 86.7207 133.682 86.6823C133.644 86.6311 133.625 86.5735 133.625 86.5095C133.625 86.2279 133.478 85.9911 133.183 85.7991C132.902 85.6071 132.524 85.5111 132.05 85.5111C131.628 85.5111 131.282 85.5879 131.014 85.7415C130.745 85.8951 130.61 86.1063 130.61 86.3751C130.61 86.6311 130.738 86.8231 130.994 86.9511C131.263 87.0791 131.705 87.2135 132.319 87.3543C132.46 87.3927 132.62 87.4375 132.799 87.4887C132.978 87.5271 133.17 87.5783 133.375 87.6423C134.284 87.9111 135.001 88.2567 135.526 88.6791C136.05 89.1015 136.313 89.7159 136.313 90.5223C136.313 91.4695 135.935 92.2119 135.18 92.7495C134.438 93.2743 133.433 93.5367 132.166 93.5367Z" fill="white"/>
</g>
<defs>
<filter id="filter0_d_985_56288" x="38.3635" y="42.6472" width="426.08" height="324.21" filterUnits="userSpaceOnUse" color-interpolation-filters="sRGB">
<feFlood flood-opacity="0" result="BackgroundImageFix"/>
<feColorMatrix in="SourceAlpha" type="matrix" values="0 0 0 0 0 0 0 0 0 0 0 0 0 0 0 0 0 0 127 0" result="hardAlpha"/>
<feMorphology radius="44.2339" operator="erode" in="SourceAlpha" result="effect1_dropShadow_985_56288"/>
<feOffset dx="-3.84642" dy="-50.9651"/>
<feGaussianBlur stdDeviation="33.512"/>
<feComposite in2="hardAlpha" operator="out"/>
<feColorMatrix type="matrix" values="0 0 0 0 0 0 0 0 0 0 0 0 0 0 0 0 0 0 0.2 0"/>
<feBlend mode="normal" in2="BackgroundImageFix" result="effect1_dropShadow_985_56288"/>
<feBlend mode="normal" in="SourceGraphic" in2="effect1_dropShadow_985_56288" result="shape"/>
</filter>
<filter id="filter1_b_985_56288" x="62.6876" y="118.09" width="385.625" height="156.059" filterUnits="userSpaceOnUse" color-interpolation-filters="sRGB">
<feFlood flood-opacity="0" result="BackgroundImageFix"/>
<feGaussianBlur in="BackgroundImageFix" stdDeviation="8.65618"/>
<feComposite in2="SourceAlpha" operator="in" result="effect1_backgroundBlur_985_56288"/>
<feBlend mode="normal" in="SourceGraphic" in2="effect1_backgroundBlur_985_56288" result="shape"/>
</filter>
<filter id="filter2_b_985_56288" x="78.6876" y="181.525" width="220.058" height="76.6247" filterUnits="userSpaceOnUse" color-interpolation-filters="sRGB">
<feFlood flood-opacity="0" result="BackgroundImageFix"/>
<feGaussianBlur in="BackgroundImageFix" stdDeviation="8.65618"/>
<feComposite in2="SourceAlpha" operator="in" result="effect1_backgroundBlur_985_56288"/>
<feBlend mode="normal" in="SourceGraphic" in2="effect1_backgroundBlur_985_56288" result="shape"/>
</filter>
<filter id="filter3_b_985_56288" x="62.6876" y="250.09" width="395.326" height="156.059" filterUnits="userSpaceOnUse" color-interpolation-filters="sRGB">
<feFlood flood-opacity="0" result="BackgroundImageFix"/>
<feGaussianBlur in="BackgroundImageFix" stdDeviation="8.65618"/>
<feComposite in2="SourceAlpha" operator="in" result="effect1_backgroundBlur_985_56288"/>
<feBlend mode="normal" in="SourceGraphic" in2="effect1_backgroundBlur_985_56288" result="shape"/>
</filter>
<filter id="filter4_b_985_56288" x="78.6876" y="313.525" width="208.625" height="76.6247" filterUnits="userSpaceOnUse" color-interpolation-filters="sRGB">
<feFlood flood-opacity="0" result="BackgroundImageFix"/>
<feGaussianBlur in="BackgroundImageFix" stdDeviation="8.65618"/>
<feComposite in2="SourceAlpha" operator="in" result="effect1_backgroundBlur_985_56288"/>
<feBlend mode="normal" in="SourceGraphic" in2="effect1_backgroundBlur_985_56288" result="shape"/>
</filter>
<clipPath id="clip0_985_56288">
<rect width="402" height="350" fill="white"/>
</clipPath>
<clipPath id="clip1_985_56288">
<rect width="380.499" height="250.455" rx="14.4493" transform="matrix(1 0 0 -1 65 366.857)" fill="white"/>
</clipPath>
</defs>
</svg>
