<svg width="559" height="541" viewBox="0 0 559 541" fill="none" xmlns="http://www.w3.org/2000/svg">
<path d="M241.857 264.859V366.859" stroke="#007BFB" stroke-width="2" stroke-dasharray="102 102"/>
<path d="M233.857 264.859V295.859C233.857 309.193 227.191 315.859 213.857 315.859H100.857" stroke="url(#paint0_linear_3390_87866)" stroke-width="2" stroke-dasharray="176.46 176.46"/>
<rect x="109.357" y="187.359" width="77" height="77" rx="7.5" fill="#F6F9FC"/>
<rect x="109.357" y="187.359" width="77" height="77" rx="7.5" stroke="#C4CCD8"/>
<path d="M148.314 208.406C149.201 208.406 150.012 208.908 150.408 209.702L157.686 224.259L165.354 239.6C165.717 240.326 165.679 241.188 165.252 241.879C164.94 242.386 164.451 242.747 163.892 242.904L163.738 242.941C163.635 242.963 163.529 242.978 163.422 242.985L163.26 242.991L148.314 240.019L138.941 224.259L146.22 209.702C146.616 208.908 147.427 208.406 148.314 208.406Z" stroke="#C4CCD8"/>
<path d="M148.311 208.406C149.198 208.406 150.009 208.908 150.405 209.702L157.684 224.259L148.311 240.019L133.365 242.991C132.553 242.991 131.799 242.57 131.373 241.879C130.946 241.188 130.908 240.326 131.271 239.6L138.939 224.259L146.217 209.702C146.613 208.908 147.424 208.406 148.311 208.406Z" stroke="#C4CCD8"/>
<rect x="19.3574" y="97.3594" width="77" height="77" rx="7.5" fill="#F6F9FC"/>
<rect x="19.3574" y="97.3594" width="77" height="77" rx="7.5" stroke="#C4CCD8"/>
<path d="M63.1757 120.317C63.1757 119.111 62.1957 118.133 60.9868 118.133H42.3237C41.1148 118.133 40.1348 119.111 40.1348 120.317V146.965C40.1348 147.705 40.5097 148.394 41.131 148.797C41.7524 149.2 42.5358 149.261 43.2129 148.961L52.2422 144.953L61.876 140.672C62.6664 140.321 63.1757 139.539 63.1757 138.676V128.137V120.317Z" stroke="#C4CCD8"/>
<path d="M63.6179 152.701C70.2251 152.701 75.5814 147.344 75.5814 140.737C75.5814 134.13 70.2251 128.773 63.6179 128.773C57.0106 128.773 51.6543 134.13 51.6543 140.737C51.6543 147.344 57.0106 152.701 63.6179 152.701Z" stroke="#C4CCD8"/>
<rect x="379.357" y="97.3594" width="77" height="77" rx="7.5" fill="#F6F9FC"/>
<rect x="379.357" y="97.3594" width="77" height="77" rx="7.5" stroke="#C4CCD8"/>
<path d="M421.363 130.58L412.728 132.46L401.934 134.697C400.854 134.965 400.135 135.86 400.135 136.934V151.343C400.135 152.596 401.124 153.58 402.384 153.58H424.062V132.818C424.062 131.386 422.803 130.312 421.363 130.58Z" stroke="#C4CCD8"/>
<path d="M432.793 118.174L413.453 122.256C412.374 122.522 411.654 123.409 411.654 124.474V132.549V153.58H433.333C434.592 153.403 435.581 152.427 435.581 151.185V120.392C435.581 118.972 434.232 117.908 432.793 118.174Z" stroke="#C4CCD8"/>
<rect x="289.357" y="367.359" width="77" height="77" rx="7.5" fill="#F6F9FC"/>
<rect x="289.357" y="367.359" width="77" height="77" rx="7.5" stroke="#C4CCD8"/>
<path d="M338.082 391.68H320.625C319.879 391.679 319.183 392.061 318.778 392.693C318.372 393.325 318.312 394.121 318.618 394.808L323.138 404.96C323.394 405.531 323.394 406.186 323.138 406.757L317.225 420.038H338.082C338.947 420.037 339.732 419.523 340.086 418.726L345.391 406.766C345.647 406.189 345.647 405.531 345.391 404.955L340.086 392.991C339.732 392.194 338.947 391.681 338.082 391.68Z" stroke="#C4CCD8"/>
<path d="M316.54 420.039C316.277 420.039 316.016 419.99 315.771 419.891C315.287 419.678 314.839 419.24 314.619 418.753L310.327 408.99C310.023 408.303 310.083 407.507 310.484 406.875C310.886 406.242 311.576 405.86 312.316 405.859H329.603C330.452 405.86 331.222 406.367 331.57 407.155L335.819 416.769C335.993 417.169 336.318 417.896 336.424 418.126C336.516 418.316 336.631 418.493 336.766 418.654C337.199 419.227 337.831 419.809 338.518 419.997C338.493 419.99 338.257 420.039 338.035 420.039C337.849 420.039 337.773 420.036 337.725 420.036H337.676C337.66 420.036 337.644 420.037 337.622 420.039H316.54Z" stroke="#C4CCD8"/>
<rect x="289.357" y="187.359" width="77" height="77" rx="7.5" fill="#F6F9FC"/>
<rect x="289.357" y="187.359" width="77" height="77" rx="7.5" stroke="#C4CCD8"/>
<path d="M339.59 225.938C335.801 225.938 331.536 223.312 327.859 220.787C323.959 218.095 319.672 214.539 316.128 214.539C312.505 214.539 310.135 217.851 310.135 220.787C310.135 220.873 310.135 220.956 310.135 221.042C310.135 230.83 318.07 238.765 327.859 238.765C337.647 238.765 345.582 230.83 345.582 221.042C345.463 223.418 343.782 225.938 339.59 225.938Z" stroke="#C4CCD8"/>
<path d="M339.59 214.547C336.045 214.547 331.758 218.092 327.859 220.784C324.181 223.309 319.916 225.934 316.128 225.934C311.935 225.934 310.254 223.414 310.135 221.038C310.135 230.827 318.07 238.762 327.859 238.762C337.647 238.762 345.582 230.827 345.582 221.038C345.582 220.952 345.582 220.869 345.582 220.784C345.582 217.848 343.212 214.536 339.59 214.547Z" stroke="#C4CCD8"/>
<g filter="url(#filter0_dd_3390_87866)">
<g clip-path="url(#clip0_3390_87866)">
<rect x="13.8574" y="271.859" width="88" height="88" rx="8" fill="white"/>
<path opacity="0.2" d="M38.3574 289.905C38.3574 287.394 40.3473 285.359 42.8019 285.359H58.8019C61.2565 285.359 63.2463 287.394 63.2463 289.905V305.359C63.2463 307.87 61.2565 309.905 58.8019 309.905H42.8019C40.3473 309.905 38.3574 307.87 38.3574 305.359V289.905Z" fill="url(#paint1_linear_3390_87866)"/>
<path opacity="0.7" d="M45.4688 297.178C45.4688 294.668 47.4586 292.633 49.9132 292.633H65.9132C68.3678 292.633 70.3576 294.668 70.3576 297.178V312.633C70.3576 315.143 68.3678 317.178 65.9132 317.178H49.9132C47.4586 317.178 45.4688 315.143 45.4688 312.633V297.178Z" fill="url(#paint2_linear_3390_87866)"/>
<path d="M52.4688 304.358C52.4688 301.848 54.4586 299.812 56.9132 299.812H72.9132C75.3678 299.812 77.3576 301.848 77.3576 304.358V319.812C77.3576 322.323 75.3678 324.358 72.9132 324.358H56.9132C54.4586 324.358 52.4688 322.323 52.4688 319.812V304.358Z" fill="url(#paint3_linear_3390_87866)"/>
<path d="M22.9626 336.678H24.4607L27.0655 343.038H27.1614L29.7661 336.678H31.2643V344.859H30.0897V338.939H30.0138L27.6008 344.847H26.626L24.213 338.935H24.1371V344.859H22.9626V336.678ZM34.9489 344.995C34.5601 344.995 34.2085 344.923 33.8942 344.779C33.58 344.633 33.3309 344.421 33.1472 344.144C32.9661 343.867 32.8755 343.528 32.8755 343.126C32.8755 342.779 32.9421 342.494 33.0753 342.271C33.2084 342.047 33.3882 341.87 33.6146 341.739C33.841 341.609 34.094 341.51 34.3737 341.444C34.6533 341.377 34.9383 341.326 35.2286 341.292C35.5961 341.249 35.8944 341.215 36.1235 341.188C36.3525 341.159 36.519 341.112 36.6229 341.048C36.7267 340.984 36.7787 340.88 36.7787 340.737V340.709C36.7787 340.36 36.6801 340.089 36.483 339.898C36.2886 339.706 35.9983 339.61 35.6121 339.61C35.2099 339.61 34.893 339.699 34.6613 339.878C34.4322 340.053 34.2738 340.249 34.1859 340.465L33.0633 340.209C33.1964 339.836 33.3909 339.535 33.6466 339.306C33.9049 339.075 34.2019 338.907 34.5374 338.803C34.873 338.696 35.2259 338.643 35.5961 338.643C35.8412 338.643 36.1008 338.672 36.3752 338.731C36.6521 338.787 36.9105 338.891 37.1502 339.043C37.3926 339.194 37.591 339.411 37.7455 339.694C37.8999 339.973 37.9772 340.337 37.9772 340.784V344.859H36.8106V344.02H36.7627C36.6854 344.175 36.5696 344.327 36.4151 344.476C36.2606 344.625 36.0622 344.749 35.8199 344.847C35.5775 344.946 35.2872 344.995 34.9489 344.995ZM35.2086 344.036C35.5389 344.036 35.8212 343.971 36.0556 343.841C36.2926 343.71 36.4724 343.54 36.5949 343.329C36.7201 343.116 36.7827 342.888 36.7827 342.646V341.855C36.74 341.898 36.6575 341.938 36.535 341.975C36.4151 342.01 36.2779 342.04 36.1235 342.067C35.969 342.091 35.8185 342.113 35.672 342.135C35.5256 342.153 35.403 342.169 35.3045 342.183C35.0728 342.212 34.861 342.261 34.6693 342.331C34.4802 342.4 34.3284 342.5 34.2138 342.63C34.102 342.758 34.0461 342.928 34.0461 343.142C34.0461 343.437 34.1553 343.661 34.3737 343.813C34.592 343.962 34.8704 344.036 35.2086 344.036ZM39.7682 344.859V338.723H40.9627V344.859H39.7682ZM40.3714 337.776C40.1637 337.776 39.9852 337.707 39.8361 337.568C39.6896 337.427 39.6164 337.259 39.6164 337.065C39.6164 336.868 39.6896 336.7 39.8361 336.562C39.9852 336.421 40.1637 336.35 40.3714 336.35C40.5792 336.35 40.7563 336.421 40.9028 336.562C41.0519 336.7 41.1265 336.868 41.1265 337.065C41.1265 337.259 41.0519 337.427 40.9028 337.568C40.7563 337.707 40.5792 337.776 40.3714 337.776ZM43.9642 341.216V344.859H42.7697V338.723H43.9163V339.722H43.9922C44.1333 339.397 44.3544 339.136 44.6554 338.939C44.959 338.742 45.3412 338.643 45.8019 338.643C46.2201 338.643 46.5863 338.731 46.9006 338.907C47.2148 339.08 47.4585 339.338 47.6316 339.682C47.8048 340.025 47.8913 340.45 47.8913 340.956V344.859H46.6968V341.1C46.6968 340.655 46.581 340.308 46.3492 340.057C46.1175 339.804 45.7993 339.678 45.3944 339.678C45.1174 339.678 44.8711 339.738 44.6554 339.858C44.4423 339.977 44.2732 340.153 44.148 340.385C44.0255 340.614 43.9642 340.891 43.9642 341.216ZM52.5578 338.723V339.682H49.2059V338.723H52.5578ZM50.1048 337.253H51.2993V343.058C51.2993 343.289 51.334 343.464 51.4032 343.581C51.4725 343.695 51.5617 343.774 51.6709 343.817C51.7827 343.857 51.9039 343.877 52.0344 343.877C52.1303 343.877 52.2142 343.87 52.2861 343.857C52.358 343.843 52.4139 343.833 52.4539 343.825L52.6696 344.811C52.6004 344.838 52.5018 344.865 52.374 344.891C52.2462 344.921 52.0864 344.937 51.8946 344.939C51.5803 344.945 51.2873 344.889 51.0157 344.771C50.744 344.654 50.5243 344.473 50.3565 344.228C50.1887 343.983 50.1048 343.676 50.1048 343.305V337.253ZM56.6579 344.983C56.0533 344.983 55.5326 344.854 55.0959 344.596C54.6617 344.335 54.3261 343.968 54.0891 343.497C53.8547 343.023 53.7375 342.468 53.7375 341.831C53.7375 341.203 53.8547 340.649 54.0891 340.169C54.3261 339.69 54.6564 339.316 55.0799 339.047C55.506 338.778 56.0041 338.643 56.574 338.643C56.9203 338.643 57.2558 338.7 57.5808 338.815C57.9057 338.929 58.1973 339.109 58.4557 339.354C58.714 339.599 58.9178 339.918 59.0669 340.309C59.2161 340.698 59.2906 341.171 59.2906 341.727V342.151H54.4127V341.256H58.1201C58.1201 340.942 58.0562 340.663 57.9283 340.421C57.8005 340.176 57.6207 339.983 57.389 339.842C57.16 339.7 56.891 339.63 56.582 339.63C56.2464 339.63 55.9535 339.712 55.7031 339.878C55.4554 340.04 55.2636 340.253 55.1278 340.517C54.9947 340.778 54.9281 341.061 54.9281 341.368V342.067C54.9281 342.477 55 342.826 55.1438 343.114C55.2903 343.401 55.494 343.621 55.755 343.773C56.016 343.922 56.321 343.996 56.6699 343.996C56.8963 343.996 57.1027 343.964 57.2891 343.901C57.4756 343.834 57.6367 343.735 57.7725 343.605C57.9084 343.474 58.0122 343.313 58.0841 343.122L59.2147 343.325C59.1242 343.658 58.9617 343.95 58.7273 344.2C58.4956 344.448 58.204 344.641 57.8524 344.779C57.5035 344.915 57.1054 344.983 56.6579 344.983ZM62.0105 341.216V344.859H60.816V338.723H61.9626V339.722H62.0385C62.1796 339.397 62.4007 339.136 62.7016 338.939C63.0053 338.742 63.3875 338.643 63.8482 338.643C64.2664 338.643 64.6326 338.731 64.9468 338.907C65.2611 339.08 65.5048 339.338 65.6779 339.682C65.8511 340.025 65.9376 340.45 65.9376 340.956V344.859H64.7431V341.1C64.7431 340.655 64.6272 340.308 64.3955 340.057C64.1638 339.804 63.8456 339.678 63.4407 339.678C63.1637 339.678 62.9174 339.738 62.7016 339.858C62.4886 339.977 62.3195 340.153 62.1943 340.385C62.0718 340.614 62.0105 340.891 62.0105 341.216ZM69.5254 344.995C69.1366 344.995 68.785 344.923 68.4707 344.779C68.1564 344.633 67.9074 344.421 67.7236 344.144C67.5425 343.867 67.452 343.528 67.452 343.126C67.452 342.779 67.5186 342.494 67.6517 342.271C67.7849 342.047 67.9647 341.87 68.1911 341.739C68.4174 341.609 68.6705 341.51 68.9501 341.444C69.2298 341.377 69.5147 341.326 69.8051 341.292C70.1726 341.249 70.4709 341.215 70.6999 341.188C70.929 341.159 71.0954 341.112 71.1993 341.048C71.3032 340.984 71.3551 340.88 71.3551 340.737V340.709C71.3551 340.36 71.2566 340.089 71.0595 339.898C70.8651 339.706 70.5748 339.61 70.1886 339.61C69.7864 339.61 69.4695 339.699 69.2378 339.878C69.0087 340.053 68.8502 340.249 68.7624 340.465L67.6397 340.209C67.7729 339.836 67.9673 339.535 68.223 339.306C68.4814 339.075 68.7783 338.907 69.1139 338.803C69.4495 338.696 69.8024 338.643 70.1726 338.643C70.4176 338.643 70.6773 338.672 70.9516 338.731C71.2286 338.787 71.487 338.891 71.7267 339.043C71.969 339.194 72.1674 339.411 72.3219 339.694C72.4764 339.973 72.5536 340.337 72.5536 340.784V344.859H71.3871V344.02H71.3391C71.2619 344.175 71.1461 344.327 70.9916 344.476C70.8371 344.625 70.6387 344.749 70.3963 344.847C70.154 344.946 69.8636 344.995 69.5254 344.995ZM69.7851 344.036C70.1153 344.036 70.3976 343.971 70.632 343.841C70.8691 343.71 71.0488 343.54 71.1714 343.329C71.2965 343.116 71.3591 342.888 71.3591 342.646V341.855C71.3165 341.898 71.2339 341.938 71.1114 341.975C70.9916 342.01 70.8544 342.04 70.6999 342.067C70.5455 342.091 70.395 342.113 70.2485 342.135C70.102 342.153 69.9795 342.169 69.881 342.183C69.6492 342.212 69.4375 342.261 69.2457 342.331C69.0567 342.4 68.9048 342.5 68.7903 342.63C68.6785 342.758 68.6225 342.928 68.6225 343.142C68.6225 343.437 68.7317 343.661 68.9501 343.813C69.1685 343.962 69.4468 344.036 69.7851 344.036ZM75.5392 341.216V344.859H74.3446V338.723H75.4912V339.722H75.5671C75.7083 339.397 75.9293 339.136 76.2303 338.939C76.5339 338.742 76.9161 338.643 77.3769 338.643C77.795 338.643 78.1612 338.731 78.4755 338.907C78.7898 339.08 79.0335 339.338 79.2066 339.682C79.3797 340.025 79.4663 340.45 79.4663 340.956V344.859H78.2718V341.1C78.2718 340.655 78.1559 340.308 77.9242 340.057C77.6925 339.804 77.3742 339.678 76.9694 339.678C76.6924 339.678 76.446 339.738 76.2303 339.858C76.0172 339.977 75.8481 340.153 75.7229 340.385C75.6004 340.614 75.5392 340.891 75.5392 341.216ZM83.8531 344.983C83.2591 344.983 82.7478 344.849 82.319 344.58C81.8928 344.308 81.5652 343.934 81.3362 343.457C81.1072 342.98 80.9926 342.434 80.9926 341.819C80.9926 341.196 81.1098 340.646 81.3442 340.169C81.5786 339.69 81.9088 339.316 82.335 339.047C82.7611 338.778 83.2631 338.643 83.8411 338.643C84.3072 338.643 84.7227 338.73 85.0875 338.903C85.4524 339.073 85.7467 339.313 85.9704 339.622C86.1968 339.931 86.3313 340.292 86.3739 340.705H85.2114C85.1475 340.417 85.001 340.169 84.7719 339.961C84.5455 339.754 84.2419 339.65 83.8611 339.65C83.5281 339.65 83.2365 339.738 82.9861 339.914C82.7385 340.087 82.5454 340.334 82.4069 340.657C82.2684 340.976 82.1991 341.354 82.1991 341.791C82.1991 342.239 82.267 342.625 82.4029 342.95C82.5387 343.275 82.7305 343.526 82.9782 343.705C83.2285 343.883 83.5228 343.972 83.8611 343.972C84.0874 343.972 84.2925 343.931 84.4763 343.849C84.6627 343.763 84.8185 343.642 84.9437 343.485C85.0716 343.328 85.1608 343.139 85.2114 342.918H86.3739C86.3313 343.315 86.2021 343.669 85.9864 343.98C85.7707 344.292 85.4817 344.537 85.1195 344.716C84.7599 344.894 84.3378 344.983 83.8531 344.983ZM90.496 344.983C89.8915 344.983 89.3708 344.854 88.934 344.596C88.4999 344.335 88.1643 343.968 87.9272 343.497C87.6929 343.023 87.5757 342.468 87.5757 341.831C87.5757 341.203 87.6929 340.649 87.9272 340.169C88.1643 339.69 88.4945 339.316 88.918 339.047C89.3441 338.778 89.8422 338.643 90.4122 338.643C90.7584 338.643 91.094 338.7 91.4189 338.815C91.7438 338.929 92.0355 339.109 92.2938 339.354C92.5522 339.599 92.7559 339.918 92.9051 340.309C93.0542 340.698 93.1288 341.171 93.1288 341.727V342.151H88.2508V341.256H91.9582C91.9582 340.942 91.8943 340.663 91.7665 340.421C91.6386 340.176 91.4589 339.983 91.2271 339.842C90.9981 339.7 90.7291 339.63 90.4201 339.63C90.0846 339.63 89.7916 339.712 89.5412 339.878C89.2935 340.04 89.1018 340.253 88.966 340.517C88.8328 340.778 88.7662 341.061 88.7662 341.368V342.067C88.7662 342.477 88.8381 342.826 88.9819 343.114C89.1284 343.401 89.3322 343.621 89.5932 343.773C89.8542 343.922 90.1591 343.996 90.508 343.996C90.7344 343.996 90.9408 343.964 91.1273 343.901C91.3137 343.834 91.4748 343.735 91.6107 343.605C91.7465 343.474 91.8504 343.313 91.9223 343.122L93.0529 343.325C92.9623 343.658 92.7998 343.95 92.5655 344.2C92.3338 344.448 92.0421 344.641 91.6906 344.779C91.3417 344.915 90.9435 344.983 90.496 344.983Z" fill="#2E3A55"/>
</g>
</g>
<rect x="469.357" y="457.359" width="77" height="77" rx="7.5" fill="#F6F9FC"/>
<rect x="469.357" y="457.359" width="77" height="77" rx="7.5" stroke="#C4CCD8"/>
<path d="M493.035 485.576C492.337 485.979 491.906 486.725 491.906 487.531V500.032C491.906 500.839 492.337 501.584 493.035 501.987L503.86 508.237C504.559 508.641 505.42 508.641 506.118 508.237L516.944 501.987C517.642 501.584 518.073 500.839 518.073 500.032V487.531C518.073 486.725 517.642 485.979 516.944 485.576L506.118 479.326C505.42 478.923 504.559 478.923 503.86 479.326L493.035 485.576Z" stroke="#C4CCD8"/>
<path d="M503.492 494.819C502.792 495.223 502.361 495.968 502.361 496.776V506.071C502.361 506.878 502.792 507.624 503.492 508.027L511.566 512.678C512.265 513.08 513.125 513.08 513.823 512.676L521.87 508.027C522.568 507.624 522.998 506.879 522.998 506.072V496.774C522.998 495.968 522.568 495.222 521.87 494.819L513.823 490.17C513.125 489.767 512.265 489.766 511.566 490.169L503.492 494.819Z" stroke="#C4CCD8"/>
<rect x="109.357" y="457.359" width="77" height="77" rx="7.5" fill="#F6F9FC"/>
<rect x="109.357" y="457.359" width="77" height="77" rx="7.5" stroke="#C4CCD8"/>
<path d="M142.461 483.397C142.766 481.962 144.205 480.797 145.672 480.797H163.384C164.852 480.797 165.795 481.962 165.49 483.397L160.007 509.194C159.804 510.151 158.844 510.927 157.866 510.927H136.629L142.461 483.397Z" stroke="#C4CCD8"/>
<path d="M130.225 497.577C129.92 496.142 130.864 494.977 132.331 494.977H150.043C151.511 494.977 152.95 496.142 153.255 497.577L155.724 509.194C155.927 510.151 156.887 510.928 157.865 510.928H134.835C133.857 510.928 132.898 510.151 132.695 509.194L130.225 497.577Z" stroke="#C4CCD8"/>
<rect x="289.357" y="97.3594" width="77" height="77" rx="7.5" fill="#F6F9FC"/>
<rect x="289.357" y="97.3594" width="77" height="77" rx="7.5" stroke="#C4CCD8"/>
<path d="M321.213 119.023C319.989 119.023 318.997 120.015 318.997 121.239V150.334C318.997 151.336 318.324 152.173 317.355 152.433L342.169 145.822C343.137 145.562 343.811 144.685 343.811 143.682V121.239C343.811 120.015 342.819 119.023 341.595 119.023H321.213Z" stroke="#C4CCD8"/>
<path d="M311.247 139.887C310.187 140.499 309.824 141.854 310.436 142.913L315.289 151.32C315.791 152.188 316.813 152.612 317.782 152.352L340.953 146.143L331.925 130.507C331.313 129.447 329.958 129.084 328.898 129.696L311.247 139.887Z" stroke="#C4CCD8"/>
<rect x="379.357" y="367.359" width="77" height="77" rx="7.5" fill="#F6F9FC"/>
<rect x="379.357" y="367.359" width="77" height="77" rx="7.5" stroke="#C4CCD8"/>
<path d="M428.062 397.033L420.53 420.037L420.511 420.123L420.488 420.209L420.46 420.291C420.453 420.316 420.444 420.34 420.435 420.364L420.375 420.507L420.306 420.646L420.284 420.686L420.206 420.816L420.119 420.939L420.091 420.976L419.994 421.092L419.89 421.202L419.865 421.221C419.792 421.293 419.713 421.359 419.63 421.419L419.494 421.505L419.351 421.579L419.323 421.596L419.185 421.658L419.044 421.712H419.002L418.855 421.754C418.83 421.759 418.813 421.73 418.83 421.71L418.857 421.678C419.214 421.222 419.379 420.642 419.312 420.063C419.246 419.478 418.927 419.1 418.466 418.762L418.338 418.67L408.922 411.822L408.801 411.727C408.758 411.691 408.716 411.653 408.677 411.615C408.668 411.606 408.659 411.597 408.65 411.588C408.622 411.56 408.596 411.532 408.57 411.503L408.535 411.463C408.515 411.439 408.495 411.414 408.475 411.389C408.461 411.371 408.446 411.351 408.432 411.332L408.408 411.298L408.385 411.264C408.372 411.245 408.359 411.225 408.347 411.205C408.332 411.181 408.318 411.158 408.304 411.134C408.295 411.118 408.286 411.101 408.277 411.085C408.26 411.055 408.245 411.024 408.23 410.993L408.207 410.944C408.195 410.917 408.183 410.89 408.172 410.863C408.165 410.844 408.157 410.826 408.151 410.807C408.138 410.775 408.127 410.741 408.116 410.708C408.111 410.693 408.107 410.679 408.103 410.665C408.094 410.635 408.085 410.603 408.077 410.572L408.063 410.513C408.057 410.486 408.052 410.458 408.046 410.431L408.036 410.367C408.023 410.285 408.015 410.201 408.012 410.118C408.009 410.052 408.009 409.985 408.013 409.918C408.018 409.815 408.03 409.716 408.048 409.618C408.054 409.59 408.059 409.562 408.066 409.534C408.071 409.513 408.076 409.492 408.081 409.471L408.102 409.396C408.11 409.371 408.118 409.345 408.127 409.319L408.133 409.302C408.164 409.081 408.228 408.861 408.327 408.651L408.407 408.496L414.858 396.997M428.062 397.033L428.066 397.03C428.364 396.114 428.036 395.11 427.254 394.546L421.439 390.362C420.93 389.996 420.291 389.863 419.679 389.995L419.514 390.037C418.972 390.198 418.51 390.561 418.226 391.054L414.854 396.997M428.062 397.033L428.076 396.997" stroke="#C4CCD8"/>
<path d="M432.479 397H403.235C402.011 397 401.02 397.992 401.02 399.215V419.598C401.02 420.821 402.011 421.813 403.235 421.813H432.479C433.703 421.813 434.695 420.821 434.695 419.598V399.215C434.695 397.992 433.703 397 432.479 397Z" stroke="#C4CCD8"/>
<g filter="url(#filter1_dd_3390_87866)">
<g clip-path="url(#clip1_3390_87866)">
<rect x="193.857" y="181.859" width="88" height="88" rx="8" fill="white"/>
<path opacity="0.2" d="M235.332 211.234C236.711 210.188 238.601 210.123 240.049 211.071L250.104 217.658C252.476 219.212 252.589 222.648 250.323 224.353L239.369 232.602C237.871 233.729 235.799 233.696 234.339 232.52L225.287 225.235C223.213 223.566 223.259 220.392 225.38 218.784L235.332 211.234Z" fill="url(#paint4_linear_3390_87866)"/>
<path opacity="0.7" d="M235.332 205.5C236.711 204.453 238.601 204.388 240.049 205.337L250.104 211.924C252.476 213.477 252.589 216.914 250.323 218.619L239.369 226.867C237.871 227.995 235.799 227.961 234.339 226.786L225.287 219.5C223.213 217.831 223.259 214.658 225.38 213.049L235.332 205.5Z" fill="url(#paint5_linear_3390_87866)"/>
<path d="M235.332 197.828C236.711 196.781 238.601 196.716 240.049 197.665L250.104 204.252C252.476 205.805 252.589 209.242 250.323 210.947L239.369 219.195C237.871 220.323 235.799 220.289 234.339 219.114L225.287 211.829C223.213 210.159 223.259 206.986 225.38 205.377L235.332 197.828Z" fill="url(#paint6_linear_3390_87866)"/>
<path d="M221.918 249.338H220.671C220.623 249.072 220.534 248.838 220.404 248.635C220.273 248.433 220.113 248.261 219.924 248.12C219.735 247.979 219.524 247.872 219.289 247.8C219.057 247.728 218.811 247.692 218.55 247.692C218.079 247.692 217.657 247.811 217.284 248.048C216.913 248.285 216.62 248.632 216.405 249.091C216.192 249.549 216.085 250.108 216.085 250.768C216.085 251.434 216.192 251.996 216.405 252.454C216.62 252.912 216.915 253.259 217.288 253.493C217.661 253.727 218.08 253.845 218.546 253.845C218.804 253.845 219.049 253.81 219.281 253.741C219.516 253.669 219.727 253.564 219.916 253.425C220.105 253.287 220.265 253.118 220.396 252.918C220.529 252.715 220.621 252.484 220.671 252.223L221.918 252.227C221.851 252.629 221.722 252.999 221.53 253.337C221.341 253.673 221.098 253.963 220.799 254.208C220.504 254.451 220.165 254.638 219.785 254.771C219.404 254.905 218.988 254.971 218.538 254.971C217.83 254.971 217.198 254.803 216.644 254.468C216.09 254.13 215.654 253.646 215.334 253.018C215.017 252.389 214.859 251.639 214.859 250.768C214.859 249.895 215.018 249.145 215.338 248.519C215.658 247.891 216.094 247.409 216.648 247.073C217.202 246.735 217.832 246.566 218.538 246.566C218.972 246.566 219.377 246.628 219.753 246.753C220.131 246.876 220.47 247.057 220.771 247.297C221.072 247.534 221.321 247.824 221.518 248.168C221.715 248.509 221.849 248.899 221.918 249.338ZM223.499 254.859V248.723H224.654V249.698H224.718C224.83 249.368 225.027 249.108 225.309 248.919C225.594 248.727 225.916 248.631 226.276 248.631C226.35 248.631 226.438 248.634 226.539 248.639C226.643 248.644 226.724 248.651 226.783 248.659V249.802C226.735 249.788 226.65 249.774 226.527 249.758C226.405 249.739 226.282 249.73 226.16 249.73C225.878 249.73 225.626 249.79 225.405 249.91C225.186 250.027 225.013 250.191 224.885 250.401C224.758 250.609 224.694 250.846 224.694 251.112V254.859H223.499ZM230.442 254.983C229.837 254.983 229.317 254.854 228.88 254.596C228.446 254.335 228.11 253.968 227.873 253.497C227.639 253.023 227.521 252.468 227.521 251.831C227.521 251.203 227.639 250.649 227.873 250.169C228.11 249.69 228.44 249.316 228.864 249.047C229.29 248.778 229.788 248.643 230.358 248.643C230.704 248.643 231.04 248.7 231.365 248.815C231.69 248.929 231.981 249.109 232.24 249.354C232.498 249.599 232.702 249.918 232.851 250.309C233 250.698 233.074 251.171 233.074 251.727V252.151H228.197V251.256H231.904C231.904 250.942 231.84 250.663 231.712 250.421C231.584 250.176 231.405 249.983 231.173 249.842C230.944 249.7 230.675 249.63 230.366 249.63C230.03 249.63 229.737 249.712 229.487 249.878C229.239 250.04 229.048 250.253 228.912 250.517C228.779 250.778 228.712 251.061 228.712 251.368V252.067C228.712 252.477 228.784 252.826 228.928 253.114C229.074 253.401 229.278 253.621 229.539 253.773C229.8 253.922 230.105 253.996 230.454 253.996C230.68 253.996 230.887 253.964 231.073 253.901C231.259 253.834 231.421 253.735 231.556 253.605C231.692 253.474 231.796 253.313 231.868 253.122L232.999 253.325C232.908 253.658 232.746 253.95 232.511 254.2C232.279 254.448 231.988 254.641 231.636 254.779C231.287 254.915 230.889 254.983 230.442 254.983ZM229.819 247.904L230.753 246.062H232.012L230.773 247.904H229.819ZM236.386 254.995C235.997 254.995 235.645 254.923 235.331 254.779C235.017 254.633 234.768 254.421 234.584 254.144C234.403 253.867 234.312 253.528 234.312 253.126C234.312 252.779 234.379 252.494 234.512 252.271C234.645 252.047 234.825 251.87 235.051 251.739C235.278 251.609 235.531 251.51 235.81 251.444C236.09 251.377 236.375 251.326 236.665 251.292C237.033 251.249 237.331 251.215 237.56 251.188C237.789 251.159 237.956 251.112 238.06 251.048C238.163 250.984 238.215 250.88 238.215 250.737V250.709C238.215 250.36 238.117 250.089 237.92 249.898C237.725 249.706 237.435 249.61 237.049 249.61C236.647 249.61 236.33 249.699 236.098 249.878C235.869 250.053 235.71 250.249 235.623 250.465L234.5 250.209C234.633 249.836 234.828 249.535 235.083 249.306C235.342 249.075 235.639 248.907 235.974 248.803C236.31 248.696 236.663 248.643 237.033 248.643C237.278 248.643 237.538 248.672 237.812 248.731C238.089 248.787 238.347 248.891 238.587 249.043C238.829 249.194 239.028 249.411 239.182 249.694C239.337 249.973 239.414 250.337 239.414 250.784V254.859H238.247V254.02H238.199C238.122 254.175 238.006 254.327 237.852 254.476C237.697 254.625 237.499 254.749 237.257 254.847C237.014 254.946 236.724 254.995 236.386 254.995ZM236.645 254.036C236.976 254.036 237.258 253.971 237.492 253.841C237.729 253.71 237.909 253.54 238.032 253.329C238.157 253.116 238.219 252.888 238.219 252.646V251.855C238.177 251.898 238.094 251.938 237.972 251.975C237.852 252.01 237.715 252.04 237.56 252.067C237.406 252.091 237.255 252.113 237.109 252.135C236.962 252.153 236.84 252.169 236.741 252.183C236.509 252.212 236.298 252.261 236.106 252.331C235.917 252.4 235.765 252.5 235.651 252.63C235.539 252.758 235.483 252.928 235.483 253.142C235.483 253.437 235.592 253.661 235.81 253.813C236.029 253.962 236.307 254.036 236.645 254.036ZM244.069 248.723V249.682H240.717V248.723H244.069ZM241.616 247.253H242.811V253.058C242.811 253.289 242.846 253.464 242.915 253.581C242.984 253.695 243.073 253.774 243.182 253.817C243.294 253.857 243.415 253.877 243.546 253.877C243.642 253.877 243.726 253.87 243.798 253.857C243.87 253.843 243.925 253.833 243.965 253.825L244.181 254.811C244.112 254.838 244.013 254.865 243.886 254.891C243.758 254.921 243.598 254.937 243.406 254.939C243.092 254.945 242.799 254.889 242.527 254.771C242.256 254.654 242.036 254.473 241.868 254.228C241.7 253.983 241.616 253.676 241.616 253.305V247.253ZM245.591 254.859V248.723H246.785V254.859H245.591ZM246.194 247.776C245.986 247.776 245.808 247.707 245.659 247.568C245.512 247.427 245.439 247.259 245.439 247.065C245.439 246.868 245.512 246.7 245.659 246.562C245.808 246.421 245.986 246.35 246.194 246.35C246.402 246.35 246.579 246.421 246.725 246.562C246.874 246.7 246.949 246.868 246.949 247.065C246.949 247.259 246.874 247.427 246.725 247.568C246.579 247.707 246.402 247.776 246.194 247.776ZM251.177 254.983C250.602 254.983 250.1 254.851 249.671 254.588C249.242 254.324 248.909 253.955 248.672 253.481C248.435 253.007 248.317 252.453 248.317 251.819C248.317 251.183 248.435 250.626 248.672 250.149C248.909 249.672 249.242 249.302 249.671 249.039C250.1 248.775 250.602 248.643 251.177 248.643C251.752 248.643 252.254 248.775 252.683 249.039C253.112 249.302 253.445 249.672 253.682 250.149C253.919 250.626 254.037 251.183 254.037 251.819C254.037 252.453 253.919 253.007 253.682 253.481C253.445 253.955 253.112 254.324 252.683 254.588C252.254 254.851 251.752 254.983 251.177 254.983ZM251.181 253.98C251.554 253.98 251.863 253.882 252.108 253.685C252.353 253.488 252.534 253.225 252.651 252.898C252.771 252.57 252.831 252.209 252.831 251.815C252.831 251.424 252.771 251.064 252.651 250.737C252.534 250.406 252.353 250.141 252.108 249.941C251.863 249.742 251.554 249.642 251.181 249.642C250.805 249.642 250.494 249.742 250.246 249.941C250.001 250.141 249.819 250.406 249.699 250.737C249.582 251.064 249.523 251.424 249.523 251.815C249.523 252.209 249.582 252.57 249.699 252.898C249.819 253.225 250.001 253.488 250.246 253.685C250.494 253.882 250.805 253.98 251.181 253.98ZM256.765 251.216V254.859H255.571V248.723H256.717V249.722H256.793C256.934 249.397 257.155 249.136 257.456 248.939C257.76 248.742 258.142 248.643 258.603 248.643C259.021 248.643 259.387 248.731 259.702 248.907C260.016 249.08 260.26 249.338 260.433 249.682C260.606 250.025 260.692 250.45 260.692 250.956V254.859H259.498V251.1C259.498 250.655 259.382 250.308 259.15 250.057C258.919 249.804 258.6 249.678 258.195 249.678C257.918 249.678 257.672 249.738 257.456 249.858C257.243 249.977 257.074 250.153 256.949 250.385C256.827 250.614 256.765 250.891 256.765 251.216Z" fill="#2E3A55"/>
</g>
</g>
<rect x="289.357" y="277.359" width="77" height="77" rx="7.5" fill="#F6F9FC"/>
<rect x="289.357" y="277.359" width="77" height="77" rx="7.5" stroke="#C4CCD8"/>
<path d="M332.179 302.092C331.946 301.9 331.646 301.81 331.346 301.842C331.047 301.875 330.772 302.026 330.586 302.264L326.497 307.425L313.178 324.236C313.42 324.428 313.652 324.633 313.872 324.85C313.925 324.9 313.972 324.95 314.021 325.002C314.332 325.319 314.617 325.661 314.873 326.023L314.956 326.142C315.223 326.53 315.455 326.941 315.651 327.37C315.659 327.382 315.667 327.395 315.673 327.409L315.67 327.406C315.924 327.959 316.116 328.538 316.243 329.132C316.476 330.141 317.376 330.853 318.411 330.847H344.439C344.742 330.847 345.032 330.726 345.243 330.51C345.455 330.294 345.571 330.002 345.565 329.699C345.232 319.012 340.364 308.972 332.179 302.092Z" stroke="#C4CCD8"/>
<path d="M334.775 317.62C332.804 313.652 329.977 310.171 326.498 307.427C323.216 304.858 319.443 302.988 315.411 301.93C315.112 301.858 314.797 301.91 314.537 302.073C314.277 302.237 314.093 302.498 314.028 302.799L310.211 320.649C309.97 321.687 310.49 322.751 311.456 323.2C312.068 323.477 312.645 323.827 313.173 324.243C313.416 324.435 313.647 324.64 313.868 324.857C313.92 324.907 313.967 324.956 314.017 325.009C314.329 325.325 314.614 325.665 314.872 326.027L314.955 326.146C315.222 326.534 315.454 326.945 315.649 327.374C315.658 327.386 315.665 327.399 315.671 327.413L334.222 319.158C334.502 319.03 334.718 318.795 334.822 318.506C334.926 318.216 334.909 317.897 334.775 317.62Z" stroke="#C4CCD8"/>
<rect x="379.357" y="457.359" width="77" height="77" rx="7.5" fill="#F6F9FC"/>
<rect x="379.357" y="457.359" width="77" height="77" rx="7.5" stroke="#C4CCD8"/>
<path d="M407.271 481.68H429.569C430.303 481.68 430.898 482.275 430.898 483.009C430.898 483.34 430.775 483.659 430.552 483.904L418.864 496.745L405.309 482.495C405.552 482.245 405.832 482.046 406.149 481.9C406.466 481.753 406.84 481.68 407.271 481.68Z" stroke="#C4CCD8"/>
<path d="M404.564 484.346C404.564 483.629 404.848 482.978 405.31 482.5L418.864 496.748L418.848 496.77L418.868 496.748L430.548 509.589C430.772 509.834 430.895 510.153 430.895 510.484C430.895 511.219 430.3 511.814 429.566 511.814H407.223C405.755 511.814 404.564 510.623 404.564 509.155V484.346Z" stroke="#C4CCD8"/>
<path d="M407.113 511.815H429.567C430.301 511.815 430.896 511.22 430.896 510.486C430.896 510.155 430.772 509.835 430.549 509.59L418.841 496.75L406.458 510.332C406.128 510.694 406.154 511.254 406.516 511.584C406.679 511.733 406.892 511.815 407.113 511.815Z" stroke="#C4CCD8"/>
<rect x="199.357" y="7.35938" width="77" height="77" rx="7.5" fill="#F6F9FC"/>
<rect x="199.357" y="7.35938" width="77" height="77" rx="7.5" stroke="#C4CCD8"/>
<path d="M237.017 28.1416C240.017 28.4215 242.944 29.2673 245.64 30.6411C248.336 32.015 250.741 33.8857 252.731 36.1481C253.541 37.0693 253.313 38.4666 252.321 39.1877L238.326 49.3556C236.858 50.4225 234.799 49.3735 234.799 47.5585V30.2598C234.799 29.0329 235.796 28.0277 237.017 28.1416Z" stroke="#C4CCD8"/>
<path d="M249.673 49.7039C249.673 42.0362 243.458 35.8203 235.79 35.8203C228.122 35.8203 221.906 42.0362 221.906 49.7039C221.906 57.3716 228.122 63.5875 235.79 63.5875C243.458 63.5875 249.673 57.3716 249.673 49.7039Z" stroke="#C4CCD8"/>
<g filter="url(#filter2_dd_3390_87866)">
<g clip-path="url(#clip2_3390_87866)">
<rect x="193.857" y="361.859" width="88" height="88" rx="8" fill="white"/>
<circle opacity="0.2" cx="232.357" cy="389.359" r="12" fill="url(#paint7_linear_3390_87866)"/>
<circle opacity="0.7" cx="237.357" cy="394.359" r="12" fill="url(#paint8_linear_3390_87866)"/>
<circle cx="243.357" cy="400.359" r="12" fill="url(#paint9_linear_3390_87866)"/>
<path d="M214.776 426.087V433.859H213.603V426.087H214.776ZM219.314 428.03V428.941H216.13V428.03H219.314ZM216.984 426.633H218.119V432.148C218.119 432.368 218.152 432.534 218.217 432.645C218.283 432.754 218.368 432.828 218.472 432.869C218.578 432.907 218.693 432.926 218.817 432.926C218.908 432.926 218.988 432.919 219.056 432.907C219.124 432.894 219.177 432.884 219.215 432.876L219.42 433.814C219.355 433.839 219.261 433.864 219.14 433.89C219.018 433.918 218.866 433.933 218.684 433.935C218.386 433.94 218.107 433.887 217.849 433.776C217.591 433.665 217.382 433.492 217.223 433.26C217.064 433.027 216.984 432.735 216.984 432.383V426.633ZM223.219 433.977C222.645 433.977 222.15 433.854 221.735 433.609C221.323 433.361 221.004 433.013 220.779 432.565C220.556 432.115 220.445 431.587 220.445 430.983C220.445 430.385 220.556 429.859 220.779 429.404C221.004 428.948 221.318 428.593 221.72 428.337C222.125 428.082 222.598 427.954 223.14 427.954C223.468 427.954 223.787 428.008 224.096 428.117C224.405 428.226 224.682 428.397 224.927 428.629C225.173 428.862 225.366 429.165 225.508 429.537C225.65 429.906 225.72 430.355 225.72 430.884V431.286H221.086V430.436H224.608C224.608 430.137 224.548 429.873 224.426 429.643C224.305 429.41 224.134 429.227 223.914 429.093C223.696 428.958 223.441 428.891 223.147 428.891C222.828 428.891 222.55 428.97 222.312 429.127C222.077 429.281 221.895 429.483 221.766 429.734C221.639 429.982 221.576 430.251 221.576 430.542V431.206C221.576 431.596 221.644 431.928 221.781 432.201C221.92 432.474 222.114 432.683 222.362 432.827C222.609 432.969 222.899 433.04 223.231 433.04C223.446 433.04 223.642 433.009 223.819 432.949C223.996 432.885 224.149 432.792 224.278 432.668C224.407 432.544 224.506 432.391 224.574 432.208L225.648 432.402C225.562 432.718 225.408 432.995 225.185 433.233C224.965 433.468 224.688 433.652 224.354 433.783C224.023 433.913 223.644 433.977 223.219 433.977ZM222.627 427.252L223.515 425.502H224.711L223.534 427.252H222.627ZM227.179 433.859V428.03H228.276V428.956H228.337C228.443 428.642 228.63 428.395 228.899 428.216C229.169 428.034 229.476 427.943 229.817 427.943C229.888 427.943 229.971 427.945 230.068 427.95C230.166 427.955 230.243 427.962 230.299 427.969V429.055C230.254 429.042 230.173 429.028 230.056 429.013C229.94 428.995 229.823 428.986 229.707 428.986C229.439 428.986 229.2 429.043 228.99 429.157C228.782 429.268 228.618 429.424 228.496 429.624C228.375 429.821 228.314 430.046 228.314 430.299V433.859H227.179ZM233.125 433.988C232.756 433.988 232.422 433.92 232.124 433.783C231.825 433.644 231.588 433.443 231.414 433.18C231.242 432.917 231.156 432.594 231.156 432.212C231.156 431.883 231.219 431.613 231.345 431.4C231.472 431.187 231.643 431.019 231.858 430.895C232.073 430.771 232.313 430.678 232.579 430.614C232.845 430.551 233.115 430.503 233.391 430.47C233.74 430.43 234.024 430.397 234.241 430.372C234.459 430.344 234.617 430.299 234.716 430.239C234.814 430.178 234.864 430.079 234.864 429.943V429.916C234.864 429.585 234.77 429.328 234.583 429.146C234.398 428.963 234.122 428.872 233.755 428.872C233.373 428.872 233.072 428.957 232.852 429.127C232.635 429.294 232.484 429.48 232.401 429.685L231.334 429.442C231.461 429.087 231.645 428.802 231.888 428.584C232.134 428.364 232.416 428.204 232.735 428.106C233.053 428.005 233.389 427.954 233.74 427.954C233.973 427.954 234.22 427.982 234.48 428.037C234.744 428.091 234.989 428.189 235.217 428.333C235.447 428.478 235.635 428.684 235.782 428.952C235.929 429.218 236.002 429.563 236.002 429.988V433.859H234.894V433.062H234.849C234.775 433.209 234.665 433.353 234.518 433.495C234.372 433.637 234.183 433.754 233.953 433.848C233.723 433.942 233.447 433.988 233.125 433.988ZM233.372 433.078C233.686 433.078 233.954 433.016 234.177 432.892C234.402 432.768 234.573 432.606 234.689 432.406C234.808 432.203 234.868 431.987 234.868 431.757V431.005C234.827 431.046 234.749 431.084 234.632 431.119C234.518 431.152 234.388 431.181 234.241 431.206C234.095 431.229 233.952 431.251 233.812 431.271C233.673 431.289 233.557 431.304 233.463 431.317C233.243 431.344 233.042 431.391 232.86 431.457C232.68 431.523 232.536 431.618 232.427 431.742C232.321 431.863 232.268 432.025 232.268 432.227C232.268 432.508 232.371 432.721 232.579 432.865C232.786 433.007 233.051 433.078 233.372 433.078ZM240.435 428.03V428.941H237.251V428.03H240.435ZM238.105 426.633H239.239V432.148C239.239 432.368 239.272 432.534 239.338 432.645C239.404 432.754 239.489 432.828 239.592 432.869C239.699 432.907 239.814 432.926 239.938 432.926C240.029 432.926 240.109 432.919 240.177 432.907C240.245 432.894 240.298 432.884 240.336 432.876L240.541 433.814C240.475 433.839 240.382 433.864 240.26 433.89C240.139 433.918 239.987 433.933 239.805 433.935C239.506 433.94 239.228 433.887 238.97 433.776C238.712 433.665 238.503 433.492 238.344 433.26C238.184 433.027 238.105 432.735 238.105 432.383V426.633ZM241.89 433.859V428.03H243.025V433.859H241.89ZM242.463 427.13C242.266 427.13 242.096 427.065 241.955 426.933C241.816 426.799 241.746 426.639 241.746 426.455C241.746 426.268 241.816 426.108 241.955 425.977C242.096 425.842 242.266 425.775 242.463 425.775C242.661 425.775 242.829 425.842 242.968 425.977C243.11 426.108 243.181 426.268 243.181 426.455C243.181 426.639 243.11 426.799 242.968 426.933C242.829 427.065 242.661 427.13 242.463 427.13ZM247.207 433.977C246.661 433.977 246.184 433.852 245.776 433.601C245.369 433.351 245.053 433 244.828 432.55C244.602 432.1 244.49 431.573 244.49 430.971C244.49 430.366 244.602 429.838 244.828 429.385C245.053 428.932 245.369 428.58 245.776 428.33C246.184 428.079 246.661 427.954 247.207 427.954C247.754 427.954 248.231 428.079 248.638 428.33C249.045 428.58 249.362 428.932 249.587 429.385C249.812 429.838 249.925 430.366 249.925 430.971C249.925 431.573 249.812 432.1 249.587 432.55C249.362 433 249.045 433.351 248.638 433.601C248.231 433.852 247.754 433.977 247.207 433.977ZM247.211 433.024C247.565 433.024 247.859 432.931 248.092 432.744C248.324 432.556 248.496 432.307 248.608 431.996C248.722 431.685 248.779 431.342 248.779 430.967C248.779 430.595 248.722 430.254 248.608 429.943C248.496 429.629 248.324 429.377 248.092 429.187C247.859 428.998 247.565 428.903 247.211 428.903C246.854 428.903 246.558 428.998 246.323 429.187C246.09 429.377 245.917 429.629 245.803 429.943C245.692 430.254 245.636 430.595 245.636 430.967C245.636 431.342 245.692 431.685 245.803 431.996C245.917 432.307 246.09 432.556 246.323 432.744C246.558 432.931 246.854 433.024 247.211 433.024ZM252.526 430.398V433.859H251.391V428.03H252.481V428.979H252.553C252.687 428.67 252.897 428.422 253.183 428.235C253.471 428.048 253.834 427.954 254.272 427.954C254.669 427.954 255.017 428.037 255.316 428.204C255.614 428.369 255.846 428.614 256.01 428.941C256.175 429.267 256.257 429.671 256.257 430.151V433.859H255.122V430.288C255.122 429.865 255.012 429.535 254.792 429.297C254.572 429.057 254.269 428.937 253.885 428.937C253.622 428.937 253.388 428.994 253.183 429.108C252.98 429.222 252.82 429.389 252.701 429.609C252.584 429.826 252.526 430.089 252.526 430.398ZM262.347 429.453L261.319 429.635C261.276 429.504 261.207 429.378 261.114 429.259C261.023 429.141 260.899 429.043 260.742 428.967C260.585 428.891 260.389 428.853 260.153 428.853C259.832 428.853 259.564 428.926 259.349 429.07C259.134 429.211 259.026 429.395 259.026 429.62C259.026 429.815 259.098 429.972 259.243 430.091C259.387 430.21 259.62 430.307 259.941 430.383L260.867 430.595C261.403 430.719 261.803 430.91 262.066 431.169C262.329 431.427 262.461 431.762 262.461 432.174C262.461 432.523 262.36 432.835 262.157 433.108C261.958 433.379 261.678 433.591 261.319 433.746C260.962 433.9 260.548 433.977 260.078 433.977C259.425 433.977 258.892 433.838 258.48 433.56C258.067 433.279 257.814 432.88 257.721 432.364L258.818 432.197C258.886 432.483 259.026 432.699 259.239 432.846C259.451 432.99 259.728 433.062 260.07 433.062C260.442 433.062 260.739 432.985 260.962 432.831C261.185 432.674 261.296 432.483 261.296 432.258C261.296 432.076 261.228 431.923 261.091 431.799C260.957 431.675 260.751 431.581 260.472 431.518L259.486 431.301C258.942 431.177 258.539 430.98 258.279 430.709C258.021 430.439 257.892 430.096 257.892 429.681C257.892 429.337 257.988 429.036 258.18 428.777C258.372 428.519 258.638 428.318 258.977 428.174C259.316 428.027 259.704 427.954 260.142 427.954C260.772 427.954 261.268 428.091 261.63 428.364C261.992 428.635 262.231 428.998 262.347 429.453Z" fill="#2E3A55"/>
</g>
</g>
<rect x="469.357" y="187.359" width="77" height="77" rx="7.5" fill="#F6F9FC"/>
<rect x="469.357" y="187.359" width="77" height="77" rx="7.5" stroke="#C4CCD8"/>
<path d="M515.834 220.988C515.834 220.671 515.769 220.358 515.642 220.068L512.167 212.142C511.808 211.324 511.008 210.797 510.125 210.797H492.37C491.135 210.797 490.135 211.811 490.135 213.062V228.915C490.135 230.165 491.135 231.179 492.37 231.179H510.125C511.008 231.179 511.808 230.652 512.167 229.835L515.642 221.908C515.769 221.619 515.834 221.305 515.834 220.988Z" stroke="#C4CCD8"/>
<path d="M499.883 230.73C499.883 231.047 499.948 231.361 500.076 231.65L503.551 239.577C503.909 240.395 504.71 240.921 505.593 240.921H523.348C524.582 240.921 525.582 239.907 525.582 238.657V222.804C525.582 221.553 524.582 220.539 523.348 220.539H505.593C504.71 220.539 503.909 221.066 503.551 221.884L500.076 229.81C499.948 230.1 499.883 230.413 499.883 230.73Z" stroke="#C4CCD8"/>
<defs>
<filter id="filter0_dd_3390_87866" x="0.230721" y="270.833" width="115.253" height="115.253" filterUnits="userSpaceOnUse" color-interpolation-filters="sRGB">
<feFlood flood-opacity="0" result="BackgroundImageFix"/>
<feColorMatrix in="SourceAlpha" type="matrix" values="0 0 0 0 0 0 0 0 0 0 0 0 0 0 0 0 0 0 127 0" result="hardAlpha"/>
<feMorphology radius="7.56" operator="erode" in="SourceAlpha" result="effect1_dropShadow_3390_87866"/>
<feOffset dy="7.56"/>
<feGaussianBlur stdDeviation="7.56"/>
<feComposite in2="hardAlpha" operator="out"/>
<feColorMatrix type="matrix" values="0 0 0 0 0 0 0 0 0 0 0 0 0 0 0 0 0 0 0.1 0"/>
<feBlend mode="normal" in2="BackgroundImageFix" result="effect1_dropShadow_3390_87866"/>
<feColorMatrix in="SourceAlpha" type="matrix" values="0 0 0 0 0 0 0 0 0 0 0 0 0 0 0 0 0 0 127 0" result="hardAlpha"/>
<feMorphology radius="11.5733" operator="erode" in="SourceAlpha" result="effect2_dropShadow_3390_87866"/>
<feOffset dy="12.6"/>
<feGaussianBlur stdDeviation="12.6"/>
<feComposite in2="hardAlpha" operator="out"/>
<feColorMatrix type="matrix" values="0 0 0 0 0.196078 0 0 0 0 0.196078 0 0 0 0 0.364706 0 0 0 0.25 0"/>
<feBlend mode="normal" in2="effect1_dropShadow_3390_87866" result="effect2_dropShadow_3390_87866"/>
<feBlend mode="normal" in="SourceGraphic" in2="effect2_dropShadow_3390_87866" result="shape"/>
</filter>
<filter id="filter1_dd_3390_87866" x="180.231" y="180.833" width="115.253" height="115.253" filterUnits="userSpaceOnUse" color-interpolation-filters="sRGB">
<feFlood flood-opacity="0" result="BackgroundImageFix"/>
<feColorMatrix in="SourceAlpha" type="matrix" values="0 0 0 0 0 0 0 0 0 0 0 0 0 0 0 0 0 0 127 0" result="hardAlpha"/>
<feMorphology radius="7.56" operator="erode" in="SourceAlpha" result="effect1_dropShadow_3390_87866"/>
<feOffset dy="7.56"/>
<feGaussianBlur stdDeviation="7.56"/>
<feComposite in2="hardAlpha" operator="out"/>
<feColorMatrix type="matrix" values="0 0 0 0 0 0 0 0 0 0 0 0 0 0 0 0 0 0 0.1 0"/>
<feBlend mode="normal" in2="BackgroundImageFix" result="effect1_dropShadow_3390_87866"/>
<feColorMatrix in="SourceAlpha" type="matrix" values="0 0 0 0 0 0 0 0 0 0 0 0 0 0 0 0 0 0 127 0" result="hardAlpha"/>
<feMorphology radius="11.5733" operator="erode" in="SourceAlpha" result="effect2_dropShadow_3390_87866"/>
<feOffset dy="12.6"/>
<feGaussianBlur stdDeviation="12.6"/>
<feComposite in2="hardAlpha" operator="out"/>
<feColorMatrix type="matrix" values="0 0 0 0 0.196078 0 0 0 0 0.196078 0 0 0 0 0.364706 0 0 0 0.25 0"/>
<feBlend mode="normal" in2="effect1_dropShadow_3390_87866" result="effect2_dropShadow_3390_87866"/>
<feBlend mode="normal" in="SourceGraphic" in2="effect2_dropShadow_3390_87866" result="shape"/>
</filter>
<filter id="filter2_dd_3390_87866" x="180.231" y="360.833" width="115.253" height="115.253" filterUnits="userSpaceOnUse" color-interpolation-filters="sRGB">
<feFlood flood-opacity="0" result="BackgroundImageFix"/>
<feColorMatrix in="SourceAlpha" type="matrix" values="0 0 0 0 0 0 0 0 0 0 0 0 0 0 0 0 0 0 127 0" result="hardAlpha"/>
<feMorphology radius="7.56" operator="erode" in="SourceAlpha" result="effect1_dropShadow_3390_87866"/>
<feOffset dy="7.56"/>
<feGaussianBlur stdDeviation="7.56"/>
<feComposite in2="hardAlpha" operator="out"/>
<feColorMatrix type="matrix" values="0 0 0 0 0 0 0 0 0 0 0 0 0 0 0 0 0 0 0.1 0"/>
<feBlend mode="normal" in2="BackgroundImageFix" result="effect1_dropShadow_3390_87866"/>
<feColorMatrix in="SourceAlpha" type="matrix" values="0 0 0 0 0 0 0 0 0 0 0 0 0 0 0 0 0 0 127 0" result="hardAlpha"/>
<feMorphology radius="11.5733" operator="erode" in="SourceAlpha" result="effect2_dropShadow_3390_87866"/>
<feOffset dy="12.6"/>
<feGaussianBlur stdDeviation="12.6"/>
<feComposite in2="hardAlpha" operator="out"/>
<feColorMatrix type="matrix" values="0 0 0 0 0.196078 0 0 0 0 0.196078 0 0 0 0 0.364706 0 0 0 0.25 0"/>
<feBlend mode="normal" in2="effect1_dropShadow_3390_87866" result="effect2_dropShadow_3390_87866"/>
<feBlend mode="normal" in="SourceGraphic" in2="effect2_dropShadow_3390_87866" result="shape"/>
</filter>
<linearGradient id="paint0_linear_3390_87866" x1="102.51" y1="282.604" x2="194.034" y2="357.473" gradientUnits="userSpaceOnUse">
<stop stop-color="#E6F3FF" stop-opacity="0.22"/>
<stop offset="0.322917" stop-color="#72BEFF"/>
<stop offset="0.636963" stop-color="#C9E6FF"/>
<stop offset="1" stop-color="#70BDFF"/>
</linearGradient>
<linearGradient id="paint1_linear_3390_87866" x1="44.2522" y1="285.359" x2="62.5232" y2="299.209" gradientUnits="userSpaceOnUse">
<stop stop-color="#382AFF"/>
<stop offset="1" stop-color="#2990E9"/>
</linearGradient>
<linearGradient id="paint2_linear_3390_87866" x1="51.3635" y1="292.633" x2="69.6346" y2="306.483" gradientUnits="userSpaceOnUse">
<stop stop-color="#382AFF"/>
<stop offset="1" stop-color="#2990E9"/>
</linearGradient>
<linearGradient id="paint3_linear_3390_87866" x1="58.3635" y1="299.812" x2="76.6346" y2="313.663" gradientUnits="userSpaceOnUse">
<stop stop-color="#382AFF"/>
<stop offset="1" stop-color="#2990E9"/>
</linearGradient>
<linearGradient id="paint4_linear_3390_87866" x1="241.203" y1="209.34" x2="245.06" y2="229.637" gradientUnits="userSpaceOnUse">
<stop stop-color="#382AFF"/>
<stop offset="1" stop-color="#2990E9"/>
</linearGradient>
<linearGradient id="paint5_linear_3390_87866" x1="241.203" y1="203.606" x2="245.06" y2="223.902" gradientUnits="userSpaceOnUse">
<stop stop-color="#382AFF"/>
<stop offset="1" stop-color="#2990E9"/>
</linearGradient>
<linearGradient id="paint6_linear_3390_87866" x1="241.203" y1="195.934" x2="245.06" y2="216.231" gradientUnits="userSpaceOnUse">
<stop stop-color="#382AFF"/>
<stop offset="1" stop-color="#2990E9"/>
</linearGradient>
<linearGradient id="paint7_linear_3390_87866" x1="226.042" y1="377.359" x2="243.838" y2="390.664" gradientUnits="userSpaceOnUse">
<stop stop-color="#382AFF"/>
<stop offset="1" stop-color="#2990E9"/>
</linearGradient>
<linearGradient id="paint8_linear_3390_87866" x1="231.042" y1="382.359" x2="248.838" y2="395.664" gradientUnits="userSpaceOnUse">
<stop stop-color="#382AFF"/>
<stop offset="1" stop-color="#2990E9"/>
</linearGradient>
<linearGradient id="paint9_linear_3390_87866" x1="237.042" y1="388.359" x2="254.838" y2="401.664" gradientUnits="userSpaceOnUse">
<stop stop-color="#382AFF"/>
<stop offset="1" stop-color="#2990E9"/>
</linearGradient>
<clipPath id="clip0_3390_87866">
<rect x="13.8574" y="271.859" width="88" height="88" rx="8" fill="white"/>
</clipPath>
<clipPath id="clip1_3390_87866">
<rect x="193.857" y="181.859" width="88" height="88" rx="8" fill="white"/>
</clipPath>
<clipPath id="clip2_3390_87866">
<rect x="193.857" y="361.859" width="88" height="88" rx="8" fill="white"/>
</clipPath>
</defs>
</svg>
