<?xml version="1.0" encoding="utf-8"?>
<svg xmlns="http://www.w3.org/2000/svg" width="313" height="87" viewBox="0 0 313 87" fill="none">
  <path d="M26.9949 85.5511C26.487 85.5749 26.0612 85.6094 25.6355 85.6094C18.0426 85.6147 10.451 85.5869 2.85945 85.6413C1.6658 85.6492 1.41646 85.2525 1.41779 84.1406C1.44697 57.165 1.45095 30.1867 1.42044 3.20975C1.41912 1.96513 1.73742 1.57635 3.01727 1.58564C10.5213 1.64402 18.0267 1.63739 25.5321 1.58962C26.7018 1.58166 27.1116 1.87358 27.1103 3.10758C27.0798 30.1721 27.0864 57.2366 27.0825 84.2998C27.0838 84.6833 27.0321 85.0667 26.9949 85.5511Z" fill="#727D85"/>
  <path d="M50.6874 41.3379C52.0681 41.6629 53.1715 41.8593 54.2365 42.1871C62.982 44.87 68.3985 52.0657 68.8428 61.484C69.1173 67.3104 68.2247 72.8116 64.5231 77.5486C60.5522 82.6332 55.2962 85.2711 48.8718 85.5776C47.2603 85.6532 45.6423 85.5829 44.0309 85.624C43.3081 85.6453 42.9606 85.3932 43.0309 84.6501C43.0508 84.4352 43.0309 84.2149 43.0309 83.9946C43.0309 57.1955 43.0309 30.3937 43.0348 3.59191C43.0348 1.29507 42.938 1.64934 44.9964 1.61617C48.4076 1.56044 51.8187 1.59096 55.0469 2.90193C62.0085 5.72554 65.8467 10.9734 66.6358 18.3734C67.1398 23.0733 66.8228 27.7134 64.3533 31.9554C61.5947 36.703 57.5695 39.7151 52.1994 40.9093C51.7829 41.0022 51.3784 41.1402 50.6874 41.3379Z" fill="#727D85"/>
  <path d="M147.154 85.5152C146.53 85.5457 146.07 85.5935 145.607 85.5935C137.793 85.5962 129.98 85.5656 122.165 85.6214C120.986 85.6307 120.51 85.2459 120.172 84.1472C115.581 69.2622 110.949 54.3918 106.325 39.5174C103.773 31.3092 101.202 23.1091 98.6892 14.8877C98.4756 14.1858 98.4451 13.3153 98.6507 12.6147C99.591 9.34527 100.664 6.11431 101.643 2.85547C101.907 1.97442 102.319 1.6135 103.298 1.62279C108.624 1.67321 113.949 1.69312 119.276 1.6082C120.61 1.58697 121.148 2.01688 121.539 3.2814C128.619 26.1185 135.748 48.9409 142.866 71.7647C144.266 76.2628 145.67 80.7597 147.154 85.5152Z" fill="#727D85"/>
  <path d="M75.9038 85.4462C80.5617 70.5254 85.1625 55.7717 89.7673 41.0181C89.8787 41.0181 89.9901 41.0194 90.1042 41.0194C94.6971 55.7744 99.2899 70.5294 103.932 85.4462C94.6069 85.4462 85.3654 85.4462 75.9038 85.4462Z" fill="#727D85"/>
  <path d="M156.901 53.9326C156.902 43.9319 156.918 33.9325 156.878 23.9317C156.875 22.776 157.134 22.3395 158.395 22.3501C165.989 22.4098 173.585 22.3978 181.179 22.358C182.285 22.3527 182.588 22.7229 182.586 23.7911C182.56 43.8337 182.559 63.8803 182.594 83.9229C182.597 85.1914 182.133 85.4396 180.992 85.4343C173.44 85.3958 165.889 85.3878 158.338 85.4422C157.145 85.4502 156.877 85.0481 156.879 83.9336C156.915 73.9355 156.899 63.9347 156.901 53.9326Z" fill="#727D85"/>
  <path d="M224.211 62.1302C224.211 69.375 224.189 76.6198 224.234 83.8632C224.239 85.0203 223.979 85.5351 222.707 85.4343C219.501 85.1822 216.203 85.4157 213.091 84.7509C205.747 83.1812 199.929 76.6038 198.861 69.1879C198.638 67.6381 198.503 66.0644 198.502 64.5C198.475 51.0148 198.506 37.5283 198.462 24.0432C198.457 22.7442 198.748 22.289 200.12 22.3488C203.681 22.5027 207.274 22.1073 210.759 23.2457C218.738 25.8425 224.076 33.2836 224.188 42.2348C224.27 48.8666 224.204 55.501 224.204 62.1355C224.205 62.1302 224.207 62.1302 224.211 62.1302Z" fill="#727D85"/>
  <path d="M279.94 1.38528C282.123 2.07261 284.086 2.54764 285.94 3.296C298.168 8.236 305.81 17.3637 309.44 29.8483C312.647 40.8761 312.028 51.7698 307.284 62.3265C305.44 66.4319 303.02 70.1791 299.944 73.4658C299.196 74.2685 299.103 74.936 299.438 75.9298C300.393 78.7627 301.243 81.6301 302.13 84.4856C302.215 84.7616 302.261 85.0455 302.362 85.49C301.882 85.5298 301.487 85.5935 301.09 85.5935C294.514 85.5988 287.94 85.5789 281.367 85.62C280.301 85.628 279.915 85.3799 279.916 84.2242C279.948 57.0694 279.944 29.9147 279.944 2.76127C279.94 2.43485 279.94 2.10711 279.94 1.38528Z" fill="#727D85"/>
  <path d="M264.49 1.77142C264.49 29.5604 264.49 57.3547 264.49 85.4011C263.265 85.0827 262.169 84.8624 261.115 84.5174C247.84 80.1559 239.359 71.0017 235.332 57.8337C231.47 45.2097 232.416 32.7861 238.684 21.059C243.997 11.1193 252.229 4.67332 263.193 1.83113C263.478 1.75682 263.769 1.70242 264.061 1.66792C264.172 1.65465 264.297 1.72232 264.49 1.77142Z" fill="#727D85"/>
</svg>